G04 #@! TF.FileFunction,Copper,L2,Bot,Signal*
%FSLAX46Y46*%
G04 Gerber Fmt 4.6, Leading zero omitted, Abs format (unit mm)*
G04 Created by KiCad (PCBNEW 4.0.4-stable) date 01/16/17 16:57:48*
%MOMM*%
%LPD*%
G01*
G04 APERTURE LIST*
%ADD10C,0.100000*%
%ADD11C,1.524000*%
%ADD12R,1.524000X1.524000*%
%ADD13O,2.641600X1.320800*%
%ADD14R,2.000000X2.000000*%
%ADD15C,2.000000*%
%ADD16C,1.320800*%
%ADD17C,1.397000*%
%ADD18C,1.300000*%
%ADD19R,1.300000X1.300000*%
%ADD20R,2.235200X2.235200*%
%ADD21R,2.032000X1.727200*%
%ADD22O,2.032000X1.727200*%
%ADD23R,2.032000X2.032000*%
%ADD24O,2.032000X2.032000*%
%ADD25C,1.998980*%
%ADD26C,0.800000*%
%ADD27C,0.500000*%
G04 APERTURE END LIST*
D10*
D11*
X141605000Y-80772000D03*
X141605000Y-78232000D03*
D12*
X141605000Y-83312000D03*
D13*
X135863400Y-80770800D03*
X135863400Y-83270800D03*
X135863400Y-78270800D03*
D14*
X129540000Y-80772000D03*
D15*
X129540000Y-83312000D03*
D14*
X138557000Y-105918000D03*
D15*
X136017000Y-105918000D03*
D11*
X129667000Y-93218000D03*
X132207000Y-93218000D03*
D12*
X127127000Y-93218000D03*
D11*
X129667000Y-99568000D03*
X132207000Y-99568000D03*
D12*
X127127000Y-99568000D03*
D11*
X129667000Y-105918000D03*
X132207000Y-105918000D03*
D12*
X127127000Y-105918000D03*
D16*
X123952000Y-121793000D03*
X129032000Y-121793000D03*
X126492000Y-121793000D03*
D17*
X127381000Y-112903000D03*
X124841000Y-112903000D03*
D14*
X146177000Y-116713000D03*
D15*
X148717000Y-116713000D03*
D14*
X146177000Y-121793000D03*
D15*
X148717000Y-121793000D03*
D18*
X152233000Y-80772000D03*
D19*
X149733000Y-80772000D03*
D20*
X144907000Y-105918000D03*
D21*
X108712000Y-98933000D03*
D22*
X108712000Y-96393000D03*
X108712000Y-93853000D03*
D21*
X112522000Y-98933000D03*
D22*
X112522000Y-96393000D03*
X112522000Y-93853000D03*
D23*
X108712000Y-102743000D03*
D24*
X108712000Y-105283000D03*
D25*
X146177000Y-100838000D03*
X136017000Y-100838000D03*
X146177000Y-97028000D03*
X136017000Y-97028000D03*
X136017000Y-93218000D03*
X146177000Y-93218000D03*
X142367000Y-112903000D03*
X132207000Y-112903000D03*
X142367000Y-121793000D03*
X132207000Y-121793000D03*
X142367000Y-116713000D03*
X132207000Y-116713000D03*
X151765000Y-87122000D03*
X141605000Y-87122000D03*
X128270000Y-87122000D03*
X138430000Y-87122000D03*
D26*
X127127000Y-96012000D03*
D27*
X130683000Y-94742000D02*
X127127000Y-96012000D01*
X132207000Y-93218000D02*
X130683000Y-94742000D01*
X141605000Y-78232000D02*
X150749000Y-78232000D01*
X151725000Y-79208000D02*
X151725000Y-80645000D01*
X150749000Y-78232000D02*
X151725000Y-79208000D01*
X124841000Y-112903000D02*
X114681000Y-102743000D01*
X114681000Y-102743000D02*
X108712000Y-102743000D01*
X141605000Y-78232000D02*
X141732000Y-78359000D01*
X141605000Y-78232000D02*
X135890000Y-78232000D01*
X135890000Y-78232000D02*
X135863400Y-78270800D01*
X141605000Y-80772000D02*
X149098000Y-80772000D01*
X149098000Y-80772000D02*
X149606000Y-81280000D01*
X149606000Y-81280000D02*
X149606000Y-84963000D01*
X149606000Y-84963000D02*
X151765000Y-87122000D01*
X112522000Y-98933000D02*
X113157000Y-98298000D01*
X113157000Y-98298000D02*
X114427000Y-98298000D01*
X114427000Y-98298000D02*
X115697000Y-97028000D01*
X115697000Y-97028000D02*
X136017000Y-97028000D01*
X142367000Y-121793000D02*
X146177000Y-121793000D01*
X112522000Y-96393000D02*
X112141000Y-96393000D01*
X112141000Y-96393000D02*
X110871000Y-97663000D01*
X110871000Y-97663000D02*
X110871000Y-101219000D01*
X110871000Y-101219000D02*
X111252000Y-101600000D01*
X111252000Y-101600000D02*
X115697000Y-101600000D01*
X115697000Y-101600000D02*
X124206000Y-110109000D01*
X124206000Y-110109000D02*
X139573000Y-110109000D01*
X139573000Y-110109000D02*
X142367000Y-112903000D01*
X142367000Y-112903000D02*
X144272000Y-114808000D01*
X144272000Y-114808000D02*
X148082000Y-114808000D01*
X148082000Y-114808000D02*
X148082000Y-116078000D01*
X148082000Y-116078000D02*
X148717000Y-116713000D01*
X146177000Y-116713000D02*
X142367000Y-116713000D01*
X112522000Y-93853000D02*
X115316000Y-93853000D01*
X125857000Y-83312000D02*
X129540000Y-83312000D01*
X115316000Y-93853000D02*
X125857000Y-83312000D01*
X129540000Y-83312000D02*
X135890000Y-83312000D01*
X135890000Y-83312000D02*
X135863400Y-83270800D01*
X144907000Y-105918000D02*
X143002000Y-104013000D01*
X143002000Y-104013000D02*
X134747000Y-104013000D01*
X134747000Y-104013000D02*
X134112000Y-104648000D01*
X134112000Y-104648000D02*
X130937000Y-104648000D01*
X130937000Y-104648000D02*
X129667000Y-105918000D01*
X108712000Y-105283000D02*
X108077000Y-105283000D01*
X108077000Y-105283000D02*
X106934000Y-104140000D01*
X106934000Y-100711000D02*
X108712000Y-98933000D01*
X106934000Y-104140000D02*
X106934000Y-100711000D01*
X146177000Y-100838000D02*
X144272000Y-102743000D01*
X144272000Y-102743000D02*
X133477000Y-102743000D01*
X133477000Y-102743000D02*
X132842000Y-103378000D01*
X132842000Y-103378000D02*
X129667000Y-103378000D01*
X129667000Y-103378000D02*
X127127000Y-105918000D01*
X127127000Y-99568000D02*
X128397000Y-98298000D01*
X128397000Y-98298000D02*
X133477000Y-98298000D01*
X133477000Y-98298000D02*
X134112000Y-98933000D01*
X134112000Y-98933000D02*
X137287000Y-98933000D01*
X137287000Y-98933000D02*
X139192000Y-97028000D01*
X139192000Y-97028000D02*
X146177000Y-97028000D01*
X136017000Y-93218000D02*
X134747000Y-91948000D01*
X134747000Y-91948000D02*
X128397000Y-91948000D01*
X128397000Y-91948000D02*
X127127000Y-93218000D01*
X132207000Y-112903000D02*
X127381000Y-112903000D01*
X129032000Y-121793000D02*
X132207000Y-121793000D01*
X132842000Y-116713000D02*
X132207000Y-116713000D01*
X141605000Y-87122000D02*
X141605000Y-85852000D01*
X141605000Y-85852000D02*
X136525000Y-80772000D01*
X136525000Y-80772000D02*
X135890000Y-80772000D01*
X135890000Y-80772000D02*
X135863400Y-80770800D01*
M02*
