G04 #@! TF.FileFunction,Soldermask,Top*
%FSLAX46Y46*%
G04 Gerber Fmt 4.6, Leading zero omitted, Abs format (unit mm)*
G04 Created by KiCad (PCBNEW 4.0.4-stable) date 01/16/17 16:57:48*
%MOMM*%
%LPD*%
G01*
G04 APERTURE LIST*
%ADD10C,0.100000*%
%ADD11C,1.924000*%
%ADD12R,1.924000X1.924000*%
%ADD13O,3.041600X1.720800*%
%ADD14R,2.400000X2.400000*%
%ADD15C,2.400000*%
%ADD16C,1.720800*%
%ADD17C,1.797000*%
%ADD18C,1.700000*%
%ADD19R,1.700000X1.700000*%
%ADD20R,2.635200X2.635200*%
%ADD21R,2.432000X2.127200*%
%ADD22O,2.432000X2.127200*%
%ADD23R,2.432000X2.432000*%
%ADD24O,2.432000X2.432000*%
%ADD25C,2.398980*%
G04 APERTURE END LIST*
D10*
D11*
X141605000Y-80772000D03*
X141605000Y-78232000D03*
D12*
X141605000Y-83312000D03*
D13*
X135863400Y-80770800D03*
X135863400Y-83270800D03*
X135863400Y-78270800D03*
D14*
X129540000Y-80772000D03*
D15*
X129540000Y-83312000D03*
D14*
X138557000Y-105918000D03*
D15*
X136017000Y-105918000D03*
D11*
X129667000Y-93218000D03*
X132207000Y-93218000D03*
D12*
X127127000Y-93218000D03*
D11*
X129667000Y-99568000D03*
X132207000Y-99568000D03*
D12*
X127127000Y-99568000D03*
D11*
X129667000Y-105918000D03*
X132207000Y-105918000D03*
D12*
X127127000Y-105918000D03*
D16*
X123952000Y-121793000D03*
X129032000Y-121793000D03*
X126492000Y-121793000D03*
D17*
X127381000Y-112903000D03*
X124841000Y-112903000D03*
D14*
X146177000Y-116713000D03*
D15*
X148717000Y-116713000D03*
D14*
X146177000Y-121793000D03*
D15*
X148717000Y-121793000D03*
D18*
X152233000Y-80772000D03*
D19*
X149733000Y-80772000D03*
D20*
X144907000Y-105918000D03*
D21*
X108712000Y-98933000D03*
D22*
X108712000Y-96393000D03*
X108712000Y-93853000D03*
D21*
X112522000Y-98933000D03*
D22*
X112522000Y-96393000D03*
X112522000Y-93853000D03*
D23*
X108712000Y-102743000D03*
D24*
X108712000Y-105283000D03*
D25*
X146177000Y-100838000D03*
X136017000Y-100838000D03*
X146177000Y-97028000D03*
X136017000Y-97028000D03*
X136017000Y-93218000D03*
X146177000Y-93218000D03*
X142367000Y-112903000D03*
X132207000Y-112903000D03*
X142367000Y-121793000D03*
X132207000Y-121793000D03*
X142367000Y-116713000D03*
X132207000Y-116713000D03*
X151765000Y-87122000D03*
X141605000Y-87122000D03*
X128270000Y-87122000D03*
X138430000Y-87122000D03*
M02*
