M48
;DRILL file {KiCad 4.0.4-stable} date 01/16/17 16:57:43
;FORMAT={-:-/ absolute / metric / decimal}
FMAT,2
METRIC,TZ
T1C0.400
T2C0.800
T3C0.813
T4C1.001
T5C1.016
%
G90
G05
M71
T1
X127.127Y-96.012
T2
X127.127Y-93.218
X127.127Y-99.568
X127.127Y-105.918
X129.667Y-93.218
X129.667Y-99.568
X129.667Y-105.918
X132.207Y-93.218
X132.207Y-99.568
X132.207Y-105.918
X141.605Y-78.232
X141.605Y-80.772
X141.605Y-83.312
X149.733Y-80.772
X152.233Y-80.772
T3
X123.952Y-121.793
X124.841Y-112.903
X126.492Y-121.793
X127.381Y-112.903
X129.032Y-121.793
X135.863Y-78.271
X135.863Y-80.771
X135.863Y-83.271
T4
X128.27Y-87.122
X129.54Y-80.772
X129.54Y-83.312
X132.207Y-112.903
X132.207Y-116.713
X132.207Y-121.793
X136.017Y-93.218
X136.017Y-97.028
X136.017Y-100.838
X136.017Y-105.918
X138.43Y-87.122
X138.557Y-105.918
X141.605Y-87.122
X142.367Y-112.903
X142.367Y-116.713
X142.367Y-121.793
X146.177Y-93.218
X146.177Y-97.028
X146.177Y-100.838
X146.177Y-116.713
X146.177Y-121.793
X148.717Y-116.713
X148.717Y-121.793
X151.765Y-87.122
T5
X108.712Y-93.853
X108.712Y-96.393
X108.712Y-98.933
X108.712Y-102.743
X108.712Y-105.283
X112.522Y-93.853
X112.522Y-96.393
X112.522Y-98.933
X144.907Y-105.918
T0
M30
