G04 #@! TF.FileFunction,Copper,L1,Top,Signal*
%FSLAX46Y46*%
G04 Gerber Fmt 4.6, Leading zero omitted, Abs format (unit mm)*
G04 Created by KiCad (PCBNEW 4.0.4-stable) date 01/16/17 16:57:48*
%MOMM*%
%LPD*%
G01*
G04 APERTURE LIST*
%ADD10C,0.100000*%
%ADD11C,1.524000*%
%ADD12R,1.524000X1.524000*%
%ADD13O,2.641600X1.320800*%
%ADD14R,2.000000X2.000000*%
%ADD15C,2.000000*%
%ADD16C,1.320800*%
%ADD17C,1.397000*%
%ADD18C,1.300000*%
%ADD19R,1.300000X1.300000*%
%ADD20R,2.235200X2.235200*%
%ADD21R,2.032000X1.727200*%
%ADD22O,2.032000X1.727200*%
%ADD23R,2.032000X2.032000*%
%ADD24O,2.032000X2.032000*%
%ADD25C,1.998980*%
%ADD26C,0.800000*%
%ADD27C,0.500000*%
%ADD28C,0.254000*%
G04 APERTURE END LIST*
D10*
D11*
X141605000Y-80772000D03*
X141605000Y-78232000D03*
D12*
X141605000Y-83312000D03*
D13*
X135863400Y-80770800D03*
X135863400Y-83270800D03*
X135863400Y-78270800D03*
D14*
X129540000Y-80772000D03*
D15*
X129540000Y-83312000D03*
D14*
X138557000Y-105918000D03*
D15*
X136017000Y-105918000D03*
D11*
X129667000Y-93218000D03*
X132207000Y-93218000D03*
D12*
X127127000Y-93218000D03*
D11*
X129667000Y-99568000D03*
X132207000Y-99568000D03*
D12*
X127127000Y-99568000D03*
D11*
X129667000Y-105918000D03*
X132207000Y-105918000D03*
D12*
X127127000Y-105918000D03*
D16*
X123952000Y-121793000D03*
X129032000Y-121793000D03*
X126492000Y-121793000D03*
D17*
X127381000Y-112903000D03*
X124841000Y-112903000D03*
D14*
X146177000Y-116713000D03*
D15*
X148717000Y-116713000D03*
D14*
X146177000Y-121793000D03*
D15*
X148717000Y-121793000D03*
D18*
X152233000Y-80772000D03*
D19*
X149733000Y-80772000D03*
D20*
X144907000Y-105918000D03*
D21*
X108712000Y-98933000D03*
D22*
X108712000Y-96393000D03*
X108712000Y-93853000D03*
D21*
X112522000Y-98933000D03*
D22*
X112522000Y-96393000D03*
X112522000Y-93853000D03*
D23*
X108712000Y-102743000D03*
D24*
X108712000Y-105283000D03*
D25*
X146177000Y-100838000D03*
X136017000Y-100838000D03*
X146177000Y-97028000D03*
X136017000Y-97028000D03*
X136017000Y-93218000D03*
X146177000Y-93218000D03*
X142367000Y-112903000D03*
X132207000Y-112903000D03*
X142367000Y-121793000D03*
X132207000Y-121793000D03*
X142367000Y-116713000D03*
X132207000Y-116713000D03*
X151765000Y-87122000D03*
X141605000Y-87122000D03*
X128270000Y-87122000D03*
X138430000Y-87122000D03*
D26*
X127127000Y-96012000D03*
D27*
X135863400Y-78270800D02*
X134073200Y-78270800D01*
X132207000Y-80137000D02*
X132207000Y-93218000D01*
X134073200Y-78270800D02*
X132207000Y-80137000D01*
X124841000Y-96901000D02*
X124841000Y-112903000D01*
X127127000Y-96012000D02*
X124841000Y-96901000D01*
X135863400Y-78270800D02*
X135890000Y-78232000D01*
X135890000Y-78232000D02*
X135382000Y-78232000D01*
X124841000Y-112903000D02*
X123952000Y-113792000D01*
X123952000Y-113792000D02*
X123952000Y-121793000D01*
X149225000Y-80772000D02*
X149265000Y-80772000D01*
X138557000Y-105918000D02*
X144272000Y-100203000D01*
X144272000Y-100203000D02*
X144272000Y-95758000D01*
X144272000Y-95758000D02*
X146177000Y-93853000D01*
X146177000Y-93853000D02*
X146177000Y-93218000D01*
X136017000Y-100838000D02*
X136017000Y-105918000D01*
X136017000Y-97028000D02*
X136017000Y-100838000D01*
X148717000Y-116713000D02*
X148717000Y-121793000D01*
X128270000Y-87122000D02*
X127635000Y-86487000D01*
X127635000Y-86487000D02*
X127635000Y-82042000D01*
X127635000Y-82042000D02*
X128270000Y-81407000D01*
X128270000Y-81407000D02*
X128905000Y-81407000D01*
X128905000Y-81407000D02*
X129540000Y-80772000D01*
X108712000Y-105283000D02*
X109347000Y-105283000D01*
X108712000Y-96393000D02*
X108712000Y-93853000D01*
X108712000Y-98933000D02*
X108712000Y-96393000D01*
X132207000Y-105918000D02*
X129667000Y-103378000D01*
X129667000Y-103378000D02*
X129667000Y-99568000D01*
X132207000Y-99568000D02*
X129667000Y-97028000D01*
X129667000Y-97028000D02*
X129667000Y-93218000D01*
X141605000Y-83312000D02*
X138430000Y-86487000D01*
X138430000Y-86487000D02*
X138430000Y-87122000D01*
X127381000Y-112903000D02*
X126492000Y-113792000D01*
X126492000Y-113792000D02*
X126492000Y-121793000D01*
X132207000Y-121793000D02*
X132207000Y-116713000D01*
D28*
G36*
X154290000Y-124290000D02*
X105710000Y-124290000D01*
X105710000Y-122699558D01*
X123225047Y-122699558D01*
X123282009Y-122931229D01*
X123768590Y-123100981D01*
X124283094Y-123071605D01*
X124621991Y-122931229D01*
X124678953Y-122699558D01*
X123952000Y-121972605D01*
X123225047Y-122699558D01*
X105710000Y-122699558D01*
X105710000Y-121609590D01*
X122644019Y-121609590D01*
X122673395Y-122124094D01*
X122813771Y-122462991D01*
X123045442Y-122519953D01*
X123772395Y-121793000D01*
X123045442Y-121066047D01*
X122813771Y-121123009D01*
X122644019Y-121609590D01*
X105710000Y-121609590D01*
X105710000Y-120886442D01*
X123225047Y-120886442D01*
X123952000Y-121613395D01*
X124678953Y-120886442D01*
X124621991Y-120654771D01*
X124135410Y-120485019D01*
X123620906Y-120514395D01*
X123282009Y-120654771D01*
X123225047Y-120886442D01*
X105710000Y-120886442D01*
X105710000Y-113837188D01*
X124086417Y-113837188D01*
X124148071Y-114072800D01*
X124648480Y-114248927D01*
X125178199Y-114220148D01*
X125533929Y-114072800D01*
X125595582Y-113837190D01*
X125607000Y-113848608D01*
X125607000Y-120846082D01*
X125394454Y-121058257D01*
X125228727Y-121457372D01*
X125090229Y-121123009D01*
X124858558Y-121066047D01*
X124131605Y-121793000D01*
X124858558Y-122519953D01*
X125090229Y-122462991D01*
X125217030Y-122099526D01*
X125393173Y-122525826D01*
X125757257Y-122890546D01*
X126233199Y-123088174D01*
X126748540Y-123088624D01*
X127224826Y-122891827D01*
X127589546Y-122527743D01*
X127762181Y-122111992D01*
X127933173Y-122525826D01*
X128297257Y-122890546D01*
X128773199Y-123088174D01*
X129288540Y-123088624D01*
X129764826Y-122891827D01*
X130129546Y-122527743D01*
X130327174Y-122051801D01*
X130327624Y-121536460D01*
X130130827Y-121060174D01*
X129766743Y-120695454D01*
X129290801Y-120497826D01*
X128775460Y-120497376D01*
X128299174Y-120694173D01*
X127934454Y-121058257D01*
X127761819Y-121474008D01*
X127590827Y-121060174D01*
X127377000Y-120845973D01*
X127377000Y-117036694D01*
X130572226Y-117036694D01*
X130820538Y-117637655D01*
X131279927Y-118097846D01*
X131322000Y-118115316D01*
X131322000Y-120390153D01*
X131282345Y-120406538D01*
X130822154Y-120865927D01*
X130572794Y-121466453D01*
X130572226Y-122116694D01*
X130820538Y-122717655D01*
X131279927Y-123177846D01*
X131880453Y-123427206D01*
X132530694Y-123427774D01*
X133131655Y-123179462D01*
X133591846Y-122720073D01*
X133841206Y-122119547D01*
X133841208Y-122116694D01*
X140732226Y-122116694D01*
X140980538Y-122717655D01*
X141439927Y-123177846D01*
X142040453Y-123427206D01*
X142690694Y-123427774D01*
X143291655Y-123179462D01*
X143751846Y-122720073D01*
X144001206Y-122119547D01*
X144001774Y-121469306D01*
X143753462Y-120868345D01*
X143294073Y-120408154D01*
X142693547Y-120158794D01*
X142043306Y-120158226D01*
X141442345Y-120406538D01*
X140982154Y-120865927D01*
X140732794Y-121466453D01*
X140732226Y-122116694D01*
X133841208Y-122116694D01*
X133841774Y-121469306D01*
X133593462Y-120868345D01*
X133134073Y-120408154D01*
X133092000Y-120390684D01*
X133092000Y-118115847D01*
X133131655Y-118099462D01*
X133591846Y-117640073D01*
X133841206Y-117039547D01*
X133841208Y-117036694D01*
X140732226Y-117036694D01*
X140980538Y-117637655D01*
X141439927Y-118097846D01*
X142040453Y-118347206D01*
X142690694Y-118347774D01*
X143291655Y-118099462D01*
X143751846Y-117640073D01*
X144001206Y-117039547D01*
X144001774Y-116389306D01*
X143753462Y-115788345D01*
X143678249Y-115713000D01*
X144529560Y-115713000D01*
X144529560Y-117713000D01*
X144573838Y-117948317D01*
X144712910Y-118164441D01*
X144925110Y-118309431D01*
X145177000Y-118360440D01*
X147177000Y-118360440D01*
X147412317Y-118316162D01*
X147628441Y-118177090D01*
X147725910Y-118034439D01*
X147789637Y-118098278D01*
X147832000Y-118115869D01*
X147832000Y-120389602D01*
X147792057Y-120406106D01*
X147725426Y-120472621D01*
X147641090Y-120341559D01*
X147428890Y-120196569D01*
X147177000Y-120145560D01*
X145177000Y-120145560D01*
X144941683Y-120189838D01*
X144725559Y-120328910D01*
X144580569Y-120541110D01*
X144529560Y-120793000D01*
X144529560Y-122793000D01*
X144573838Y-123028317D01*
X144712910Y-123244441D01*
X144925110Y-123389431D01*
X145177000Y-123440440D01*
X147177000Y-123440440D01*
X147412317Y-123396162D01*
X147628441Y-123257090D01*
X147725910Y-123114439D01*
X147789637Y-123178278D01*
X148390352Y-123427716D01*
X149040795Y-123428284D01*
X149641943Y-123179894D01*
X150102278Y-122720363D01*
X150351716Y-122119648D01*
X150352284Y-121469205D01*
X150103894Y-120868057D01*
X149644363Y-120407722D01*
X149602000Y-120390131D01*
X149602000Y-118116398D01*
X149641943Y-118099894D01*
X150102278Y-117640363D01*
X150351716Y-117039648D01*
X150352284Y-116389205D01*
X150103894Y-115788057D01*
X149644363Y-115327722D01*
X149043648Y-115078284D01*
X148393205Y-115077716D01*
X147792057Y-115326106D01*
X147725426Y-115392621D01*
X147641090Y-115261559D01*
X147428890Y-115116569D01*
X147177000Y-115065560D01*
X145177000Y-115065560D01*
X144941683Y-115109838D01*
X144725559Y-115248910D01*
X144580569Y-115461110D01*
X144529560Y-115713000D01*
X143678249Y-115713000D01*
X143294073Y-115328154D01*
X142693547Y-115078794D01*
X142043306Y-115078226D01*
X141442345Y-115326538D01*
X140982154Y-115785927D01*
X140732794Y-116386453D01*
X140732226Y-117036694D01*
X133841208Y-117036694D01*
X133841774Y-116389306D01*
X133593462Y-115788345D01*
X133134073Y-115328154D01*
X132533547Y-115078794D01*
X131883306Y-115078226D01*
X131282345Y-115326538D01*
X130822154Y-115785927D01*
X130572794Y-116386453D01*
X130572226Y-117036694D01*
X127377000Y-117036694D01*
X127377000Y-114236497D01*
X127645086Y-114236731D01*
X128135380Y-114034146D01*
X128510827Y-113659353D01*
X128690482Y-113226694D01*
X130572226Y-113226694D01*
X130820538Y-113827655D01*
X131279927Y-114287846D01*
X131880453Y-114537206D01*
X132530694Y-114537774D01*
X133131655Y-114289462D01*
X133591846Y-113830073D01*
X133841206Y-113229547D01*
X133841208Y-113226694D01*
X140732226Y-113226694D01*
X140980538Y-113827655D01*
X141439927Y-114287846D01*
X142040453Y-114537206D01*
X142690694Y-114537774D01*
X143291655Y-114289462D01*
X143751846Y-113830073D01*
X144001206Y-113229547D01*
X144001774Y-112579306D01*
X143753462Y-111978345D01*
X143294073Y-111518154D01*
X142693547Y-111268794D01*
X142043306Y-111268226D01*
X141442345Y-111516538D01*
X140982154Y-111975927D01*
X140732794Y-112576453D01*
X140732226Y-113226694D01*
X133841208Y-113226694D01*
X133841774Y-112579306D01*
X133593462Y-111978345D01*
X133134073Y-111518154D01*
X132533547Y-111268794D01*
X131883306Y-111268226D01*
X131282345Y-111516538D01*
X130822154Y-111975927D01*
X130572794Y-112576453D01*
X130572226Y-113226694D01*
X128690482Y-113226694D01*
X128714268Y-113169413D01*
X128714731Y-112638914D01*
X128512146Y-112148620D01*
X128137353Y-111773173D01*
X127647413Y-111569732D01*
X127116914Y-111569269D01*
X126626620Y-111771854D01*
X126251173Y-112146647D01*
X126117686Y-112468118D01*
X126010800Y-112210071D01*
X125775188Y-112148417D01*
X125020605Y-112903000D01*
X125034748Y-112917143D01*
X124855143Y-113096748D01*
X124841000Y-113082605D01*
X124086417Y-113837188D01*
X105710000Y-113837188D01*
X105710000Y-112710480D01*
X123495073Y-112710480D01*
X123523852Y-113240199D01*
X123671200Y-113595929D01*
X123906812Y-113657583D01*
X124661395Y-112903000D01*
X123906812Y-112148417D01*
X123671200Y-112210071D01*
X123495073Y-112710480D01*
X105710000Y-112710480D01*
X105710000Y-111968812D01*
X124086417Y-111968812D01*
X124841000Y-112723395D01*
X125595583Y-111968812D01*
X125533929Y-111733200D01*
X125033520Y-111557073D01*
X124503801Y-111585852D01*
X124148071Y-111733200D01*
X124086417Y-111968812D01*
X105710000Y-111968812D01*
X105710000Y-103028750D01*
X107061000Y-103028750D01*
X107061000Y-103885309D01*
X107157673Y-104118698D01*
X107336301Y-104297327D01*
X107387372Y-104318481D01*
X107186675Y-104618845D01*
X107061000Y-105250655D01*
X107061000Y-105315345D01*
X107186675Y-105947155D01*
X107544567Y-106482778D01*
X108080190Y-106840670D01*
X108712000Y-106966345D01*
X109343810Y-106840670D01*
X109879433Y-106482778D01*
X110237325Y-105947155D01*
X110363000Y-105315345D01*
X110363000Y-105250655D01*
X110237325Y-104618845D01*
X110036628Y-104318481D01*
X110087699Y-104297327D01*
X110266327Y-104118698D01*
X110363000Y-103885309D01*
X110363000Y-103028750D01*
X110204250Y-102870000D01*
X108839000Y-102870000D01*
X108839000Y-102890000D01*
X108585000Y-102890000D01*
X108585000Y-102870000D01*
X107219750Y-102870000D01*
X107061000Y-103028750D01*
X105710000Y-103028750D01*
X105710000Y-101600691D01*
X107061000Y-101600691D01*
X107061000Y-102457250D01*
X107219750Y-102616000D01*
X108585000Y-102616000D01*
X108585000Y-101250750D01*
X108839000Y-101250750D01*
X108839000Y-102616000D01*
X110204250Y-102616000D01*
X110363000Y-102457250D01*
X110363000Y-101600691D01*
X110266327Y-101367302D01*
X110087699Y-101188673D01*
X109854310Y-101092000D01*
X108997750Y-101092000D01*
X108839000Y-101250750D01*
X108585000Y-101250750D01*
X108426250Y-101092000D01*
X107569690Y-101092000D01*
X107336301Y-101188673D01*
X107157673Y-101367302D01*
X107061000Y-101600691D01*
X105710000Y-101600691D01*
X105710000Y-93853000D01*
X107028655Y-93853000D01*
X107142729Y-94426489D01*
X107467585Y-94912670D01*
X107782366Y-95123000D01*
X107467585Y-95333330D01*
X107142729Y-95819511D01*
X107028655Y-96393000D01*
X107142729Y-96966489D01*
X107467585Y-97452670D01*
X107481913Y-97462243D01*
X107460683Y-97466238D01*
X107244559Y-97605310D01*
X107099569Y-97817510D01*
X107048560Y-98069400D01*
X107048560Y-99796600D01*
X107092838Y-100031917D01*
X107231910Y-100248041D01*
X107444110Y-100393031D01*
X107696000Y-100444040D01*
X109728000Y-100444040D01*
X109963317Y-100399762D01*
X110179441Y-100260690D01*
X110324431Y-100048490D01*
X110375440Y-99796600D01*
X110375440Y-98069400D01*
X110331162Y-97834083D01*
X110192090Y-97617959D01*
X109979890Y-97472969D01*
X109938561Y-97464600D01*
X109956415Y-97452670D01*
X110281271Y-96966489D01*
X110395345Y-96393000D01*
X110281271Y-95819511D01*
X109956415Y-95333330D01*
X109641634Y-95123000D01*
X109956415Y-94912670D01*
X110281271Y-94426489D01*
X110395345Y-93853000D01*
X110838655Y-93853000D01*
X110952729Y-94426489D01*
X111277585Y-94912670D01*
X111592366Y-95123000D01*
X111277585Y-95333330D01*
X110952729Y-95819511D01*
X110838655Y-96393000D01*
X110952729Y-96966489D01*
X111277585Y-97452670D01*
X111291913Y-97462243D01*
X111270683Y-97466238D01*
X111054559Y-97605310D01*
X110909569Y-97817510D01*
X110858560Y-98069400D01*
X110858560Y-99796600D01*
X110902838Y-100031917D01*
X111041910Y-100248041D01*
X111254110Y-100393031D01*
X111506000Y-100444040D01*
X113538000Y-100444040D01*
X113773317Y-100399762D01*
X113989441Y-100260690D01*
X114134431Y-100048490D01*
X114185440Y-99796600D01*
X114185440Y-98069400D01*
X114141162Y-97834083D01*
X114002090Y-97617959D01*
X113789890Y-97472969D01*
X113748561Y-97464600D01*
X113766415Y-97452670D01*
X114091271Y-96966489D01*
X114205345Y-96393000D01*
X114091271Y-95819511D01*
X113766415Y-95333330D01*
X113451634Y-95123000D01*
X113766415Y-94912670D01*
X114091271Y-94426489D01*
X114205345Y-93853000D01*
X114091271Y-93279511D01*
X113766415Y-92793330D01*
X113280234Y-92468474D01*
X113217523Y-92456000D01*
X125717560Y-92456000D01*
X125717560Y-93980000D01*
X125761838Y-94215317D01*
X125900910Y-94431441D01*
X126113110Y-94576431D01*
X126365000Y-94627440D01*
X127889000Y-94627440D01*
X128124317Y-94583162D01*
X128340441Y-94444090D01*
X128485431Y-94231890D01*
X128522492Y-94048876D01*
X128782000Y-94308837D01*
X128782000Y-97027995D01*
X128781999Y-97028000D01*
X128818328Y-97210633D01*
X128849367Y-97366675D01*
X128920390Y-97472969D01*
X129041210Y-97653790D01*
X129558325Y-98170905D01*
X129390339Y-98170758D01*
X128876697Y-98382990D01*
X128523237Y-98735833D01*
X128492162Y-98570683D01*
X128353090Y-98354559D01*
X128140890Y-98209569D01*
X127889000Y-98158560D01*
X126365000Y-98158560D01*
X126129683Y-98202838D01*
X125913559Y-98341910D01*
X125768569Y-98554110D01*
X125717560Y-98806000D01*
X125717560Y-100330000D01*
X125761838Y-100565317D01*
X125900910Y-100781441D01*
X126113110Y-100926431D01*
X126365000Y-100977440D01*
X127889000Y-100977440D01*
X128124317Y-100933162D01*
X128340441Y-100794090D01*
X128485431Y-100581890D01*
X128522492Y-100398876D01*
X128782000Y-100658837D01*
X128782000Y-103377995D01*
X128781999Y-103378000D01*
X128826090Y-103599655D01*
X128849367Y-103716675D01*
X128962044Y-103885309D01*
X129041210Y-104003790D01*
X129558325Y-104520905D01*
X129390339Y-104520758D01*
X128876697Y-104732990D01*
X128523237Y-105085833D01*
X128492162Y-104920683D01*
X128353090Y-104704559D01*
X128140890Y-104559569D01*
X127889000Y-104508560D01*
X126365000Y-104508560D01*
X126129683Y-104552838D01*
X125913559Y-104691910D01*
X125768569Y-104904110D01*
X125717560Y-105156000D01*
X125717560Y-106680000D01*
X125761838Y-106915317D01*
X125900910Y-107131441D01*
X126113110Y-107276431D01*
X126365000Y-107327440D01*
X127889000Y-107327440D01*
X128124317Y-107283162D01*
X128340441Y-107144090D01*
X128485431Y-106931890D01*
X128522492Y-106748876D01*
X128874630Y-107101629D01*
X129387900Y-107314757D01*
X129943661Y-107315242D01*
X130457303Y-107103010D01*
X130850629Y-106710370D01*
X130936949Y-106502488D01*
X131021990Y-106708303D01*
X131414630Y-107101629D01*
X131927900Y-107314757D01*
X132483661Y-107315242D01*
X132997303Y-107103010D01*
X133390629Y-106710370D01*
X133585198Y-106241795D01*
X134381716Y-106241795D01*
X134630106Y-106842943D01*
X135089637Y-107303278D01*
X135690352Y-107552716D01*
X136340795Y-107553284D01*
X136941943Y-107304894D01*
X137008574Y-107238379D01*
X137092910Y-107369441D01*
X137305110Y-107514431D01*
X137557000Y-107565440D01*
X139557000Y-107565440D01*
X139792317Y-107521162D01*
X140008441Y-107382090D01*
X140153431Y-107169890D01*
X140204440Y-106918000D01*
X140204440Y-105522140D01*
X140926179Y-104800400D01*
X143141960Y-104800400D01*
X143141960Y-107035600D01*
X143186238Y-107270917D01*
X143325310Y-107487041D01*
X143537510Y-107632031D01*
X143789400Y-107683040D01*
X146024600Y-107683040D01*
X146259917Y-107638762D01*
X146476041Y-107499690D01*
X146621031Y-107287490D01*
X146672040Y-107035600D01*
X146672040Y-104800400D01*
X146627762Y-104565083D01*
X146488690Y-104348959D01*
X146276490Y-104203969D01*
X146024600Y-104152960D01*
X143789400Y-104152960D01*
X143554083Y-104197238D01*
X143337959Y-104336310D01*
X143192969Y-104548510D01*
X143141960Y-104800400D01*
X140926179Y-104800400D01*
X144548851Y-101177728D01*
X144790538Y-101762655D01*
X145249927Y-102222846D01*
X145850453Y-102472206D01*
X146500694Y-102472774D01*
X147101655Y-102224462D01*
X147561846Y-101765073D01*
X147811206Y-101164547D01*
X147811774Y-100514306D01*
X147563462Y-99913345D01*
X147104073Y-99453154D01*
X146503547Y-99203794D01*
X145853306Y-99203226D01*
X145252345Y-99451538D01*
X145157000Y-99546717D01*
X145157000Y-98319757D01*
X145249927Y-98412846D01*
X145850453Y-98662206D01*
X146500694Y-98662774D01*
X147101655Y-98414462D01*
X147561846Y-97955073D01*
X147811206Y-97354547D01*
X147811774Y-96704306D01*
X147563462Y-96103345D01*
X147104073Y-95643154D01*
X146503547Y-95393794D01*
X145888323Y-95393257D01*
X146428868Y-94852711D01*
X146500694Y-94852774D01*
X147101655Y-94604462D01*
X147561846Y-94145073D01*
X147811206Y-93544547D01*
X147811774Y-92894306D01*
X147563462Y-92293345D01*
X147104073Y-91833154D01*
X146503547Y-91583794D01*
X145853306Y-91583226D01*
X145252345Y-91831538D01*
X144792154Y-92290927D01*
X144542794Y-92891453D01*
X144542226Y-93541694D01*
X144745285Y-94033135D01*
X143646210Y-95132210D01*
X143454367Y-95419325D01*
X143454367Y-95419326D01*
X143386999Y-95758000D01*
X143387000Y-95758005D01*
X143387000Y-99836421D01*
X138952860Y-104270560D01*
X137557000Y-104270560D01*
X137321683Y-104314838D01*
X137105559Y-104453910D01*
X137008090Y-104596561D01*
X136944363Y-104532722D01*
X136902000Y-104515131D01*
X136902000Y-102240847D01*
X136941655Y-102224462D01*
X137401846Y-101765073D01*
X137651206Y-101164547D01*
X137651774Y-100514306D01*
X137403462Y-99913345D01*
X136944073Y-99453154D01*
X136902000Y-99435684D01*
X136902000Y-98430847D01*
X136941655Y-98414462D01*
X137401846Y-97955073D01*
X137651206Y-97354547D01*
X137651774Y-96704306D01*
X137403462Y-96103345D01*
X136944073Y-95643154D01*
X136343547Y-95393794D01*
X135693306Y-95393226D01*
X135092345Y-95641538D01*
X134632154Y-96100927D01*
X134382794Y-96701453D01*
X134382226Y-97351694D01*
X134630538Y-97952655D01*
X135089927Y-98412846D01*
X135132000Y-98430316D01*
X135132000Y-99435153D01*
X135092345Y-99451538D01*
X134632154Y-99910927D01*
X134382794Y-100511453D01*
X134382226Y-101161694D01*
X134630538Y-101762655D01*
X135089927Y-102222846D01*
X135132000Y-102240316D01*
X135132000Y-104514602D01*
X135092057Y-104531106D01*
X134631722Y-104990637D01*
X134382284Y-105591352D01*
X134381716Y-106241795D01*
X133585198Y-106241795D01*
X133603757Y-106197100D01*
X133604242Y-105641339D01*
X133392010Y-105127697D01*
X132999370Y-104734371D01*
X132486100Y-104521243D01*
X132061452Y-104520872D01*
X130552000Y-103011420D01*
X130552000Y-100658478D01*
X130850629Y-100360370D01*
X130936949Y-100152488D01*
X131021990Y-100358303D01*
X131414630Y-100751629D01*
X131927900Y-100964757D01*
X132483661Y-100965242D01*
X132997303Y-100753010D01*
X133390629Y-100360370D01*
X133603757Y-99847100D01*
X133604242Y-99291339D01*
X133392010Y-98777697D01*
X132999370Y-98384371D01*
X132486100Y-98171243D01*
X132061452Y-98170872D01*
X130552000Y-96661420D01*
X130552000Y-94308478D01*
X130662457Y-94198213D01*
X131406392Y-94198213D01*
X131475857Y-94440397D01*
X131999302Y-94627144D01*
X132554368Y-94599362D01*
X132938143Y-94440397D01*
X133007608Y-94198213D01*
X132207000Y-93397605D01*
X131406392Y-94198213D01*
X130662457Y-94198213D01*
X130850629Y-94010370D01*
X130930395Y-93818273D01*
X130984603Y-93949143D01*
X131226787Y-94018608D01*
X132027395Y-93218000D01*
X132386605Y-93218000D01*
X133187213Y-94018608D01*
X133429397Y-93949143D01*
X133574760Y-93541694D01*
X134382226Y-93541694D01*
X134630538Y-94142655D01*
X135089927Y-94602846D01*
X135690453Y-94852206D01*
X136340694Y-94852774D01*
X136941655Y-94604462D01*
X137401846Y-94145073D01*
X137651206Y-93544547D01*
X137651774Y-92894306D01*
X137403462Y-92293345D01*
X136944073Y-91833154D01*
X136343547Y-91583794D01*
X135693306Y-91583226D01*
X135092345Y-91831538D01*
X134632154Y-92290927D01*
X134382794Y-92891453D01*
X134382226Y-93541694D01*
X133574760Y-93541694D01*
X133616144Y-93425698D01*
X133588362Y-92870632D01*
X133429397Y-92486857D01*
X133187213Y-92417392D01*
X132386605Y-93218000D01*
X132027395Y-93218000D01*
X131226787Y-92417392D01*
X130984603Y-92486857D01*
X130934491Y-92627318D01*
X130852010Y-92427697D01*
X130662432Y-92237787D01*
X131406392Y-92237787D01*
X132207000Y-93038395D01*
X133007608Y-92237787D01*
X132938143Y-91995603D01*
X132414698Y-91808856D01*
X131859632Y-91836638D01*
X131475857Y-91995603D01*
X131406392Y-92237787D01*
X130662432Y-92237787D01*
X130459370Y-92034371D01*
X129946100Y-91821243D01*
X129390339Y-91820758D01*
X128876697Y-92032990D01*
X128523237Y-92385833D01*
X128492162Y-92220683D01*
X128353090Y-92004559D01*
X128140890Y-91859569D01*
X127889000Y-91808560D01*
X126365000Y-91808560D01*
X126129683Y-91852838D01*
X125913559Y-91991910D01*
X125768569Y-92204110D01*
X125717560Y-92456000D01*
X113217523Y-92456000D01*
X112706745Y-92354400D01*
X112337255Y-92354400D01*
X111763766Y-92468474D01*
X111277585Y-92793330D01*
X110952729Y-93279511D01*
X110838655Y-93853000D01*
X110395345Y-93853000D01*
X110281271Y-93279511D01*
X109956415Y-92793330D01*
X109470234Y-92468474D01*
X108896745Y-92354400D01*
X108527255Y-92354400D01*
X107953766Y-92468474D01*
X107467585Y-92793330D01*
X107142729Y-93279511D01*
X107028655Y-93853000D01*
X105710000Y-93853000D01*
X105710000Y-87445694D01*
X126635226Y-87445694D01*
X126883538Y-88046655D01*
X127342927Y-88506846D01*
X127943453Y-88756206D01*
X128593694Y-88756774D01*
X129194655Y-88508462D01*
X129654846Y-88049073D01*
X129904206Y-87448547D01*
X129904208Y-87445694D01*
X136795226Y-87445694D01*
X137043538Y-88046655D01*
X137502927Y-88506846D01*
X138103453Y-88756206D01*
X138753694Y-88756774D01*
X139354655Y-88508462D01*
X139814846Y-88049073D01*
X140017691Y-87560568D01*
X140218538Y-88046655D01*
X140677927Y-88506846D01*
X141278453Y-88756206D01*
X141928694Y-88756774D01*
X142529655Y-88508462D01*
X142989846Y-88049073D01*
X143239206Y-87448547D01*
X143239208Y-87445694D01*
X150130226Y-87445694D01*
X150378538Y-88046655D01*
X150837927Y-88506846D01*
X151438453Y-88756206D01*
X152088694Y-88756774D01*
X152689655Y-88508462D01*
X153149846Y-88049073D01*
X153399206Y-87448547D01*
X153399774Y-86798306D01*
X153151462Y-86197345D01*
X152692073Y-85737154D01*
X152091547Y-85487794D01*
X151441306Y-85487226D01*
X150840345Y-85735538D01*
X150380154Y-86194927D01*
X150130794Y-86795453D01*
X150130226Y-87445694D01*
X143239208Y-87445694D01*
X143239774Y-86798306D01*
X142991462Y-86197345D01*
X142532073Y-85737154D01*
X141931547Y-85487794D01*
X141281306Y-85487226D01*
X140680345Y-85735538D01*
X140220154Y-86194927D01*
X140017309Y-86683432D01*
X139861715Y-86306865D01*
X141447139Y-84721440D01*
X142367000Y-84721440D01*
X142602317Y-84677162D01*
X142818441Y-84538090D01*
X142963431Y-84325890D01*
X143014440Y-84074000D01*
X143014440Y-82550000D01*
X142970162Y-82314683D01*
X142831090Y-82098559D01*
X142618890Y-81953569D01*
X142435876Y-81916508D01*
X142788629Y-81564370D01*
X143001757Y-81051100D01*
X143002000Y-80772000D01*
X148340000Y-80772000D01*
X148407367Y-81110675D01*
X148435560Y-81152869D01*
X148435560Y-81422000D01*
X148479838Y-81657317D01*
X148618910Y-81873441D01*
X148831110Y-82018431D01*
X149083000Y-82069440D01*
X150383000Y-82069440D01*
X150618317Y-82025162D01*
X150834441Y-81886090D01*
X150979431Y-81673890D01*
X150980012Y-81671016D01*
X151513590Y-81671016D01*
X151569271Y-81901611D01*
X152052078Y-82069622D01*
X152562428Y-82040083D01*
X152896729Y-81901611D01*
X152952410Y-81671016D01*
X152233000Y-80951605D01*
X151513590Y-81671016D01*
X150980012Y-81671016D01*
X151030440Y-81422000D01*
X151030440Y-81259615D01*
X151103389Y-81435729D01*
X151333984Y-81491410D01*
X152053395Y-80772000D01*
X152412605Y-80772000D01*
X153132016Y-81491410D01*
X153362611Y-81435729D01*
X153530622Y-80952922D01*
X153501083Y-80442572D01*
X153362611Y-80108271D01*
X153132016Y-80052590D01*
X152412605Y-80772000D01*
X152053395Y-80772000D01*
X151333984Y-80052590D01*
X151103389Y-80108271D01*
X151030440Y-80317902D01*
X151030440Y-80122000D01*
X150986162Y-79886683D01*
X150977347Y-79872984D01*
X151513590Y-79872984D01*
X152233000Y-80592395D01*
X152952410Y-79872984D01*
X152896729Y-79642389D01*
X152413922Y-79474378D01*
X151903572Y-79503917D01*
X151569271Y-79642389D01*
X151513590Y-79872984D01*
X150977347Y-79872984D01*
X150847090Y-79670559D01*
X150634890Y-79525569D01*
X150383000Y-79474560D01*
X149083000Y-79474560D01*
X148847683Y-79518838D01*
X148631559Y-79657910D01*
X148486569Y-79870110D01*
X148435560Y-80122000D01*
X148435560Y-80391131D01*
X148407367Y-80433325D01*
X148340000Y-80772000D01*
X143002000Y-80772000D01*
X143002242Y-80495339D01*
X142790010Y-79981697D01*
X142397370Y-79588371D01*
X142205273Y-79508605D01*
X142336143Y-79454397D01*
X142405608Y-79212213D01*
X141605000Y-78411605D01*
X140804392Y-79212213D01*
X140873857Y-79454397D01*
X141014318Y-79504509D01*
X140814697Y-79586990D01*
X140421371Y-79979630D01*
X140208243Y-80492900D01*
X140207758Y-81048661D01*
X140419990Y-81562303D01*
X140772833Y-81915763D01*
X140607683Y-81946838D01*
X140391559Y-82085910D01*
X140246569Y-82298110D01*
X140195560Y-82550000D01*
X140195560Y-83469861D01*
X138178131Y-85487289D01*
X138106306Y-85487226D01*
X137505345Y-85735538D01*
X137045154Y-86194927D01*
X136795794Y-86795453D01*
X136795226Y-87445694D01*
X129904208Y-87445694D01*
X129904774Y-86798306D01*
X129656462Y-86197345D01*
X129197073Y-85737154D01*
X128596547Y-85487794D01*
X128520000Y-85487727D01*
X128520000Y-84604479D01*
X128612637Y-84697278D01*
X129213352Y-84946716D01*
X129863795Y-84947284D01*
X130464943Y-84698894D01*
X130925278Y-84239363D01*
X131174716Y-83638648D01*
X131175284Y-82988205D01*
X130926894Y-82387057D01*
X130860379Y-82320426D01*
X130991441Y-82236090D01*
X131136431Y-82023890D01*
X131187440Y-81772000D01*
X131187440Y-80770800D01*
X133869284Y-80770800D01*
X133967890Y-81266528D01*
X134248698Y-81686786D01*
X134668956Y-81967594D01*
X134936442Y-82020800D01*
X134668956Y-82074006D01*
X134248698Y-82354814D01*
X133967890Y-82775072D01*
X133869284Y-83270800D01*
X133967890Y-83766528D01*
X134248698Y-84186786D01*
X134668956Y-84467594D01*
X135164684Y-84566200D01*
X136562116Y-84566200D01*
X137057844Y-84467594D01*
X137478102Y-84186786D01*
X137758910Y-83766528D01*
X137857516Y-83270800D01*
X137758910Y-82775072D01*
X137478102Y-82354814D01*
X137057844Y-82074006D01*
X136790358Y-82020800D01*
X137057844Y-81967594D01*
X137478102Y-81686786D01*
X137758910Y-81266528D01*
X137857516Y-80770800D01*
X137758910Y-80275072D01*
X137478102Y-79854814D01*
X137057844Y-79574006D01*
X136796604Y-79522042D01*
X137136861Y-79418993D01*
X137529589Y-79096984D01*
X137769195Y-78649196D01*
X137777220Y-78597905D01*
X137653333Y-78397800D01*
X135990400Y-78397800D01*
X135990400Y-78417800D01*
X135736400Y-78417800D01*
X135736400Y-78397800D01*
X134073467Y-78397800D01*
X133949580Y-78597905D01*
X133957605Y-78649196D01*
X134197211Y-79096984D01*
X134589939Y-79418993D01*
X134930196Y-79522042D01*
X134668956Y-79574006D01*
X134248698Y-79854814D01*
X133967890Y-80275072D01*
X133869284Y-80770800D01*
X131187440Y-80770800D01*
X131187440Y-79772000D01*
X131143162Y-79536683D01*
X131004090Y-79320559D01*
X130791890Y-79175569D01*
X130540000Y-79124560D01*
X128540000Y-79124560D01*
X128304683Y-79168838D01*
X128088559Y-79307910D01*
X127943569Y-79520110D01*
X127892560Y-79772000D01*
X127892560Y-80615269D01*
X127644210Y-80781210D01*
X127644208Y-80781213D01*
X127009210Y-81416210D01*
X126817367Y-81703325D01*
X126817367Y-81703326D01*
X126749999Y-82042000D01*
X126750000Y-82042005D01*
X126750000Y-86486995D01*
X126749999Y-86487000D01*
X126754493Y-86509593D01*
X126635794Y-86795453D01*
X126635226Y-87445694D01*
X105710000Y-87445694D01*
X105710000Y-77943695D01*
X133949580Y-77943695D01*
X134073467Y-78143800D01*
X135736400Y-78143800D01*
X135736400Y-76975400D01*
X135990400Y-76975400D01*
X135990400Y-78143800D01*
X137653333Y-78143800D01*
X137727315Y-78024302D01*
X140195856Y-78024302D01*
X140223638Y-78579368D01*
X140382603Y-78963143D01*
X140624787Y-79032608D01*
X141425395Y-78232000D01*
X141784605Y-78232000D01*
X142585213Y-79032608D01*
X142827397Y-78963143D01*
X143014144Y-78439698D01*
X142986362Y-77884632D01*
X142827397Y-77500857D01*
X142585213Y-77431392D01*
X141784605Y-78232000D01*
X141425395Y-78232000D01*
X140624787Y-77431392D01*
X140382603Y-77500857D01*
X140195856Y-78024302D01*
X137727315Y-78024302D01*
X137777220Y-77943695D01*
X137769195Y-77892404D01*
X137529589Y-77444616D01*
X137294412Y-77251787D01*
X140804392Y-77251787D01*
X141605000Y-78052395D01*
X142405608Y-77251787D01*
X142336143Y-77009603D01*
X141812698Y-76822856D01*
X141257632Y-76850638D01*
X140873857Y-77009603D01*
X140804392Y-77251787D01*
X137294412Y-77251787D01*
X137136861Y-77122607D01*
X136650800Y-76975400D01*
X135990400Y-76975400D01*
X135736400Y-76975400D01*
X135076000Y-76975400D01*
X134589939Y-77122607D01*
X134197211Y-77444616D01*
X133957605Y-77892404D01*
X133949580Y-77943695D01*
X105710000Y-77943695D01*
X105710000Y-75710000D01*
X154290000Y-75710000D01*
X154290000Y-124290000D01*
X154290000Y-124290000D01*
G37*
X154290000Y-124290000D02*
X105710000Y-124290000D01*
X105710000Y-122699558D01*
X123225047Y-122699558D01*
X123282009Y-122931229D01*
X123768590Y-123100981D01*
X124283094Y-123071605D01*
X124621991Y-122931229D01*
X124678953Y-122699558D01*
X123952000Y-121972605D01*
X123225047Y-122699558D01*
X105710000Y-122699558D01*
X105710000Y-121609590D01*
X122644019Y-121609590D01*
X122673395Y-122124094D01*
X122813771Y-122462991D01*
X123045442Y-122519953D01*
X123772395Y-121793000D01*
X123045442Y-121066047D01*
X122813771Y-121123009D01*
X122644019Y-121609590D01*
X105710000Y-121609590D01*
X105710000Y-120886442D01*
X123225047Y-120886442D01*
X123952000Y-121613395D01*
X124678953Y-120886442D01*
X124621991Y-120654771D01*
X124135410Y-120485019D01*
X123620906Y-120514395D01*
X123282009Y-120654771D01*
X123225047Y-120886442D01*
X105710000Y-120886442D01*
X105710000Y-113837188D01*
X124086417Y-113837188D01*
X124148071Y-114072800D01*
X124648480Y-114248927D01*
X125178199Y-114220148D01*
X125533929Y-114072800D01*
X125595582Y-113837190D01*
X125607000Y-113848608D01*
X125607000Y-120846082D01*
X125394454Y-121058257D01*
X125228727Y-121457372D01*
X125090229Y-121123009D01*
X124858558Y-121066047D01*
X124131605Y-121793000D01*
X124858558Y-122519953D01*
X125090229Y-122462991D01*
X125217030Y-122099526D01*
X125393173Y-122525826D01*
X125757257Y-122890546D01*
X126233199Y-123088174D01*
X126748540Y-123088624D01*
X127224826Y-122891827D01*
X127589546Y-122527743D01*
X127762181Y-122111992D01*
X127933173Y-122525826D01*
X128297257Y-122890546D01*
X128773199Y-123088174D01*
X129288540Y-123088624D01*
X129764826Y-122891827D01*
X130129546Y-122527743D01*
X130327174Y-122051801D01*
X130327624Y-121536460D01*
X130130827Y-121060174D01*
X129766743Y-120695454D01*
X129290801Y-120497826D01*
X128775460Y-120497376D01*
X128299174Y-120694173D01*
X127934454Y-121058257D01*
X127761819Y-121474008D01*
X127590827Y-121060174D01*
X127377000Y-120845973D01*
X127377000Y-117036694D01*
X130572226Y-117036694D01*
X130820538Y-117637655D01*
X131279927Y-118097846D01*
X131322000Y-118115316D01*
X131322000Y-120390153D01*
X131282345Y-120406538D01*
X130822154Y-120865927D01*
X130572794Y-121466453D01*
X130572226Y-122116694D01*
X130820538Y-122717655D01*
X131279927Y-123177846D01*
X131880453Y-123427206D01*
X132530694Y-123427774D01*
X133131655Y-123179462D01*
X133591846Y-122720073D01*
X133841206Y-122119547D01*
X133841208Y-122116694D01*
X140732226Y-122116694D01*
X140980538Y-122717655D01*
X141439927Y-123177846D01*
X142040453Y-123427206D01*
X142690694Y-123427774D01*
X143291655Y-123179462D01*
X143751846Y-122720073D01*
X144001206Y-122119547D01*
X144001774Y-121469306D01*
X143753462Y-120868345D01*
X143294073Y-120408154D01*
X142693547Y-120158794D01*
X142043306Y-120158226D01*
X141442345Y-120406538D01*
X140982154Y-120865927D01*
X140732794Y-121466453D01*
X140732226Y-122116694D01*
X133841208Y-122116694D01*
X133841774Y-121469306D01*
X133593462Y-120868345D01*
X133134073Y-120408154D01*
X133092000Y-120390684D01*
X133092000Y-118115847D01*
X133131655Y-118099462D01*
X133591846Y-117640073D01*
X133841206Y-117039547D01*
X133841208Y-117036694D01*
X140732226Y-117036694D01*
X140980538Y-117637655D01*
X141439927Y-118097846D01*
X142040453Y-118347206D01*
X142690694Y-118347774D01*
X143291655Y-118099462D01*
X143751846Y-117640073D01*
X144001206Y-117039547D01*
X144001774Y-116389306D01*
X143753462Y-115788345D01*
X143678249Y-115713000D01*
X144529560Y-115713000D01*
X144529560Y-117713000D01*
X144573838Y-117948317D01*
X144712910Y-118164441D01*
X144925110Y-118309431D01*
X145177000Y-118360440D01*
X147177000Y-118360440D01*
X147412317Y-118316162D01*
X147628441Y-118177090D01*
X147725910Y-118034439D01*
X147789637Y-118098278D01*
X147832000Y-118115869D01*
X147832000Y-120389602D01*
X147792057Y-120406106D01*
X147725426Y-120472621D01*
X147641090Y-120341559D01*
X147428890Y-120196569D01*
X147177000Y-120145560D01*
X145177000Y-120145560D01*
X144941683Y-120189838D01*
X144725559Y-120328910D01*
X144580569Y-120541110D01*
X144529560Y-120793000D01*
X144529560Y-122793000D01*
X144573838Y-123028317D01*
X144712910Y-123244441D01*
X144925110Y-123389431D01*
X145177000Y-123440440D01*
X147177000Y-123440440D01*
X147412317Y-123396162D01*
X147628441Y-123257090D01*
X147725910Y-123114439D01*
X147789637Y-123178278D01*
X148390352Y-123427716D01*
X149040795Y-123428284D01*
X149641943Y-123179894D01*
X150102278Y-122720363D01*
X150351716Y-122119648D01*
X150352284Y-121469205D01*
X150103894Y-120868057D01*
X149644363Y-120407722D01*
X149602000Y-120390131D01*
X149602000Y-118116398D01*
X149641943Y-118099894D01*
X150102278Y-117640363D01*
X150351716Y-117039648D01*
X150352284Y-116389205D01*
X150103894Y-115788057D01*
X149644363Y-115327722D01*
X149043648Y-115078284D01*
X148393205Y-115077716D01*
X147792057Y-115326106D01*
X147725426Y-115392621D01*
X147641090Y-115261559D01*
X147428890Y-115116569D01*
X147177000Y-115065560D01*
X145177000Y-115065560D01*
X144941683Y-115109838D01*
X144725559Y-115248910D01*
X144580569Y-115461110D01*
X144529560Y-115713000D01*
X143678249Y-115713000D01*
X143294073Y-115328154D01*
X142693547Y-115078794D01*
X142043306Y-115078226D01*
X141442345Y-115326538D01*
X140982154Y-115785927D01*
X140732794Y-116386453D01*
X140732226Y-117036694D01*
X133841208Y-117036694D01*
X133841774Y-116389306D01*
X133593462Y-115788345D01*
X133134073Y-115328154D01*
X132533547Y-115078794D01*
X131883306Y-115078226D01*
X131282345Y-115326538D01*
X130822154Y-115785927D01*
X130572794Y-116386453D01*
X130572226Y-117036694D01*
X127377000Y-117036694D01*
X127377000Y-114236497D01*
X127645086Y-114236731D01*
X128135380Y-114034146D01*
X128510827Y-113659353D01*
X128690482Y-113226694D01*
X130572226Y-113226694D01*
X130820538Y-113827655D01*
X131279927Y-114287846D01*
X131880453Y-114537206D01*
X132530694Y-114537774D01*
X133131655Y-114289462D01*
X133591846Y-113830073D01*
X133841206Y-113229547D01*
X133841208Y-113226694D01*
X140732226Y-113226694D01*
X140980538Y-113827655D01*
X141439927Y-114287846D01*
X142040453Y-114537206D01*
X142690694Y-114537774D01*
X143291655Y-114289462D01*
X143751846Y-113830073D01*
X144001206Y-113229547D01*
X144001774Y-112579306D01*
X143753462Y-111978345D01*
X143294073Y-111518154D01*
X142693547Y-111268794D01*
X142043306Y-111268226D01*
X141442345Y-111516538D01*
X140982154Y-111975927D01*
X140732794Y-112576453D01*
X140732226Y-113226694D01*
X133841208Y-113226694D01*
X133841774Y-112579306D01*
X133593462Y-111978345D01*
X133134073Y-111518154D01*
X132533547Y-111268794D01*
X131883306Y-111268226D01*
X131282345Y-111516538D01*
X130822154Y-111975927D01*
X130572794Y-112576453D01*
X130572226Y-113226694D01*
X128690482Y-113226694D01*
X128714268Y-113169413D01*
X128714731Y-112638914D01*
X128512146Y-112148620D01*
X128137353Y-111773173D01*
X127647413Y-111569732D01*
X127116914Y-111569269D01*
X126626620Y-111771854D01*
X126251173Y-112146647D01*
X126117686Y-112468118D01*
X126010800Y-112210071D01*
X125775188Y-112148417D01*
X125020605Y-112903000D01*
X125034748Y-112917143D01*
X124855143Y-113096748D01*
X124841000Y-113082605D01*
X124086417Y-113837188D01*
X105710000Y-113837188D01*
X105710000Y-112710480D01*
X123495073Y-112710480D01*
X123523852Y-113240199D01*
X123671200Y-113595929D01*
X123906812Y-113657583D01*
X124661395Y-112903000D01*
X123906812Y-112148417D01*
X123671200Y-112210071D01*
X123495073Y-112710480D01*
X105710000Y-112710480D01*
X105710000Y-111968812D01*
X124086417Y-111968812D01*
X124841000Y-112723395D01*
X125595583Y-111968812D01*
X125533929Y-111733200D01*
X125033520Y-111557073D01*
X124503801Y-111585852D01*
X124148071Y-111733200D01*
X124086417Y-111968812D01*
X105710000Y-111968812D01*
X105710000Y-103028750D01*
X107061000Y-103028750D01*
X107061000Y-103885309D01*
X107157673Y-104118698D01*
X107336301Y-104297327D01*
X107387372Y-104318481D01*
X107186675Y-104618845D01*
X107061000Y-105250655D01*
X107061000Y-105315345D01*
X107186675Y-105947155D01*
X107544567Y-106482778D01*
X108080190Y-106840670D01*
X108712000Y-106966345D01*
X109343810Y-106840670D01*
X109879433Y-106482778D01*
X110237325Y-105947155D01*
X110363000Y-105315345D01*
X110363000Y-105250655D01*
X110237325Y-104618845D01*
X110036628Y-104318481D01*
X110087699Y-104297327D01*
X110266327Y-104118698D01*
X110363000Y-103885309D01*
X110363000Y-103028750D01*
X110204250Y-102870000D01*
X108839000Y-102870000D01*
X108839000Y-102890000D01*
X108585000Y-102890000D01*
X108585000Y-102870000D01*
X107219750Y-102870000D01*
X107061000Y-103028750D01*
X105710000Y-103028750D01*
X105710000Y-101600691D01*
X107061000Y-101600691D01*
X107061000Y-102457250D01*
X107219750Y-102616000D01*
X108585000Y-102616000D01*
X108585000Y-101250750D01*
X108839000Y-101250750D01*
X108839000Y-102616000D01*
X110204250Y-102616000D01*
X110363000Y-102457250D01*
X110363000Y-101600691D01*
X110266327Y-101367302D01*
X110087699Y-101188673D01*
X109854310Y-101092000D01*
X108997750Y-101092000D01*
X108839000Y-101250750D01*
X108585000Y-101250750D01*
X108426250Y-101092000D01*
X107569690Y-101092000D01*
X107336301Y-101188673D01*
X107157673Y-101367302D01*
X107061000Y-101600691D01*
X105710000Y-101600691D01*
X105710000Y-93853000D01*
X107028655Y-93853000D01*
X107142729Y-94426489D01*
X107467585Y-94912670D01*
X107782366Y-95123000D01*
X107467585Y-95333330D01*
X107142729Y-95819511D01*
X107028655Y-96393000D01*
X107142729Y-96966489D01*
X107467585Y-97452670D01*
X107481913Y-97462243D01*
X107460683Y-97466238D01*
X107244559Y-97605310D01*
X107099569Y-97817510D01*
X107048560Y-98069400D01*
X107048560Y-99796600D01*
X107092838Y-100031917D01*
X107231910Y-100248041D01*
X107444110Y-100393031D01*
X107696000Y-100444040D01*
X109728000Y-100444040D01*
X109963317Y-100399762D01*
X110179441Y-100260690D01*
X110324431Y-100048490D01*
X110375440Y-99796600D01*
X110375440Y-98069400D01*
X110331162Y-97834083D01*
X110192090Y-97617959D01*
X109979890Y-97472969D01*
X109938561Y-97464600D01*
X109956415Y-97452670D01*
X110281271Y-96966489D01*
X110395345Y-96393000D01*
X110281271Y-95819511D01*
X109956415Y-95333330D01*
X109641634Y-95123000D01*
X109956415Y-94912670D01*
X110281271Y-94426489D01*
X110395345Y-93853000D01*
X110838655Y-93853000D01*
X110952729Y-94426489D01*
X111277585Y-94912670D01*
X111592366Y-95123000D01*
X111277585Y-95333330D01*
X110952729Y-95819511D01*
X110838655Y-96393000D01*
X110952729Y-96966489D01*
X111277585Y-97452670D01*
X111291913Y-97462243D01*
X111270683Y-97466238D01*
X111054559Y-97605310D01*
X110909569Y-97817510D01*
X110858560Y-98069400D01*
X110858560Y-99796600D01*
X110902838Y-100031917D01*
X111041910Y-100248041D01*
X111254110Y-100393031D01*
X111506000Y-100444040D01*
X113538000Y-100444040D01*
X113773317Y-100399762D01*
X113989441Y-100260690D01*
X114134431Y-100048490D01*
X114185440Y-99796600D01*
X114185440Y-98069400D01*
X114141162Y-97834083D01*
X114002090Y-97617959D01*
X113789890Y-97472969D01*
X113748561Y-97464600D01*
X113766415Y-97452670D01*
X114091271Y-96966489D01*
X114205345Y-96393000D01*
X114091271Y-95819511D01*
X113766415Y-95333330D01*
X113451634Y-95123000D01*
X113766415Y-94912670D01*
X114091271Y-94426489D01*
X114205345Y-93853000D01*
X114091271Y-93279511D01*
X113766415Y-92793330D01*
X113280234Y-92468474D01*
X113217523Y-92456000D01*
X125717560Y-92456000D01*
X125717560Y-93980000D01*
X125761838Y-94215317D01*
X125900910Y-94431441D01*
X126113110Y-94576431D01*
X126365000Y-94627440D01*
X127889000Y-94627440D01*
X128124317Y-94583162D01*
X128340441Y-94444090D01*
X128485431Y-94231890D01*
X128522492Y-94048876D01*
X128782000Y-94308837D01*
X128782000Y-97027995D01*
X128781999Y-97028000D01*
X128818328Y-97210633D01*
X128849367Y-97366675D01*
X128920390Y-97472969D01*
X129041210Y-97653790D01*
X129558325Y-98170905D01*
X129390339Y-98170758D01*
X128876697Y-98382990D01*
X128523237Y-98735833D01*
X128492162Y-98570683D01*
X128353090Y-98354559D01*
X128140890Y-98209569D01*
X127889000Y-98158560D01*
X126365000Y-98158560D01*
X126129683Y-98202838D01*
X125913559Y-98341910D01*
X125768569Y-98554110D01*
X125717560Y-98806000D01*
X125717560Y-100330000D01*
X125761838Y-100565317D01*
X125900910Y-100781441D01*
X126113110Y-100926431D01*
X126365000Y-100977440D01*
X127889000Y-100977440D01*
X128124317Y-100933162D01*
X128340441Y-100794090D01*
X128485431Y-100581890D01*
X128522492Y-100398876D01*
X128782000Y-100658837D01*
X128782000Y-103377995D01*
X128781999Y-103378000D01*
X128826090Y-103599655D01*
X128849367Y-103716675D01*
X128962044Y-103885309D01*
X129041210Y-104003790D01*
X129558325Y-104520905D01*
X129390339Y-104520758D01*
X128876697Y-104732990D01*
X128523237Y-105085833D01*
X128492162Y-104920683D01*
X128353090Y-104704559D01*
X128140890Y-104559569D01*
X127889000Y-104508560D01*
X126365000Y-104508560D01*
X126129683Y-104552838D01*
X125913559Y-104691910D01*
X125768569Y-104904110D01*
X125717560Y-105156000D01*
X125717560Y-106680000D01*
X125761838Y-106915317D01*
X125900910Y-107131441D01*
X126113110Y-107276431D01*
X126365000Y-107327440D01*
X127889000Y-107327440D01*
X128124317Y-107283162D01*
X128340441Y-107144090D01*
X128485431Y-106931890D01*
X128522492Y-106748876D01*
X128874630Y-107101629D01*
X129387900Y-107314757D01*
X129943661Y-107315242D01*
X130457303Y-107103010D01*
X130850629Y-106710370D01*
X130936949Y-106502488D01*
X131021990Y-106708303D01*
X131414630Y-107101629D01*
X131927900Y-107314757D01*
X132483661Y-107315242D01*
X132997303Y-107103010D01*
X133390629Y-106710370D01*
X133585198Y-106241795D01*
X134381716Y-106241795D01*
X134630106Y-106842943D01*
X135089637Y-107303278D01*
X135690352Y-107552716D01*
X136340795Y-107553284D01*
X136941943Y-107304894D01*
X137008574Y-107238379D01*
X137092910Y-107369441D01*
X137305110Y-107514431D01*
X137557000Y-107565440D01*
X139557000Y-107565440D01*
X139792317Y-107521162D01*
X140008441Y-107382090D01*
X140153431Y-107169890D01*
X140204440Y-106918000D01*
X140204440Y-105522140D01*
X140926179Y-104800400D01*
X143141960Y-104800400D01*
X143141960Y-107035600D01*
X143186238Y-107270917D01*
X143325310Y-107487041D01*
X143537510Y-107632031D01*
X143789400Y-107683040D01*
X146024600Y-107683040D01*
X146259917Y-107638762D01*
X146476041Y-107499690D01*
X146621031Y-107287490D01*
X146672040Y-107035600D01*
X146672040Y-104800400D01*
X146627762Y-104565083D01*
X146488690Y-104348959D01*
X146276490Y-104203969D01*
X146024600Y-104152960D01*
X143789400Y-104152960D01*
X143554083Y-104197238D01*
X143337959Y-104336310D01*
X143192969Y-104548510D01*
X143141960Y-104800400D01*
X140926179Y-104800400D01*
X144548851Y-101177728D01*
X144790538Y-101762655D01*
X145249927Y-102222846D01*
X145850453Y-102472206D01*
X146500694Y-102472774D01*
X147101655Y-102224462D01*
X147561846Y-101765073D01*
X147811206Y-101164547D01*
X147811774Y-100514306D01*
X147563462Y-99913345D01*
X147104073Y-99453154D01*
X146503547Y-99203794D01*
X145853306Y-99203226D01*
X145252345Y-99451538D01*
X145157000Y-99546717D01*
X145157000Y-98319757D01*
X145249927Y-98412846D01*
X145850453Y-98662206D01*
X146500694Y-98662774D01*
X147101655Y-98414462D01*
X147561846Y-97955073D01*
X147811206Y-97354547D01*
X147811774Y-96704306D01*
X147563462Y-96103345D01*
X147104073Y-95643154D01*
X146503547Y-95393794D01*
X145888323Y-95393257D01*
X146428868Y-94852711D01*
X146500694Y-94852774D01*
X147101655Y-94604462D01*
X147561846Y-94145073D01*
X147811206Y-93544547D01*
X147811774Y-92894306D01*
X147563462Y-92293345D01*
X147104073Y-91833154D01*
X146503547Y-91583794D01*
X145853306Y-91583226D01*
X145252345Y-91831538D01*
X144792154Y-92290927D01*
X144542794Y-92891453D01*
X144542226Y-93541694D01*
X144745285Y-94033135D01*
X143646210Y-95132210D01*
X143454367Y-95419325D01*
X143454367Y-95419326D01*
X143386999Y-95758000D01*
X143387000Y-95758005D01*
X143387000Y-99836421D01*
X138952860Y-104270560D01*
X137557000Y-104270560D01*
X137321683Y-104314838D01*
X137105559Y-104453910D01*
X137008090Y-104596561D01*
X136944363Y-104532722D01*
X136902000Y-104515131D01*
X136902000Y-102240847D01*
X136941655Y-102224462D01*
X137401846Y-101765073D01*
X137651206Y-101164547D01*
X137651774Y-100514306D01*
X137403462Y-99913345D01*
X136944073Y-99453154D01*
X136902000Y-99435684D01*
X136902000Y-98430847D01*
X136941655Y-98414462D01*
X137401846Y-97955073D01*
X137651206Y-97354547D01*
X137651774Y-96704306D01*
X137403462Y-96103345D01*
X136944073Y-95643154D01*
X136343547Y-95393794D01*
X135693306Y-95393226D01*
X135092345Y-95641538D01*
X134632154Y-96100927D01*
X134382794Y-96701453D01*
X134382226Y-97351694D01*
X134630538Y-97952655D01*
X135089927Y-98412846D01*
X135132000Y-98430316D01*
X135132000Y-99435153D01*
X135092345Y-99451538D01*
X134632154Y-99910927D01*
X134382794Y-100511453D01*
X134382226Y-101161694D01*
X134630538Y-101762655D01*
X135089927Y-102222846D01*
X135132000Y-102240316D01*
X135132000Y-104514602D01*
X135092057Y-104531106D01*
X134631722Y-104990637D01*
X134382284Y-105591352D01*
X134381716Y-106241795D01*
X133585198Y-106241795D01*
X133603757Y-106197100D01*
X133604242Y-105641339D01*
X133392010Y-105127697D01*
X132999370Y-104734371D01*
X132486100Y-104521243D01*
X132061452Y-104520872D01*
X130552000Y-103011420D01*
X130552000Y-100658478D01*
X130850629Y-100360370D01*
X130936949Y-100152488D01*
X131021990Y-100358303D01*
X131414630Y-100751629D01*
X131927900Y-100964757D01*
X132483661Y-100965242D01*
X132997303Y-100753010D01*
X133390629Y-100360370D01*
X133603757Y-99847100D01*
X133604242Y-99291339D01*
X133392010Y-98777697D01*
X132999370Y-98384371D01*
X132486100Y-98171243D01*
X132061452Y-98170872D01*
X130552000Y-96661420D01*
X130552000Y-94308478D01*
X130662457Y-94198213D01*
X131406392Y-94198213D01*
X131475857Y-94440397D01*
X131999302Y-94627144D01*
X132554368Y-94599362D01*
X132938143Y-94440397D01*
X133007608Y-94198213D01*
X132207000Y-93397605D01*
X131406392Y-94198213D01*
X130662457Y-94198213D01*
X130850629Y-94010370D01*
X130930395Y-93818273D01*
X130984603Y-93949143D01*
X131226787Y-94018608D01*
X132027395Y-93218000D01*
X132386605Y-93218000D01*
X133187213Y-94018608D01*
X133429397Y-93949143D01*
X133574760Y-93541694D01*
X134382226Y-93541694D01*
X134630538Y-94142655D01*
X135089927Y-94602846D01*
X135690453Y-94852206D01*
X136340694Y-94852774D01*
X136941655Y-94604462D01*
X137401846Y-94145073D01*
X137651206Y-93544547D01*
X137651774Y-92894306D01*
X137403462Y-92293345D01*
X136944073Y-91833154D01*
X136343547Y-91583794D01*
X135693306Y-91583226D01*
X135092345Y-91831538D01*
X134632154Y-92290927D01*
X134382794Y-92891453D01*
X134382226Y-93541694D01*
X133574760Y-93541694D01*
X133616144Y-93425698D01*
X133588362Y-92870632D01*
X133429397Y-92486857D01*
X133187213Y-92417392D01*
X132386605Y-93218000D01*
X132027395Y-93218000D01*
X131226787Y-92417392D01*
X130984603Y-92486857D01*
X130934491Y-92627318D01*
X130852010Y-92427697D01*
X130662432Y-92237787D01*
X131406392Y-92237787D01*
X132207000Y-93038395D01*
X133007608Y-92237787D01*
X132938143Y-91995603D01*
X132414698Y-91808856D01*
X131859632Y-91836638D01*
X131475857Y-91995603D01*
X131406392Y-92237787D01*
X130662432Y-92237787D01*
X130459370Y-92034371D01*
X129946100Y-91821243D01*
X129390339Y-91820758D01*
X128876697Y-92032990D01*
X128523237Y-92385833D01*
X128492162Y-92220683D01*
X128353090Y-92004559D01*
X128140890Y-91859569D01*
X127889000Y-91808560D01*
X126365000Y-91808560D01*
X126129683Y-91852838D01*
X125913559Y-91991910D01*
X125768569Y-92204110D01*
X125717560Y-92456000D01*
X113217523Y-92456000D01*
X112706745Y-92354400D01*
X112337255Y-92354400D01*
X111763766Y-92468474D01*
X111277585Y-92793330D01*
X110952729Y-93279511D01*
X110838655Y-93853000D01*
X110395345Y-93853000D01*
X110281271Y-93279511D01*
X109956415Y-92793330D01*
X109470234Y-92468474D01*
X108896745Y-92354400D01*
X108527255Y-92354400D01*
X107953766Y-92468474D01*
X107467585Y-92793330D01*
X107142729Y-93279511D01*
X107028655Y-93853000D01*
X105710000Y-93853000D01*
X105710000Y-87445694D01*
X126635226Y-87445694D01*
X126883538Y-88046655D01*
X127342927Y-88506846D01*
X127943453Y-88756206D01*
X128593694Y-88756774D01*
X129194655Y-88508462D01*
X129654846Y-88049073D01*
X129904206Y-87448547D01*
X129904208Y-87445694D01*
X136795226Y-87445694D01*
X137043538Y-88046655D01*
X137502927Y-88506846D01*
X138103453Y-88756206D01*
X138753694Y-88756774D01*
X139354655Y-88508462D01*
X139814846Y-88049073D01*
X140017691Y-87560568D01*
X140218538Y-88046655D01*
X140677927Y-88506846D01*
X141278453Y-88756206D01*
X141928694Y-88756774D01*
X142529655Y-88508462D01*
X142989846Y-88049073D01*
X143239206Y-87448547D01*
X143239208Y-87445694D01*
X150130226Y-87445694D01*
X150378538Y-88046655D01*
X150837927Y-88506846D01*
X151438453Y-88756206D01*
X152088694Y-88756774D01*
X152689655Y-88508462D01*
X153149846Y-88049073D01*
X153399206Y-87448547D01*
X153399774Y-86798306D01*
X153151462Y-86197345D01*
X152692073Y-85737154D01*
X152091547Y-85487794D01*
X151441306Y-85487226D01*
X150840345Y-85735538D01*
X150380154Y-86194927D01*
X150130794Y-86795453D01*
X150130226Y-87445694D01*
X143239208Y-87445694D01*
X143239774Y-86798306D01*
X142991462Y-86197345D01*
X142532073Y-85737154D01*
X141931547Y-85487794D01*
X141281306Y-85487226D01*
X140680345Y-85735538D01*
X140220154Y-86194927D01*
X140017309Y-86683432D01*
X139861715Y-86306865D01*
X141447139Y-84721440D01*
X142367000Y-84721440D01*
X142602317Y-84677162D01*
X142818441Y-84538090D01*
X142963431Y-84325890D01*
X143014440Y-84074000D01*
X143014440Y-82550000D01*
X142970162Y-82314683D01*
X142831090Y-82098559D01*
X142618890Y-81953569D01*
X142435876Y-81916508D01*
X142788629Y-81564370D01*
X143001757Y-81051100D01*
X143002000Y-80772000D01*
X148340000Y-80772000D01*
X148407367Y-81110675D01*
X148435560Y-81152869D01*
X148435560Y-81422000D01*
X148479838Y-81657317D01*
X148618910Y-81873441D01*
X148831110Y-82018431D01*
X149083000Y-82069440D01*
X150383000Y-82069440D01*
X150618317Y-82025162D01*
X150834441Y-81886090D01*
X150979431Y-81673890D01*
X150980012Y-81671016D01*
X151513590Y-81671016D01*
X151569271Y-81901611D01*
X152052078Y-82069622D01*
X152562428Y-82040083D01*
X152896729Y-81901611D01*
X152952410Y-81671016D01*
X152233000Y-80951605D01*
X151513590Y-81671016D01*
X150980012Y-81671016D01*
X151030440Y-81422000D01*
X151030440Y-81259615D01*
X151103389Y-81435729D01*
X151333984Y-81491410D01*
X152053395Y-80772000D01*
X152412605Y-80772000D01*
X153132016Y-81491410D01*
X153362611Y-81435729D01*
X153530622Y-80952922D01*
X153501083Y-80442572D01*
X153362611Y-80108271D01*
X153132016Y-80052590D01*
X152412605Y-80772000D01*
X152053395Y-80772000D01*
X151333984Y-80052590D01*
X151103389Y-80108271D01*
X151030440Y-80317902D01*
X151030440Y-80122000D01*
X150986162Y-79886683D01*
X150977347Y-79872984D01*
X151513590Y-79872984D01*
X152233000Y-80592395D01*
X152952410Y-79872984D01*
X152896729Y-79642389D01*
X152413922Y-79474378D01*
X151903572Y-79503917D01*
X151569271Y-79642389D01*
X151513590Y-79872984D01*
X150977347Y-79872984D01*
X150847090Y-79670559D01*
X150634890Y-79525569D01*
X150383000Y-79474560D01*
X149083000Y-79474560D01*
X148847683Y-79518838D01*
X148631559Y-79657910D01*
X148486569Y-79870110D01*
X148435560Y-80122000D01*
X148435560Y-80391131D01*
X148407367Y-80433325D01*
X148340000Y-80772000D01*
X143002000Y-80772000D01*
X143002242Y-80495339D01*
X142790010Y-79981697D01*
X142397370Y-79588371D01*
X142205273Y-79508605D01*
X142336143Y-79454397D01*
X142405608Y-79212213D01*
X141605000Y-78411605D01*
X140804392Y-79212213D01*
X140873857Y-79454397D01*
X141014318Y-79504509D01*
X140814697Y-79586990D01*
X140421371Y-79979630D01*
X140208243Y-80492900D01*
X140207758Y-81048661D01*
X140419990Y-81562303D01*
X140772833Y-81915763D01*
X140607683Y-81946838D01*
X140391559Y-82085910D01*
X140246569Y-82298110D01*
X140195560Y-82550000D01*
X140195560Y-83469861D01*
X138178131Y-85487289D01*
X138106306Y-85487226D01*
X137505345Y-85735538D01*
X137045154Y-86194927D01*
X136795794Y-86795453D01*
X136795226Y-87445694D01*
X129904208Y-87445694D01*
X129904774Y-86798306D01*
X129656462Y-86197345D01*
X129197073Y-85737154D01*
X128596547Y-85487794D01*
X128520000Y-85487727D01*
X128520000Y-84604479D01*
X128612637Y-84697278D01*
X129213352Y-84946716D01*
X129863795Y-84947284D01*
X130464943Y-84698894D01*
X130925278Y-84239363D01*
X131174716Y-83638648D01*
X131175284Y-82988205D01*
X130926894Y-82387057D01*
X130860379Y-82320426D01*
X130991441Y-82236090D01*
X131136431Y-82023890D01*
X131187440Y-81772000D01*
X131187440Y-80770800D01*
X133869284Y-80770800D01*
X133967890Y-81266528D01*
X134248698Y-81686786D01*
X134668956Y-81967594D01*
X134936442Y-82020800D01*
X134668956Y-82074006D01*
X134248698Y-82354814D01*
X133967890Y-82775072D01*
X133869284Y-83270800D01*
X133967890Y-83766528D01*
X134248698Y-84186786D01*
X134668956Y-84467594D01*
X135164684Y-84566200D01*
X136562116Y-84566200D01*
X137057844Y-84467594D01*
X137478102Y-84186786D01*
X137758910Y-83766528D01*
X137857516Y-83270800D01*
X137758910Y-82775072D01*
X137478102Y-82354814D01*
X137057844Y-82074006D01*
X136790358Y-82020800D01*
X137057844Y-81967594D01*
X137478102Y-81686786D01*
X137758910Y-81266528D01*
X137857516Y-80770800D01*
X137758910Y-80275072D01*
X137478102Y-79854814D01*
X137057844Y-79574006D01*
X136796604Y-79522042D01*
X137136861Y-79418993D01*
X137529589Y-79096984D01*
X137769195Y-78649196D01*
X137777220Y-78597905D01*
X137653333Y-78397800D01*
X135990400Y-78397800D01*
X135990400Y-78417800D01*
X135736400Y-78417800D01*
X135736400Y-78397800D01*
X134073467Y-78397800D01*
X133949580Y-78597905D01*
X133957605Y-78649196D01*
X134197211Y-79096984D01*
X134589939Y-79418993D01*
X134930196Y-79522042D01*
X134668956Y-79574006D01*
X134248698Y-79854814D01*
X133967890Y-80275072D01*
X133869284Y-80770800D01*
X131187440Y-80770800D01*
X131187440Y-79772000D01*
X131143162Y-79536683D01*
X131004090Y-79320559D01*
X130791890Y-79175569D01*
X130540000Y-79124560D01*
X128540000Y-79124560D01*
X128304683Y-79168838D01*
X128088559Y-79307910D01*
X127943569Y-79520110D01*
X127892560Y-79772000D01*
X127892560Y-80615269D01*
X127644210Y-80781210D01*
X127644208Y-80781213D01*
X127009210Y-81416210D01*
X126817367Y-81703325D01*
X126817367Y-81703326D01*
X126749999Y-82042000D01*
X126750000Y-82042005D01*
X126750000Y-86486995D01*
X126749999Y-86487000D01*
X126754493Y-86509593D01*
X126635794Y-86795453D01*
X126635226Y-87445694D01*
X105710000Y-87445694D01*
X105710000Y-77943695D01*
X133949580Y-77943695D01*
X134073467Y-78143800D01*
X135736400Y-78143800D01*
X135736400Y-76975400D01*
X135990400Y-76975400D01*
X135990400Y-78143800D01*
X137653333Y-78143800D01*
X137727315Y-78024302D01*
X140195856Y-78024302D01*
X140223638Y-78579368D01*
X140382603Y-78963143D01*
X140624787Y-79032608D01*
X141425395Y-78232000D01*
X141784605Y-78232000D01*
X142585213Y-79032608D01*
X142827397Y-78963143D01*
X143014144Y-78439698D01*
X142986362Y-77884632D01*
X142827397Y-77500857D01*
X142585213Y-77431392D01*
X141784605Y-78232000D01*
X141425395Y-78232000D01*
X140624787Y-77431392D01*
X140382603Y-77500857D01*
X140195856Y-78024302D01*
X137727315Y-78024302D01*
X137777220Y-77943695D01*
X137769195Y-77892404D01*
X137529589Y-77444616D01*
X137294412Y-77251787D01*
X140804392Y-77251787D01*
X141605000Y-78052395D01*
X142405608Y-77251787D01*
X142336143Y-77009603D01*
X141812698Y-76822856D01*
X141257632Y-76850638D01*
X140873857Y-77009603D01*
X140804392Y-77251787D01*
X137294412Y-77251787D01*
X137136861Y-77122607D01*
X136650800Y-76975400D01*
X135990400Y-76975400D01*
X135736400Y-76975400D01*
X135076000Y-76975400D01*
X134589939Y-77122607D01*
X134197211Y-77444616D01*
X133957605Y-77892404D01*
X133949580Y-77943695D01*
X105710000Y-77943695D01*
X105710000Y-75710000D01*
X154290000Y-75710000D01*
X154290000Y-124290000D01*
M02*
