G04 #@! TF.FileFunction,Legend,Top*
%FSLAX46Y46*%
G04 Gerber Fmt 4.6, Leading zero omitted, Abs format (unit mm)*
G04 Created by KiCad (PCBNEW 4.0.4-stable) date 01/16/17 16:57:48*
%MOMM*%
%LPD*%
G01*
G04 APERTURE LIST*
%ADD10C,0.100000*%
%ADD11C,0.300000*%
%ADD12C,0.150000*%
%ADD13C,0.120000*%
%ADD14C,0.127000*%
%ADD15C,0.010000*%
%ADD16C,0.050000*%
G04 APERTURE END LIST*
D10*
D11*
X120904762Y-122142857D02*
X118904762Y-122142857D01*
X120904762Y-121285714D02*
X119761905Y-121928571D01*
X118904762Y-121285714D02*
X120047619Y-122142857D01*
X120904762Y-120642857D02*
X118904762Y-120642857D01*
X119857143Y-120642857D02*
X119857143Y-119785714D01*
X120904762Y-119785714D02*
X118904762Y-119785714D01*
X120904762Y-119071428D02*
X118904762Y-119071428D01*
X120333333Y-118571428D01*
X118904762Y-118071428D01*
X120904762Y-118071428D01*
X119857143Y-117357142D02*
X119857143Y-116857142D01*
X120904762Y-116642856D02*
X120904762Y-117357142D01*
X118904762Y-117357142D01*
X118904762Y-116642856D01*
X120904762Y-115142856D02*
X119952381Y-115642856D01*
X120904762Y-115999999D02*
X118904762Y-115999999D01*
X118904762Y-115428571D01*
X119000000Y-115285713D01*
X119095238Y-115214285D01*
X119285714Y-115142856D01*
X119571429Y-115142856D01*
X119761905Y-115214285D01*
X119857143Y-115285713D01*
X119952381Y-115428571D01*
X119952381Y-115999999D01*
X120904762Y-114499999D02*
X118904762Y-114499999D01*
X120333333Y-113999999D01*
X118904762Y-113499999D01*
X120904762Y-113499999D01*
X120333333Y-112857142D02*
X120333333Y-112142856D01*
X120904762Y-112999999D02*
X118904762Y-112499999D01*
X120904762Y-111999999D01*
X120904762Y-111499999D02*
X118904762Y-111499999D01*
X120904762Y-110642856D02*
X119761905Y-111285713D01*
X118904762Y-110642856D02*
X120047619Y-111499999D01*
X119857143Y-109999999D02*
X119857143Y-109499999D01*
X120904762Y-109285713D02*
X120904762Y-109999999D01*
X118904762Y-109999999D01*
X118904762Y-109285713D01*
X120904762Y-107785713D02*
X119952381Y-108285713D01*
X120904762Y-108642856D02*
X118904762Y-108642856D01*
X118904762Y-108071428D01*
X119000000Y-107928570D01*
X119095238Y-107857142D01*
X119285714Y-107785713D01*
X119571429Y-107785713D01*
X119761905Y-107857142D01*
X119857143Y-107928570D01*
X119952381Y-108071428D01*
X119952381Y-108642856D01*
X120910714Y-85035714D02*
X121017857Y-84821428D01*
X121017857Y-84464285D01*
X120910714Y-84321428D01*
X120803571Y-84249999D01*
X120589286Y-84178571D01*
X120375000Y-84178571D01*
X120160714Y-84249999D01*
X120053571Y-84321428D01*
X119946429Y-84464285D01*
X119839286Y-84749999D01*
X119732143Y-84892857D01*
X119625000Y-84964285D01*
X119410714Y-85035714D01*
X119196429Y-85035714D01*
X118982143Y-84964285D01*
X118875000Y-84892857D01*
X118767857Y-84749999D01*
X118767857Y-84392857D01*
X118875000Y-84178571D01*
X118767857Y-83750000D02*
X118767857Y-82892857D01*
X121017857Y-83321428D02*
X118767857Y-83321428D01*
X119839286Y-82392857D02*
X119839286Y-81892857D01*
X121017857Y-81678571D02*
X121017857Y-82392857D01*
X118767857Y-82392857D01*
X118767857Y-81678571D01*
X121017857Y-81035714D02*
X118767857Y-81035714D01*
X120375000Y-80535714D01*
X118767857Y-80035714D01*
X121017857Y-80035714D01*
X152178571Y-119250001D02*
X153178571Y-118964287D01*
X152464286Y-118678573D01*
X153178571Y-118392858D01*
X152178571Y-118107144D01*
X152178571Y-117678572D02*
X153178571Y-117392858D01*
X152464286Y-117107144D01*
X153178571Y-116821429D01*
X152178571Y-116535715D01*
X152178571Y-116107143D02*
X153178571Y-115821429D01*
X152464286Y-115535715D01*
X153178571Y-115250000D01*
X152178571Y-114964286D01*
X153035714Y-114392857D02*
X153107143Y-114321429D01*
X153178571Y-114392857D01*
X153107143Y-114464286D01*
X153035714Y-114392857D01*
X153178571Y-114392857D01*
X153107143Y-113750000D02*
X153178571Y-113607143D01*
X153178571Y-113321428D01*
X153107143Y-113178571D01*
X152964286Y-113107143D01*
X152892857Y-113107143D01*
X152750000Y-113178571D01*
X152678571Y-113321428D01*
X152678571Y-113535714D01*
X152607143Y-113678571D01*
X152464286Y-113750000D01*
X152392857Y-113750000D01*
X152250000Y-113678571D01*
X152178571Y-113535714D01*
X152178571Y-113321428D01*
X152250000Y-113178571D01*
X152178571Y-112678571D02*
X152178571Y-112107142D01*
X151678571Y-112464285D02*
X152964286Y-112464285D01*
X153107143Y-112392857D01*
X153178571Y-112249999D01*
X153178571Y-112107142D01*
X153107143Y-111035714D02*
X153178571Y-111178571D01*
X153178571Y-111464285D01*
X153107143Y-111607142D01*
X152964286Y-111678571D01*
X152392857Y-111678571D01*
X152250000Y-111607142D01*
X152178571Y-111464285D01*
X152178571Y-111178571D01*
X152250000Y-111035714D01*
X152392857Y-110964285D01*
X152535714Y-110964285D01*
X152678571Y-111678571D01*
X153178571Y-110321428D02*
X152178571Y-110321428D01*
X152321429Y-110321428D02*
X152250000Y-110250000D01*
X152178571Y-110107142D01*
X152178571Y-109892857D01*
X152250000Y-109750000D01*
X152392857Y-109678571D01*
X153178571Y-109678571D01*
X152392857Y-109678571D02*
X152250000Y-109607142D01*
X152178571Y-109464285D01*
X152178571Y-109250000D01*
X152250000Y-109107142D01*
X152392857Y-109035714D01*
X153178571Y-109035714D01*
X152178571Y-108321428D02*
X153678571Y-108321428D01*
X152250000Y-108321428D02*
X152178571Y-108178571D01*
X152178571Y-107892857D01*
X152250000Y-107750000D01*
X152321429Y-107678571D01*
X152464286Y-107607142D01*
X152892857Y-107607142D01*
X153035714Y-107678571D01*
X153107143Y-107750000D01*
X153178571Y-107892857D01*
X153178571Y-108178571D01*
X153107143Y-108321428D01*
X153178571Y-106964285D02*
X151678571Y-106964285D01*
X153178571Y-106321428D02*
X152392857Y-106321428D01*
X152250000Y-106392857D01*
X152178571Y-106535714D01*
X152178571Y-106749999D01*
X152250000Y-106892857D01*
X152321429Y-106964285D01*
X152178571Y-105607142D02*
X153178571Y-105607142D01*
X152321429Y-105607142D02*
X152250000Y-105535714D01*
X152178571Y-105392856D01*
X152178571Y-105178571D01*
X152250000Y-105035714D01*
X152392857Y-104964285D01*
X153178571Y-104964285D01*
X153178571Y-104035713D02*
X153107143Y-104178571D01*
X153035714Y-104249999D01*
X152892857Y-104321428D01*
X152464286Y-104321428D01*
X152321429Y-104249999D01*
X152250000Y-104178571D01*
X152178571Y-104035713D01*
X152178571Y-103821428D01*
X152250000Y-103678571D01*
X152321429Y-103607142D01*
X152464286Y-103535713D01*
X152892857Y-103535713D01*
X153035714Y-103607142D01*
X153107143Y-103678571D01*
X153178571Y-103821428D01*
X153178571Y-104035713D01*
X153178571Y-102892856D02*
X152178571Y-102892856D01*
X152321429Y-102892856D02*
X152250000Y-102821428D01*
X152178571Y-102678570D01*
X152178571Y-102464285D01*
X152250000Y-102321428D01*
X152392857Y-102249999D01*
X153178571Y-102249999D01*
X152392857Y-102249999D02*
X152250000Y-102178570D01*
X152178571Y-102035713D01*
X152178571Y-101821428D01*
X152250000Y-101678570D01*
X152392857Y-101607142D01*
X153178571Y-101607142D01*
X152178571Y-100892856D02*
X153678571Y-100892856D01*
X152250000Y-100892856D02*
X152178571Y-100749999D01*
X152178571Y-100464285D01*
X152250000Y-100321428D01*
X152321429Y-100249999D01*
X152464286Y-100178570D01*
X152892857Y-100178570D01*
X153035714Y-100249999D01*
X153107143Y-100321428D01*
X153178571Y-100464285D01*
X153178571Y-100749999D01*
X153107143Y-100892856D01*
X153107143Y-98964285D02*
X153178571Y-99107142D01*
X153178571Y-99392856D01*
X153107143Y-99535713D01*
X152964286Y-99607142D01*
X152392857Y-99607142D01*
X152250000Y-99535713D01*
X152178571Y-99392856D01*
X152178571Y-99107142D01*
X152250000Y-98964285D01*
X152392857Y-98892856D01*
X152535714Y-98892856D01*
X152678571Y-99607142D01*
X152178571Y-98249999D02*
X153178571Y-98249999D01*
X152321429Y-98249999D02*
X152250000Y-98178571D01*
X152178571Y-98035713D01*
X152178571Y-97821428D01*
X152250000Y-97678571D01*
X152392857Y-97607142D01*
X153178571Y-97607142D01*
X153178571Y-96892856D02*
X151678571Y-96892856D01*
X153178571Y-96249999D02*
X152392857Y-96249999D01*
X152250000Y-96321428D01*
X152178571Y-96464285D01*
X152178571Y-96678570D01*
X152250000Y-96821428D01*
X152321429Y-96892856D01*
X153035714Y-95535713D02*
X153107143Y-95464285D01*
X153178571Y-95535713D01*
X153107143Y-95607142D01*
X153035714Y-95535713D01*
X153178571Y-95535713D01*
X153107143Y-94178570D02*
X153178571Y-94321427D01*
X153178571Y-94607141D01*
X153107143Y-94749999D01*
X153035714Y-94821427D01*
X152892857Y-94892856D01*
X152464286Y-94892856D01*
X152321429Y-94821427D01*
X152250000Y-94749999D01*
X152178571Y-94607141D01*
X152178571Y-94321427D01*
X152250000Y-94178570D01*
X153178571Y-93321427D02*
X153107143Y-93464285D01*
X153035714Y-93535713D01*
X152892857Y-93607142D01*
X152464286Y-93607142D01*
X152321429Y-93535713D01*
X152250000Y-93464285D01*
X152178571Y-93321427D01*
X152178571Y-93107142D01*
X152250000Y-92964285D01*
X152321429Y-92892856D01*
X152464286Y-92821427D01*
X152892857Y-92821427D01*
X153035714Y-92892856D01*
X153107143Y-92964285D01*
X153178571Y-93107142D01*
X153178571Y-93321427D01*
X153178571Y-92178570D02*
X152178571Y-92178570D01*
X152321429Y-92178570D02*
X152250000Y-92107142D01*
X152178571Y-91964284D01*
X152178571Y-91749999D01*
X152250000Y-91607142D01*
X152392857Y-91535713D01*
X153178571Y-91535713D01*
X152392857Y-91535713D02*
X152250000Y-91464284D01*
X152178571Y-91321427D01*
X152178571Y-91107142D01*
X152250000Y-90964284D01*
X152392857Y-90892856D01*
X153178571Y-90892856D01*
D12*
X139954000Y-78994000D02*
G75*
G03X139827000Y-82423000I1651000J-1778000D01*
G01*
D13*
X143455000Y-82572000D02*
X143455000Y-78972000D01*
D12*
X133858000Y-78232000D02*
X134747000Y-77216000D01*
X134747000Y-77216000D02*
X137033000Y-77216000D01*
X137033000Y-77216000D02*
X137922000Y-78232000D01*
X137922000Y-83312000D02*
X136906000Y-84328000D01*
X136906000Y-84328000D02*
X134874000Y-84328000D01*
X134874000Y-84328000D02*
X133858000Y-83312000D01*
X133858000Y-78740000D02*
G75*
G03X133858000Y-82550000I1905000J-1905000D01*
G01*
D14*
X137863400Y-78270800D02*
X137863400Y-83270800D01*
X133863400Y-83270800D02*
X133863400Y-82770800D01*
X133863400Y-82770800D02*
X133863400Y-78770800D01*
X133863400Y-78770800D02*
X133863400Y-78270800D01*
D12*
X131318000Y-91567000D02*
G75*
G03X128016000Y-91567000I-1651000J-1651000D01*
G01*
D13*
X127867000Y-95068000D02*
X131467000Y-95068000D01*
D12*
X131318000Y-97917000D02*
G75*
G03X128016000Y-97917000I-1651000J-1651000D01*
G01*
D13*
X127867000Y-101418000D02*
X131467000Y-101418000D01*
D12*
X131445000Y-104140000D02*
G75*
G03X127889000Y-104140000I-1778000J-1778000D01*
G01*
D13*
X127867000Y-107768000D02*
X131467000Y-107768000D01*
D12*
X124460000Y-123190000D02*
G75*
G03X128524000Y-123444000I2159000J1905000D01*
G01*
D14*
X128587000Y-120142000D02*
X124397000Y-120142000D01*
D12*
X128800903Y-112903000D02*
G75*
G03X128800903Y-112903000I-1419903J0D01*
G01*
X151058000Y-77623000D02*
X151058000Y-83921000D01*
X151198000Y-77629000D02*
X151198000Y-83915000D01*
X151338000Y-77642000D02*
X151338000Y-80326000D01*
X151338000Y-81218000D02*
X151338000Y-83902000D01*
X151478000Y-77661000D02*
X151478000Y-80116000D01*
X151478000Y-81428000D02*
X151478000Y-83883000D01*
X151618000Y-77687000D02*
X151618000Y-79983000D01*
X151618000Y-81561000D02*
X151618000Y-83857000D01*
X151758000Y-77719000D02*
X151758000Y-79892000D01*
X151758000Y-81652000D02*
X151758000Y-83825000D01*
X151898000Y-77758000D02*
X151898000Y-79830000D01*
X151898000Y-81714000D02*
X151898000Y-83786000D01*
X152038000Y-77804000D02*
X152038000Y-79791000D01*
X152038000Y-81753000D02*
X152038000Y-83740000D01*
X152178000Y-77857000D02*
X152178000Y-79774000D01*
X152178000Y-81770000D02*
X152178000Y-83687000D01*
X152318000Y-77919000D02*
X152318000Y-79776000D01*
X152318000Y-81768000D02*
X152318000Y-83625000D01*
X152458000Y-77989000D02*
X152458000Y-79798000D01*
X152458000Y-81746000D02*
X152458000Y-83555000D01*
X152598000Y-78068000D02*
X152598000Y-79841000D01*
X152598000Y-81703000D02*
X152598000Y-83476000D01*
X152738000Y-78156000D02*
X152738000Y-79909000D01*
X152738000Y-81635000D02*
X152738000Y-83388000D01*
X152878000Y-78256000D02*
X152878000Y-80008000D01*
X152878000Y-81536000D02*
X152878000Y-83288000D01*
X153018000Y-78368000D02*
X153018000Y-80153000D01*
X153018000Y-81391000D02*
X153018000Y-83176000D01*
X153158000Y-78493000D02*
X153158000Y-80392000D01*
X153158000Y-81152000D02*
X153158000Y-83051000D01*
X153298000Y-78636000D02*
X153298000Y-82908000D01*
X153438000Y-78798000D02*
X153438000Y-82746000D01*
X153578000Y-78986000D02*
X153578000Y-82558000D01*
X153718000Y-79209000D02*
X153718000Y-82335000D01*
X153858000Y-79485000D02*
X153858000Y-82059000D01*
X153998000Y-79860000D02*
X153998000Y-81684000D01*
X153233000Y-80772000D02*
G75*
G03X153233000Y-80772000I-1000000J0D01*
G01*
X154170500Y-80772000D02*
G75*
G03X154170500Y-80772000I-3187500J0D01*
G01*
X146177000Y-107188000D02*
X146177000Y-104648000D01*
X143357000Y-104368000D02*
X144907000Y-104368000D01*
X143357000Y-104368000D02*
X143357000Y-107468000D01*
X143357000Y-107468000D02*
X144907000Y-107468000D01*
X107162000Y-98933000D02*
X107162000Y-100483000D01*
X107162000Y-100483000D02*
X110262000Y-100483000D01*
X110262000Y-100483000D02*
X110262000Y-98933000D01*
X107442000Y-97663000D02*
X107442000Y-92583000D01*
X107442000Y-92583000D02*
X109982000Y-92583000D01*
X109982000Y-92583000D02*
X109982000Y-97663000D01*
X109982000Y-97663000D02*
X107442000Y-97663000D01*
X110972000Y-98933000D02*
X110972000Y-100483000D01*
X110972000Y-100483000D02*
X114072000Y-100483000D01*
X114072000Y-100483000D02*
X114072000Y-98933000D01*
X111252000Y-97663000D02*
X111252000Y-92583000D01*
X111252000Y-92583000D02*
X113792000Y-92583000D01*
X113792000Y-92583000D02*
X113792000Y-97663000D01*
X113792000Y-97663000D02*
X111252000Y-97663000D01*
X107162000Y-101193000D02*
X107162000Y-102743000D01*
X107442000Y-106553000D02*
X107442000Y-104013000D01*
X107442000Y-104013000D02*
X109982000Y-104013000D01*
X110262000Y-102743000D02*
X110262000Y-101193000D01*
X110262000Y-101193000D02*
X107162000Y-101193000D01*
X109982000Y-104013000D02*
X109982000Y-106553000D01*
X109982000Y-106553000D02*
X107442000Y-106553000D01*
X143637000Y-102108000D02*
X138557000Y-102108000D01*
X138557000Y-102108000D02*
X138557000Y-99568000D01*
X138557000Y-99568000D02*
X143637000Y-99568000D01*
X143637000Y-99568000D02*
X143637000Y-102108000D01*
X143637000Y-100838000D02*
X144907000Y-100838000D01*
X138557000Y-100838000D02*
X137287000Y-100838000D01*
X143637000Y-98298000D02*
X138557000Y-98298000D01*
X138557000Y-98298000D02*
X138557000Y-95758000D01*
X138557000Y-95758000D02*
X143637000Y-95758000D01*
X143637000Y-95758000D02*
X143637000Y-98298000D01*
X143637000Y-97028000D02*
X144907000Y-97028000D01*
X138557000Y-97028000D02*
X137287000Y-97028000D01*
X138557000Y-91948000D02*
X143637000Y-91948000D01*
X143637000Y-91948000D02*
X143637000Y-94488000D01*
X143637000Y-94488000D02*
X138557000Y-94488000D01*
X138557000Y-94488000D02*
X138557000Y-91948000D01*
X138557000Y-93218000D02*
X137287000Y-93218000D01*
X143637000Y-93218000D02*
X144907000Y-93218000D01*
X139827000Y-114173000D02*
X134747000Y-114173000D01*
X134747000Y-114173000D02*
X134747000Y-111633000D01*
X134747000Y-111633000D02*
X139827000Y-111633000D01*
X139827000Y-111633000D02*
X139827000Y-114173000D01*
X139827000Y-112903000D02*
X141097000Y-112903000D01*
X134747000Y-112903000D02*
X133477000Y-112903000D01*
X139827000Y-123063000D02*
X134747000Y-123063000D01*
X134747000Y-123063000D02*
X134747000Y-120523000D01*
X134747000Y-120523000D02*
X139827000Y-120523000D01*
X139827000Y-120523000D02*
X139827000Y-123063000D01*
X139827000Y-121793000D02*
X141097000Y-121793000D01*
X134747000Y-121793000D02*
X133477000Y-121793000D01*
X139827000Y-117983000D02*
X134747000Y-117983000D01*
X134747000Y-117983000D02*
X134747000Y-115443000D01*
X134747000Y-115443000D02*
X139827000Y-115443000D01*
X139827000Y-115443000D02*
X139827000Y-117983000D01*
X139827000Y-116713000D02*
X141097000Y-116713000D01*
X134747000Y-116713000D02*
X133477000Y-116713000D01*
X149225000Y-88392000D02*
X144145000Y-88392000D01*
X144145000Y-88392000D02*
X144145000Y-85852000D01*
X144145000Y-85852000D02*
X149225000Y-85852000D01*
X149225000Y-85852000D02*
X149225000Y-88392000D01*
X149225000Y-87122000D02*
X150495000Y-87122000D01*
X144145000Y-87122000D02*
X142875000Y-87122000D01*
X130810000Y-85852000D02*
X135890000Y-85852000D01*
X135890000Y-85852000D02*
X135890000Y-88392000D01*
X135890000Y-88392000D02*
X130810000Y-88392000D01*
X130810000Y-88392000D02*
X130810000Y-85852000D01*
X130810000Y-87122000D02*
X129540000Y-87122000D01*
X135890000Y-87122000D02*
X137160000Y-87122000D01*
D15*
G36*
X107514133Y-82174439D02*
X107553644Y-81934312D01*
X107639863Y-81685354D01*
X107789457Y-81370844D01*
X107872386Y-81210905D01*
X108204026Y-80596782D01*
X108535278Y-80015879D01*
X108852406Y-79489956D01*
X109141670Y-79040773D01*
X109389335Y-78690093D01*
X109581664Y-78459676D01*
X109645939Y-78401448D01*
X109883152Y-78228516D01*
X110102209Y-78095663D01*
X110330142Y-77997621D01*
X110593979Y-77929123D01*
X110920750Y-77884902D01*
X111337486Y-77859688D01*
X111871215Y-77848217D01*
X112500000Y-77845259D01*
X114320333Y-77843467D01*
X114828333Y-78086766D01*
X115133541Y-78254168D01*
X115407157Y-78440271D01*
X115558623Y-78573533D01*
X115680959Y-78736316D01*
X115865381Y-79017169D01*
X116093800Y-79385009D01*
X116348127Y-79808756D01*
X116610275Y-80257327D01*
X116862154Y-80699641D01*
X117085678Y-81104617D01*
X117262758Y-81441173D01*
X117375304Y-81678227D01*
X117395251Y-81729467D01*
X117459018Y-82036335D01*
X117484815Y-82431285D01*
X117472832Y-82840276D01*
X117423257Y-83189267D01*
X117391236Y-83300239D01*
X117300155Y-83501791D01*
X117138900Y-83810802D01*
X116925594Y-84196592D01*
X116678358Y-84628482D01*
X116415314Y-85075791D01*
X116154583Y-85507839D01*
X115914286Y-85893946D01*
X115712546Y-86203433D01*
X115567484Y-86405619D01*
X115533647Y-86445156D01*
X115303649Y-86644367D01*
X115011364Y-86842063D01*
X114887835Y-86910822D01*
X114750262Y-86977226D01*
X114614672Y-87027839D01*
X114455680Y-87065207D01*
X114247898Y-87091876D01*
X113965939Y-87110390D01*
X113584416Y-87123297D01*
X113077944Y-87133142D01*
X112602170Y-87140029D01*
X112522990Y-87141024D01*
X112522990Y-86902667D01*
X113122616Y-86901966D01*
X113579295Y-86898192D01*
X113919409Y-86888838D01*
X114169343Y-86871398D01*
X114355481Y-86843364D01*
X114504208Y-86802230D01*
X114641907Y-86745488D01*
X114755004Y-86690589D01*
X114963746Y-86580743D01*
X115138075Y-86467494D01*
X115296275Y-86328373D01*
X115456634Y-86140914D01*
X115637437Y-85882650D01*
X115856969Y-85531112D01*
X116133518Y-85063833D01*
X116270676Y-84828333D01*
X116582223Y-84291307D01*
X116818997Y-83875757D01*
X116990901Y-83556517D01*
X117107833Y-83308418D01*
X117179694Y-83106292D01*
X117216383Y-82924973D01*
X117227801Y-82739292D01*
X117223847Y-82524082D01*
X117219855Y-82415333D01*
X117209870Y-82194487D01*
X117190743Y-82010479D01*
X117151141Y-81835693D01*
X117079734Y-81642512D01*
X116965189Y-81403322D01*
X116796175Y-81090505D01*
X116561360Y-80676446D01*
X116368689Y-80341000D01*
X116000967Y-79708465D01*
X115688526Y-79206509D01*
X115405122Y-78820360D01*
X115124512Y-78535247D01*
X114820453Y-78336398D01*
X114466703Y-78209041D01*
X114037018Y-78138405D01*
X113505155Y-78109718D01*
X112844871Y-78108208D01*
X112411698Y-78113692D01*
X111705218Y-78125896D01*
X111136815Y-78150398D01*
X110680638Y-78202671D01*
X110310835Y-78298187D01*
X110001555Y-78452417D01*
X109726946Y-78680833D01*
X109461157Y-78998908D01*
X109178337Y-79422111D01*
X108852634Y-79965917D01*
X108605545Y-80391635D01*
X107801423Y-81780333D01*
X107801211Y-82500000D01*
X107801000Y-83219666D01*
X108672309Y-84715102D01*
X109035133Y-85332680D01*
X109340736Y-85821488D01*
X109615621Y-86196580D01*
X109886291Y-86473014D01*
X110179246Y-86665843D01*
X110520989Y-86790125D01*
X110938023Y-86860916D01*
X111456848Y-86893269D01*
X112103967Y-86902242D01*
X112522990Y-86902667D01*
X112522990Y-87141024D01*
X111987732Y-87147754D01*
X111516851Y-87150706D01*
X111163774Y-87146928D01*
X110902747Y-87134462D01*
X110708018Y-87111352D01*
X110553833Y-87075638D01*
X110414439Y-87025365D01*
X110273836Y-86963062D01*
X109985085Y-86817644D01*
X109739475Y-86657261D01*
X109516264Y-86458193D01*
X109294709Y-86196721D01*
X109054067Y-85849125D01*
X108773596Y-85391688D01*
X108525628Y-84964010D01*
X108203644Y-84397721D01*
X107957368Y-83952706D01*
X107776712Y-83604249D01*
X107651589Y-83327633D01*
X107571911Y-83098142D01*
X107527592Y-82891061D01*
X107508544Y-82681674D01*
X107504667Y-82462458D01*
X107514133Y-82174439D01*
X107514133Y-82174439D01*
G37*
X107514133Y-82174439D02*
X107553644Y-81934312D01*
X107639863Y-81685354D01*
X107789457Y-81370844D01*
X107872386Y-81210905D01*
X108204026Y-80596782D01*
X108535278Y-80015879D01*
X108852406Y-79489956D01*
X109141670Y-79040773D01*
X109389335Y-78690093D01*
X109581664Y-78459676D01*
X109645939Y-78401448D01*
X109883152Y-78228516D01*
X110102209Y-78095663D01*
X110330142Y-77997621D01*
X110593979Y-77929123D01*
X110920750Y-77884902D01*
X111337486Y-77859688D01*
X111871215Y-77848217D01*
X112500000Y-77845259D01*
X114320333Y-77843467D01*
X114828333Y-78086766D01*
X115133541Y-78254168D01*
X115407157Y-78440271D01*
X115558623Y-78573533D01*
X115680959Y-78736316D01*
X115865381Y-79017169D01*
X116093800Y-79385009D01*
X116348127Y-79808756D01*
X116610275Y-80257327D01*
X116862154Y-80699641D01*
X117085678Y-81104617D01*
X117262758Y-81441173D01*
X117375304Y-81678227D01*
X117395251Y-81729467D01*
X117459018Y-82036335D01*
X117484815Y-82431285D01*
X117472832Y-82840276D01*
X117423257Y-83189267D01*
X117391236Y-83300239D01*
X117300155Y-83501791D01*
X117138900Y-83810802D01*
X116925594Y-84196592D01*
X116678358Y-84628482D01*
X116415314Y-85075791D01*
X116154583Y-85507839D01*
X115914286Y-85893946D01*
X115712546Y-86203433D01*
X115567484Y-86405619D01*
X115533647Y-86445156D01*
X115303649Y-86644367D01*
X115011364Y-86842063D01*
X114887835Y-86910822D01*
X114750262Y-86977226D01*
X114614672Y-87027839D01*
X114455680Y-87065207D01*
X114247898Y-87091876D01*
X113965939Y-87110390D01*
X113584416Y-87123297D01*
X113077944Y-87133142D01*
X112602170Y-87140029D01*
X112522990Y-87141024D01*
X112522990Y-86902667D01*
X113122616Y-86901966D01*
X113579295Y-86898192D01*
X113919409Y-86888838D01*
X114169343Y-86871398D01*
X114355481Y-86843364D01*
X114504208Y-86802230D01*
X114641907Y-86745488D01*
X114755004Y-86690589D01*
X114963746Y-86580743D01*
X115138075Y-86467494D01*
X115296275Y-86328373D01*
X115456634Y-86140914D01*
X115637437Y-85882650D01*
X115856969Y-85531112D01*
X116133518Y-85063833D01*
X116270676Y-84828333D01*
X116582223Y-84291307D01*
X116818997Y-83875757D01*
X116990901Y-83556517D01*
X117107833Y-83308418D01*
X117179694Y-83106292D01*
X117216383Y-82924973D01*
X117227801Y-82739292D01*
X117223847Y-82524082D01*
X117219855Y-82415333D01*
X117209870Y-82194487D01*
X117190743Y-82010479D01*
X117151141Y-81835693D01*
X117079734Y-81642512D01*
X116965189Y-81403322D01*
X116796175Y-81090505D01*
X116561360Y-80676446D01*
X116368689Y-80341000D01*
X116000967Y-79708465D01*
X115688526Y-79206509D01*
X115405122Y-78820360D01*
X115124512Y-78535247D01*
X114820453Y-78336398D01*
X114466703Y-78209041D01*
X114037018Y-78138405D01*
X113505155Y-78109718D01*
X112844871Y-78108208D01*
X112411698Y-78113692D01*
X111705218Y-78125896D01*
X111136815Y-78150398D01*
X110680638Y-78202671D01*
X110310835Y-78298187D01*
X110001555Y-78452417D01*
X109726946Y-78680833D01*
X109461157Y-78998908D01*
X109178337Y-79422111D01*
X108852634Y-79965917D01*
X108605545Y-80391635D01*
X107801423Y-81780333D01*
X107801211Y-82500000D01*
X107801000Y-83219666D01*
X108672309Y-84715102D01*
X109035133Y-85332680D01*
X109340736Y-85821488D01*
X109615621Y-86196580D01*
X109886291Y-86473014D01*
X110179246Y-86665843D01*
X110520989Y-86790125D01*
X110938023Y-86860916D01*
X111456848Y-86893269D01*
X112103967Y-86902242D01*
X112522990Y-86902667D01*
X112522990Y-87141024D01*
X111987732Y-87147754D01*
X111516851Y-87150706D01*
X111163774Y-87146928D01*
X110902747Y-87134462D01*
X110708018Y-87111352D01*
X110553833Y-87075638D01*
X110414439Y-87025365D01*
X110273836Y-86963062D01*
X109985085Y-86817644D01*
X109739475Y-86657261D01*
X109516264Y-86458193D01*
X109294709Y-86196721D01*
X109054067Y-85849125D01*
X108773596Y-85391688D01*
X108525628Y-84964010D01*
X108203644Y-84397721D01*
X107957368Y-83952706D01*
X107776712Y-83604249D01*
X107651589Y-83327633D01*
X107571911Y-83098142D01*
X107527592Y-82891061D01*
X107508544Y-82681674D01*
X107504667Y-82462458D01*
X107514133Y-82174439D01*
G36*
X109538455Y-81683866D02*
X109636068Y-81178781D01*
X109766409Y-80701439D01*
X109914646Y-80298556D01*
X110065946Y-80016844D01*
X110069158Y-80012415D01*
X110132512Y-79945092D01*
X110216777Y-79924600D01*
X110357195Y-79957922D01*
X110589011Y-80052043D01*
X110841048Y-80165363D01*
X111149286Y-80305503D01*
X111341680Y-80414105D01*
X111430029Y-80529415D01*
X111426136Y-80689679D01*
X111341800Y-80933144D01*
X111189817Y-81295684D01*
X111018778Y-81776308D01*
X110925972Y-82199449D01*
X110911369Y-82543950D01*
X110974941Y-82788658D01*
X111116660Y-82912417D01*
X111191986Y-82923333D01*
X111317363Y-82887662D01*
X111435989Y-82767118D01*
X111559041Y-82541399D01*
X111697696Y-82190209D01*
X111854812Y-81719471D01*
X111996607Y-81308985D01*
X112146697Y-80933646D01*
X112285871Y-80638588D01*
X112379470Y-80486820D01*
X112738260Y-80160428D01*
X113170784Y-79959104D01*
X113641035Y-79882864D01*
X114113006Y-79931721D01*
X114550690Y-80105690D01*
X114918081Y-80404785D01*
X114984668Y-80485765D01*
X115255479Y-80964687D01*
X115433967Y-81548686D01*
X115513716Y-82196913D01*
X115488310Y-82868521D01*
X115420765Y-83262000D01*
X115257874Y-83856636D01*
X115059619Y-84378332D01*
X114842364Y-84786508D01*
X114759448Y-84901883D01*
X114566326Y-85144081D01*
X113935329Y-84828116D01*
X113643905Y-84681247D01*
X113417831Y-84565537D01*
X113293980Y-84499926D01*
X113281718Y-84492404D01*
X113310516Y-84416105D01*
X113407633Y-84234316D01*
X113552399Y-83985616D01*
X113559888Y-83973163D01*
X113869863Y-83358556D01*
X114056327Y-82760718D01*
X114108667Y-82289899D01*
X114069163Y-81973968D01*
X113943769Y-81794896D01*
X113722155Y-81738002D01*
X113720380Y-81738000D01*
X113553983Y-81809210D01*
X113399791Y-82028454D01*
X113252884Y-82404151D01*
X113176362Y-82669333D01*
X112989406Y-83302465D01*
X112797508Y-83789559D01*
X112587188Y-84153695D01*
X112344960Y-84417953D01*
X112057343Y-84605412D01*
X112040484Y-84613689D01*
X111552919Y-84761197D01*
X111056467Y-84748615D01*
X110580038Y-84580912D01*
X110185079Y-84294675D01*
X109850783Y-83864768D01*
X109621607Y-83321624D01*
X109503498Y-82689263D01*
X109502407Y-81991704D01*
X109538455Y-81683866D01*
X109538455Y-81683866D01*
G37*
X109538455Y-81683866D02*
X109636068Y-81178781D01*
X109766409Y-80701439D01*
X109914646Y-80298556D01*
X110065946Y-80016844D01*
X110069158Y-80012415D01*
X110132512Y-79945092D01*
X110216777Y-79924600D01*
X110357195Y-79957922D01*
X110589011Y-80052043D01*
X110841048Y-80165363D01*
X111149286Y-80305503D01*
X111341680Y-80414105D01*
X111430029Y-80529415D01*
X111426136Y-80689679D01*
X111341800Y-80933144D01*
X111189817Y-81295684D01*
X111018778Y-81776308D01*
X110925972Y-82199449D01*
X110911369Y-82543950D01*
X110974941Y-82788658D01*
X111116660Y-82912417D01*
X111191986Y-82923333D01*
X111317363Y-82887662D01*
X111435989Y-82767118D01*
X111559041Y-82541399D01*
X111697696Y-82190209D01*
X111854812Y-81719471D01*
X111996607Y-81308985D01*
X112146697Y-80933646D01*
X112285871Y-80638588D01*
X112379470Y-80486820D01*
X112738260Y-80160428D01*
X113170784Y-79959104D01*
X113641035Y-79882864D01*
X114113006Y-79931721D01*
X114550690Y-80105690D01*
X114918081Y-80404785D01*
X114984668Y-80485765D01*
X115255479Y-80964687D01*
X115433967Y-81548686D01*
X115513716Y-82196913D01*
X115488310Y-82868521D01*
X115420765Y-83262000D01*
X115257874Y-83856636D01*
X115059619Y-84378332D01*
X114842364Y-84786508D01*
X114759448Y-84901883D01*
X114566326Y-85144081D01*
X113935329Y-84828116D01*
X113643905Y-84681247D01*
X113417831Y-84565537D01*
X113293980Y-84499926D01*
X113281718Y-84492404D01*
X113310516Y-84416105D01*
X113407633Y-84234316D01*
X113552399Y-83985616D01*
X113559888Y-83973163D01*
X113869863Y-83358556D01*
X114056327Y-82760718D01*
X114108667Y-82289899D01*
X114069163Y-81973968D01*
X113943769Y-81794896D01*
X113722155Y-81738002D01*
X113720380Y-81738000D01*
X113553983Y-81809210D01*
X113399791Y-82028454D01*
X113252884Y-82404151D01*
X113176362Y-82669333D01*
X112989406Y-83302465D01*
X112797508Y-83789559D01*
X112587188Y-84153695D01*
X112344960Y-84417953D01*
X112057343Y-84605412D01*
X112040484Y-84613689D01*
X111552919Y-84761197D01*
X111056467Y-84748615D01*
X110580038Y-84580912D01*
X110185079Y-84294675D01*
X109850783Y-83864768D01*
X109621607Y-83321624D01*
X109503498Y-82689263D01*
X109502407Y-81991704D01*
X109538455Y-81683866D01*
G36*
X107573838Y-114863403D02*
X107731218Y-114723511D01*
X107941181Y-114592834D01*
X108151061Y-114506544D01*
X108250339Y-114490704D01*
X108344582Y-114476649D01*
X108280640Y-114418007D01*
X108268327Y-114410152D01*
X108214013Y-114344302D01*
X108291362Y-114273908D01*
X108417904Y-114215302D01*
X108583387Y-114125626D01*
X108640567Y-114051992D01*
X108634965Y-114041855D01*
X108651877Y-113993811D01*
X108723219Y-113984000D01*
X108823699Y-113949498D01*
X108821880Y-113907229D01*
X108849256Y-113864243D01*
X108946060Y-113875340D01*
X109148240Y-113844812D01*
X109278564Y-113734731D01*
X109410196Y-113615573D01*
X109557055Y-113592452D01*
X109742053Y-113632795D01*
X109945308Y-113676415D01*
X110031846Y-113652098D01*
X110044667Y-113596175D01*
X110087522Y-113487883D01*
X110120155Y-113476000D01*
X110192303Y-113403697D01*
X110252308Y-113243167D01*
X110422433Y-112843969D01*
X110707607Y-112475493D01*
X111056974Y-112202369D01*
X111081928Y-112188804D01*
X111520185Y-112037239D01*
X112040080Y-111981190D01*
X112584121Y-112019649D01*
X113094816Y-112151608D01*
X113270439Y-112227167D01*
X113630896Y-112371779D01*
X113968549Y-112451460D01*
X114085294Y-112460000D01*
X114405927Y-112489514D01*
X114729043Y-112561379D01*
X114754188Y-112569458D01*
X115106205Y-112653892D01*
X115335051Y-112628290D01*
X115447987Y-112490604D01*
X115463333Y-112369445D01*
X115491365Y-112186175D01*
X115594802Y-112123252D01*
X115632667Y-112121333D01*
X115755513Y-112082517D01*
X115799782Y-111936952D01*
X115802000Y-111861445D01*
X115820870Y-111681042D01*
X115901856Y-111623347D01*
X115992500Y-111628612D01*
X116079247Y-111651254D01*
X116137155Y-111710710D01*
X116174536Y-111838558D01*
X116199704Y-112066374D01*
X116220972Y-112425737D01*
X116225333Y-112513014D01*
X116267667Y-113370362D01*
X116740152Y-113754812D01*
X117136518Y-114108448D01*
X117384431Y-114416479D01*
X117489732Y-114703071D01*
X117458259Y-114992387D01*
X117295853Y-115308593D01*
X117160286Y-115493328D01*
X116925717Y-115764977D01*
X116675288Y-116017120D01*
X116525286Y-116145980D01*
X116225333Y-116374765D01*
X116225333Y-118302000D01*
X116013667Y-118302000D01*
X115852545Y-118267031D01*
X115802894Y-118129340D01*
X115802000Y-118090333D01*
X115762313Y-117924352D01*
X115632667Y-117878667D01*
X115547772Y-117851328D01*
X115547772Y-116496620D01*
X115811548Y-116436836D01*
X116050684Y-116298080D01*
X116349636Y-116068037D01*
X116662768Y-115787907D01*
X116944442Y-115498892D01*
X117149022Y-115242193D01*
X117168612Y-115211667D01*
X117292798Y-114963698D01*
X117318677Y-114747011D01*
X117235427Y-114527351D01*
X117032226Y-114270466D01*
X116796833Y-114034894D01*
X116267667Y-113530943D01*
X116238235Y-114201972D01*
X116219285Y-114541962D01*
X116187939Y-114760701D01*
X116127631Y-114906221D01*
X116021795Y-115026553D01*
X115924868Y-115110562D01*
X115640933Y-115348124D01*
X115456307Y-114983562D01*
X115140393Y-114432578D01*
X115015941Y-114253340D01*
X115015941Y-113560667D01*
X115101398Y-113490888D01*
X115133609Y-113320848D01*
X115117008Y-113109493D01*
X115056032Y-112915769D01*
X114958747Y-112800494D01*
X114775654Y-112736288D01*
X114507583Y-112678022D01*
X114387247Y-112659948D01*
X113981667Y-112608199D01*
X114444441Y-113084433D01*
X114676833Y-113310133D01*
X114874582Y-113478002D01*
X115001504Y-113557890D01*
X115015941Y-113560667D01*
X115015941Y-114253340D01*
X114759342Y-113883779D01*
X114339521Y-113366995D01*
X113907300Y-112912054D01*
X113489049Y-112548785D01*
X113111135Y-112307016D01*
X113075166Y-112290028D01*
X112627507Y-112156928D01*
X112128893Y-112121570D01*
X111630873Y-112178435D01*
X111184994Y-112322005D01*
X110864256Y-112526729D01*
X110729881Y-112682540D01*
X110599470Y-112886347D01*
X110496601Y-113091315D01*
X110444853Y-113250610D01*
X110466279Y-113317250D01*
X110602746Y-113340323D01*
X110766861Y-113387662D01*
X110886078Y-113427418D01*
X111070271Y-113448287D01*
X111220124Y-113338947D01*
X111243200Y-113311390D01*
X111449382Y-113172250D01*
X111763316Y-113089555D01*
X112131976Y-113066608D01*
X112502336Y-113106714D01*
X112821160Y-113213069D01*
X113187658Y-113461500D01*
X113567751Y-113843039D01*
X113967593Y-114365708D01*
X114393339Y-115037529D01*
X114839513Y-115844308D01*
X115070550Y-116215291D01*
X115300603Y-116429051D01*
X115547772Y-116496620D01*
X115547772Y-117851328D01*
X115508720Y-117838751D01*
X115465080Y-117690234D01*
X115463333Y-117624667D01*
X115436723Y-117438747D01*
X115337711Y-117373287D01*
X115294000Y-117370667D01*
X115191179Y-117347631D01*
X115140678Y-117250473D01*
X115125128Y-117037122D01*
X115124667Y-116960456D01*
X115099322Y-116649571D01*
X115005420Y-116445868D01*
X114816160Y-116328747D01*
X114504739Y-116277611D01*
X114226247Y-116270000D01*
X114046523Y-116270000D01*
X114046523Y-115327246D01*
X114264652Y-115320179D01*
X114361229Y-115301573D01*
X114362667Y-115298360D01*
X114321244Y-115204532D01*
X114216214Y-115021024D01*
X114149938Y-114913651D01*
X114010694Y-114712596D01*
X113880889Y-114613178D01*
X113692934Y-114579805D01*
X113510070Y-114576667D01*
X113082930Y-114576667D01*
X113135000Y-115296333D01*
X113748833Y-115321209D01*
X114046523Y-115327246D01*
X114046523Y-116270000D01*
X113637494Y-116270000D01*
X113620880Y-116651723D01*
X113526845Y-117144128D01*
X113299432Y-117539283D01*
X112950485Y-117827030D01*
X112491845Y-117997212D01*
X112020231Y-118039780D01*
X112020231Y-117868796D01*
X112445455Y-117825873D01*
X112829714Y-117709817D01*
X113129168Y-117528095D01*
X113269871Y-117356698D01*
X113416914Y-116949238D01*
X113472583Y-116486718D01*
X113434449Y-116037116D01*
X113328401Y-115719667D01*
X113109518Y-115447150D01*
X112815713Y-115290954D01*
X112669333Y-115278930D01*
X112669333Y-113384086D01*
X112753609Y-113376346D01*
X112690775Y-113320659D01*
X112669333Y-113306667D01*
X112477101Y-113238402D01*
X112373000Y-113229247D01*
X112252001Y-113237212D01*
X112286579Y-113268735D01*
X112373000Y-113306667D01*
X112570801Y-113369322D01*
X112669333Y-113384086D01*
X112669333Y-115278930D01*
X112492940Y-115264440D01*
X112187156Y-115380972D01*
X112180172Y-115385801D01*
X112029754Y-115579796D01*
X111992294Y-115831291D01*
X112052524Y-116089991D01*
X112195176Y-116305603D01*
X112404982Y-116427832D01*
X112500000Y-116439333D01*
X112637580Y-116474790D01*
X112669333Y-116524000D01*
X112596758Y-116681637D01*
X112419569Y-116831757D01*
X112198567Y-116930634D01*
X112126055Y-116940902D01*
X112126055Y-116775426D01*
X112288229Y-116751539D01*
X112382108Y-116694975D01*
X112364166Y-116636335D01*
X112339148Y-116625605D01*
X112201327Y-116640251D01*
X112101023Y-116684767D01*
X112001407Y-116752928D01*
X112059272Y-116773602D01*
X112126055Y-116775426D01*
X112126055Y-116940902D01*
X112080650Y-116947333D01*
X111724331Y-116886897D01*
X111396065Y-116728757D01*
X111226877Y-116579405D01*
X111123324Y-116485693D01*
X110992338Y-116465420D01*
X110771238Y-116510826D01*
X110740043Y-116519142D01*
X110523581Y-116590818D01*
X110396948Y-116658645D01*
X110383333Y-116680021D01*
X110442120Y-116853447D01*
X110593270Y-117088942D01*
X110798964Y-117340283D01*
X111021385Y-117561249D01*
X111222257Y-117705383D01*
X111597885Y-117831122D01*
X112020231Y-117868796D01*
X112020231Y-118039780D01*
X112000532Y-118041559D01*
X111442979Y-117958674D01*
X110974553Y-117733062D01*
X110602460Y-117369536D01*
X110364239Y-116948465D01*
X110217704Y-116604063D01*
X110113867Y-116388784D01*
X110027851Y-116276484D01*
X109934783Y-116241017D01*
X109809788Y-116256239D01*
X109723960Y-116275497D01*
X109496737Y-116305104D01*
X109367333Y-116257457D01*
X109367333Y-113984000D01*
X109437023Y-113953022D01*
X109423778Y-113927556D01*
X109323298Y-113917423D01*
X109310889Y-113927556D01*
X109322511Y-113977890D01*
X109367333Y-113984000D01*
X109367333Y-116257457D01*
X109350893Y-116251403D01*
X109278037Y-116179995D01*
X109120520Y-116053766D01*
X109003616Y-116016000D01*
X108830243Y-115960835D01*
X108759547Y-115909179D01*
X108602290Y-115798020D01*
X108403892Y-115694343D01*
X108251115Y-115606646D01*
X108208238Y-115538999D01*
X108211118Y-115535326D01*
X108174308Y-115470421D01*
X108023727Y-115361748D01*
X107904559Y-115293367D01*
X107687872Y-115155831D01*
X107547092Y-115025366D01*
X107521705Y-114977336D01*
X107573838Y-114863403D01*
X107573838Y-114863403D01*
G37*
X107573838Y-114863403D02*
X107731218Y-114723511D01*
X107941181Y-114592834D01*
X108151061Y-114506544D01*
X108250339Y-114490704D01*
X108344582Y-114476649D01*
X108280640Y-114418007D01*
X108268327Y-114410152D01*
X108214013Y-114344302D01*
X108291362Y-114273908D01*
X108417904Y-114215302D01*
X108583387Y-114125626D01*
X108640567Y-114051992D01*
X108634965Y-114041855D01*
X108651877Y-113993811D01*
X108723219Y-113984000D01*
X108823699Y-113949498D01*
X108821880Y-113907229D01*
X108849256Y-113864243D01*
X108946060Y-113875340D01*
X109148240Y-113844812D01*
X109278564Y-113734731D01*
X109410196Y-113615573D01*
X109557055Y-113592452D01*
X109742053Y-113632795D01*
X109945308Y-113676415D01*
X110031846Y-113652098D01*
X110044667Y-113596175D01*
X110087522Y-113487883D01*
X110120155Y-113476000D01*
X110192303Y-113403697D01*
X110252308Y-113243167D01*
X110422433Y-112843969D01*
X110707607Y-112475493D01*
X111056974Y-112202369D01*
X111081928Y-112188804D01*
X111520185Y-112037239D01*
X112040080Y-111981190D01*
X112584121Y-112019649D01*
X113094816Y-112151608D01*
X113270439Y-112227167D01*
X113630896Y-112371779D01*
X113968549Y-112451460D01*
X114085294Y-112460000D01*
X114405927Y-112489514D01*
X114729043Y-112561379D01*
X114754188Y-112569458D01*
X115106205Y-112653892D01*
X115335051Y-112628290D01*
X115447987Y-112490604D01*
X115463333Y-112369445D01*
X115491365Y-112186175D01*
X115594802Y-112123252D01*
X115632667Y-112121333D01*
X115755513Y-112082517D01*
X115799782Y-111936952D01*
X115802000Y-111861445D01*
X115820870Y-111681042D01*
X115901856Y-111623347D01*
X115992500Y-111628612D01*
X116079247Y-111651254D01*
X116137155Y-111710710D01*
X116174536Y-111838558D01*
X116199704Y-112066374D01*
X116220972Y-112425737D01*
X116225333Y-112513014D01*
X116267667Y-113370362D01*
X116740152Y-113754812D01*
X117136518Y-114108448D01*
X117384431Y-114416479D01*
X117489732Y-114703071D01*
X117458259Y-114992387D01*
X117295853Y-115308593D01*
X117160286Y-115493328D01*
X116925717Y-115764977D01*
X116675288Y-116017120D01*
X116525286Y-116145980D01*
X116225333Y-116374765D01*
X116225333Y-118302000D01*
X116013667Y-118302000D01*
X115852545Y-118267031D01*
X115802894Y-118129340D01*
X115802000Y-118090333D01*
X115762313Y-117924352D01*
X115632667Y-117878667D01*
X115547772Y-117851328D01*
X115547772Y-116496620D01*
X115811548Y-116436836D01*
X116050684Y-116298080D01*
X116349636Y-116068037D01*
X116662768Y-115787907D01*
X116944442Y-115498892D01*
X117149022Y-115242193D01*
X117168612Y-115211667D01*
X117292798Y-114963698D01*
X117318677Y-114747011D01*
X117235427Y-114527351D01*
X117032226Y-114270466D01*
X116796833Y-114034894D01*
X116267667Y-113530943D01*
X116238235Y-114201972D01*
X116219285Y-114541962D01*
X116187939Y-114760701D01*
X116127631Y-114906221D01*
X116021795Y-115026553D01*
X115924868Y-115110562D01*
X115640933Y-115348124D01*
X115456307Y-114983562D01*
X115140393Y-114432578D01*
X115015941Y-114253340D01*
X115015941Y-113560667D01*
X115101398Y-113490888D01*
X115133609Y-113320848D01*
X115117008Y-113109493D01*
X115056032Y-112915769D01*
X114958747Y-112800494D01*
X114775654Y-112736288D01*
X114507583Y-112678022D01*
X114387247Y-112659948D01*
X113981667Y-112608199D01*
X114444441Y-113084433D01*
X114676833Y-113310133D01*
X114874582Y-113478002D01*
X115001504Y-113557890D01*
X115015941Y-113560667D01*
X115015941Y-114253340D01*
X114759342Y-113883779D01*
X114339521Y-113366995D01*
X113907300Y-112912054D01*
X113489049Y-112548785D01*
X113111135Y-112307016D01*
X113075166Y-112290028D01*
X112627507Y-112156928D01*
X112128893Y-112121570D01*
X111630873Y-112178435D01*
X111184994Y-112322005D01*
X110864256Y-112526729D01*
X110729881Y-112682540D01*
X110599470Y-112886347D01*
X110496601Y-113091315D01*
X110444853Y-113250610D01*
X110466279Y-113317250D01*
X110602746Y-113340323D01*
X110766861Y-113387662D01*
X110886078Y-113427418D01*
X111070271Y-113448287D01*
X111220124Y-113338947D01*
X111243200Y-113311390D01*
X111449382Y-113172250D01*
X111763316Y-113089555D01*
X112131976Y-113066608D01*
X112502336Y-113106714D01*
X112821160Y-113213069D01*
X113187658Y-113461500D01*
X113567751Y-113843039D01*
X113967593Y-114365708D01*
X114393339Y-115037529D01*
X114839513Y-115844308D01*
X115070550Y-116215291D01*
X115300603Y-116429051D01*
X115547772Y-116496620D01*
X115547772Y-117851328D01*
X115508720Y-117838751D01*
X115465080Y-117690234D01*
X115463333Y-117624667D01*
X115436723Y-117438747D01*
X115337711Y-117373287D01*
X115294000Y-117370667D01*
X115191179Y-117347631D01*
X115140678Y-117250473D01*
X115125128Y-117037122D01*
X115124667Y-116960456D01*
X115099322Y-116649571D01*
X115005420Y-116445868D01*
X114816160Y-116328747D01*
X114504739Y-116277611D01*
X114226247Y-116270000D01*
X114046523Y-116270000D01*
X114046523Y-115327246D01*
X114264652Y-115320179D01*
X114361229Y-115301573D01*
X114362667Y-115298360D01*
X114321244Y-115204532D01*
X114216214Y-115021024D01*
X114149938Y-114913651D01*
X114010694Y-114712596D01*
X113880889Y-114613178D01*
X113692934Y-114579805D01*
X113510070Y-114576667D01*
X113082930Y-114576667D01*
X113135000Y-115296333D01*
X113748833Y-115321209D01*
X114046523Y-115327246D01*
X114046523Y-116270000D01*
X113637494Y-116270000D01*
X113620880Y-116651723D01*
X113526845Y-117144128D01*
X113299432Y-117539283D01*
X112950485Y-117827030D01*
X112491845Y-117997212D01*
X112020231Y-118039780D01*
X112020231Y-117868796D01*
X112445455Y-117825873D01*
X112829714Y-117709817D01*
X113129168Y-117528095D01*
X113269871Y-117356698D01*
X113416914Y-116949238D01*
X113472583Y-116486718D01*
X113434449Y-116037116D01*
X113328401Y-115719667D01*
X113109518Y-115447150D01*
X112815713Y-115290954D01*
X112669333Y-115278930D01*
X112669333Y-113384086D01*
X112753609Y-113376346D01*
X112690775Y-113320659D01*
X112669333Y-113306667D01*
X112477101Y-113238402D01*
X112373000Y-113229247D01*
X112252001Y-113237212D01*
X112286579Y-113268735D01*
X112373000Y-113306667D01*
X112570801Y-113369322D01*
X112669333Y-113384086D01*
X112669333Y-115278930D01*
X112492940Y-115264440D01*
X112187156Y-115380972D01*
X112180172Y-115385801D01*
X112029754Y-115579796D01*
X111992294Y-115831291D01*
X112052524Y-116089991D01*
X112195176Y-116305603D01*
X112404982Y-116427832D01*
X112500000Y-116439333D01*
X112637580Y-116474790D01*
X112669333Y-116524000D01*
X112596758Y-116681637D01*
X112419569Y-116831757D01*
X112198567Y-116930634D01*
X112126055Y-116940902D01*
X112126055Y-116775426D01*
X112288229Y-116751539D01*
X112382108Y-116694975D01*
X112364166Y-116636335D01*
X112339148Y-116625605D01*
X112201327Y-116640251D01*
X112101023Y-116684767D01*
X112001407Y-116752928D01*
X112059272Y-116773602D01*
X112126055Y-116775426D01*
X112126055Y-116940902D01*
X112080650Y-116947333D01*
X111724331Y-116886897D01*
X111396065Y-116728757D01*
X111226877Y-116579405D01*
X111123324Y-116485693D01*
X110992338Y-116465420D01*
X110771238Y-116510826D01*
X110740043Y-116519142D01*
X110523581Y-116590818D01*
X110396948Y-116658645D01*
X110383333Y-116680021D01*
X110442120Y-116853447D01*
X110593270Y-117088942D01*
X110798964Y-117340283D01*
X111021385Y-117561249D01*
X111222257Y-117705383D01*
X111597885Y-117831122D01*
X112020231Y-117868796D01*
X112020231Y-118039780D01*
X112000532Y-118041559D01*
X111442979Y-117958674D01*
X110974553Y-117733062D01*
X110602460Y-117369536D01*
X110364239Y-116948465D01*
X110217704Y-116604063D01*
X110113867Y-116388784D01*
X110027851Y-116276484D01*
X109934783Y-116241017D01*
X109809788Y-116256239D01*
X109723960Y-116275497D01*
X109496737Y-116305104D01*
X109367333Y-116257457D01*
X109367333Y-113984000D01*
X109437023Y-113953022D01*
X109423778Y-113927556D01*
X109323298Y-113917423D01*
X109310889Y-113927556D01*
X109322511Y-113977890D01*
X109367333Y-113984000D01*
X109367333Y-116257457D01*
X109350893Y-116251403D01*
X109278037Y-116179995D01*
X109120520Y-116053766D01*
X109003616Y-116016000D01*
X108830243Y-115960835D01*
X108759547Y-115909179D01*
X108602290Y-115798020D01*
X108403892Y-115694343D01*
X108251115Y-115606646D01*
X108208238Y-115538999D01*
X108211118Y-115535326D01*
X108174308Y-115470421D01*
X108023727Y-115361748D01*
X107904559Y-115293367D01*
X107687872Y-115155831D01*
X107547092Y-115025366D01*
X107521705Y-114977336D01*
X107573838Y-114863403D01*
D12*
X140501619Y-80867238D02*
X140454000Y-80962476D01*
X140358762Y-81057714D01*
X140215905Y-81200571D01*
X140168286Y-81295810D01*
X140168286Y-81391048D01*
X140406381Y-81343429D02*
X140358762Y-81438667D01*
X140263524Y-81533905D01*
X140073048Y-81581524D01*
X139739714Y-81581524D01*
X139549238Y-81533905D01*
X139454000Y-81438667D01*
X139406381Y-81343429D01*
X139406381Y-81152952D01*
X139454000Y-81057714D01*
X139549238Y-80962476D01*
X139739714Y-80914857D01*
X140073048Y-80914857D01*
X140263524Y-80962476D01*
X140358762Y-81057714D01*
X140406381Y-81152952D01*
X140406381Y-81343429D01*
X139406381Y-80010095D02*
X139406381Y-80486286D01*
X139882571Y-80533905D01*
X139834952Y-80486286D01*
X139787333Y-80391048D01*
X139787333Y-80152952D01*
X139834952Y-80057714D01*
X139882571Y-80010095D01*
X139977810Y-79962476D01*
X140215905Y-79962476D01*
X140311143Y-80010095D01*
X140358762Y-80057714D01*
X140406381Y-80152952D01*
X140406381Y-80391048D01*
X140358762Y-80486286D01*
X140311143Y-80533905D01*
D16*
X139152381Y-81457714D02*
X139961905Y-81457714D01*
X140057143Y-81414857D01*
X140104762Y-81372000D01*
X140152381Y-81286286D01*
X140152381Y-81114857D01*
X140104762Y-81029143D01*
X140057143Y-80986286D01*
X139961905Y-80943429D01*
X139152381Y-80943429D01*
X140152381Y-80043429D02*
X140152381Y-80557714D01*
X140152381Y-80300572D02*
X139152381Y-80300572D01*
X139295238Y-80386286D01*
X139390476Y-80472000D01*
X139438095Y-80557714D01*
X130262381Y-84093429D02*
X130262381Y-83579143D01*
X131262381Y-83836286D02*
X130262381Y-83836286D01*
X131214762Y-83322000D02*
X131262381Y-83193429D01*
X131262381Y-82979143D01*
X131214762Y-82893429D01*
X131167143Y-82850572D01*
X131071905Y-82807715D01*
X130976667Y-82807715D01*
X130881429Y-82850572D01*
X130833810Y-82893429D01*
X130786190Y-82979143D01*
X130738571Y-83150572D01*
X130690952Y-83236286D01*
X130643333Y-83279143D01*
X130548095Y-83322000D01*
X130452857Y-83322000D01*
X130357619Y-83279143D01*
X130310000Y-83236286D01*
X130262381Y-83150572D01*
X130262381Y-82936286D01*
X130310000Y-82807715D01*
X130262381Y-82250572D02*
X130262381Y-82079143D01*
X130310000Y-81993429D01*
X130405238Y-81907715D01*
X130595714Y-81864857D01*
X130929048Y-81864857D01*
X131119524Y-81907715D01*
X131214762Y-81993429D01*
X131262381Y-82079143D01*
X131262381Y-82250572D01*
X131214762Y-82336286D01*
X131119524Y-82422000D01*
X130929048Y-82464857D01*
X130595714Y-82464857D01*
X130405238Y-82422000D01*
X130310000Y-82336286D01*
X130262381Y-82250572D01*
X131262381Y-81479143D02*
X130262381Y-81479143D01*
X130262381Y-81136286D01*
X130310000Y-81050572D01*
X130357619Y-81007715D01*
X130452857Y-80964858D01*
X130595714Y-80964858D01*
X130690952Y-81007715D01*
X130738571Y-81050572D01*
X130786190Y-81136286D01*
X130786190Y-81479143D01*
X130595714Y-80193429D02*
X131262381Y-80193429D01*
X130214762Y-80407715D02*
X130929048Y-80622000D01*
X130929048Y-80064858D01*
X130690952Y-79593429D02*
X130643333Y-79679143D01*
X130595714Y-79722000D01*
X130500476Y-79764857D01*
X130452857Y-79764857D01*
X130357619Y-79722000D01*
X130310000Y-79679143D01*
X130262381Y-79593429D01*
X130262381Y-79422000D01*
X130310000Y-79336286D01*
X130357619Y-79293429D01*
X130452857Y-79250572D01*
X130500476Y-79250572D01*
X130595714Y-79293429D01*
X130643333Y-79336286D01*
X130690952Y-79422000D01*
X130690952Y-79593429D01*
X130738571Y-79679143D01*
X130786190Y-79722000D01*
X130881429Y-79764857D01*
X131071905Y-79764857D01*
X131167143Y-79722000D01*
X131214762Y-79679143D01*
X131262381Y-79593429D01*
X131262381Y-79422000D01*
X131214762Y-79336286D01*
X131167143Y-79293429D01*
X131071905Y-79250572D01*
X130881429Y-79250572D01*
X130786190Y-79293429D01*
X130738571Y-79336286D01*
X130690952Y-79422000D01*
X130262381Y-78950572D02*
X130262381Y-78393429D01*
X130643333Y-78693429D01*
X130643333Y-78564857D01*
X130690952Y-78479143D01*
X130738571Y-78436286D01*
X130833810Y-78393429D01*
X131071905Y-78393429D01*
X131167143Y-78436286D01*
X131214762Y-78479143D01*
X131262381Y-78564857D01*
X131262381Y-78822000D01*
X131214762Y-78907714D01*
X131167143Y-78950572D01*
X130690952Y-77879143D02*
X130643333Y-77964857D01*
X130595714Y-78007714D01*
X130500476Y-78050571D01*
X130452857Y-78050571D01*
X130357619Y-78007714D01*
X130310000Y-77964857D01*
X130262381Y-77879143D01*
X130262381Y-77707714D01*
X130310000Y-77622000D01*
X130357619Y-77579143D01*
X130452857Y-77536286D01*
X130500476Y-77536286D01*
X130595714Y-77579143D01*
X130643333Y-77622000D01*
X130690952Y-77707714D01*
X130690952Y-77879143D01*
X130738571Y-77964857D01*
X130786190Y-78007714D01*
X130881429Y-78050571D01*
X131071905Y-78050571D01*
X131167143Y-78007714D01*
X131214762Y-77964857D01*
X131262381Y-77879143D01*
X131262381Y-77707714D01*
X131214762Y-77622000D01*
X131167143Y-77579143D01*
X131071905Y-77536286D01*
X130881429Y-77536286D01*
X130786190Y-77579143D01*
X130738571Y-77622000D01*
X130690952Y-77707714D01*
D12*
X127960381Y-80875095D02*
X126960381Y-80875095D01*
X126960381Y-80637000D01*
X127008000Y-80494142D01*
X127103238Y-80398904D01*
X127198476Y-80351285D01*
X127388952Y-80303666D01*
X127531810Y-80303666D01*
X127722286Y-80351285D01*
X127817524Y-80398904D01*
X127912762Y-80494142D01*
X127960381Y-80637000D01*
X127960381Y-80875095D01*
X127293714Y-79446523D02*
X127960381Y-79446523D01*
X126912762Y-79684619D02*
X127627048Y-79922714D01*
X127627048Y-79303666D01*
X127960381Y-78874905D02*
X126960381Y-78874905D01*
X127960381Y-78303476D02*
X127388952Y-78732048D01*
X126960381Y-78303476D02*
X127531810Y-78874905D01*
X138072905Y-108529381D02*
X138072905Y-107529381D01*
X138311000Y-107529381D01*
X138453858Y-107577000D01*
X138549096Y-107672238D01*
X138596715Y-107767476D01*
X138644334Y-107957952D01*
X138644334Y-108100810D01*
X138596715Y-108291286D01*
X138549096Y-108386524D01*
X138453858Y-108481762D01*
X138311000Y-108529381D01*
X138072905Y-108529381D01*
X139596715Y-108529381D02*
X139025286Y-108529381D01*
X139311000Y-108529381D02*
X139311000Y-107529381D01*
X139215762Y-107672238D01*
X139120524Y-107767476D01*
X139025286Y-107815095D01*
X139819095Y-108529381D02*
X139819095Y-107529381D01*
X140390524Y-108529381D02*
X139961952Y-107957952D01*
X140390524Y-107529381D02*
X139819095Y-108100810D01*
X129571762Y-92114619D02*
X129476524Y-92067000D01*
X129381286Y-91971762D01*
X129238429Y-91828905D01*
X129143190Y-91781286D01*
X129047952Y-91781286D01*
X129095571Y-92019381D02*
X129000333Y-91971762D01*
X128905095Y-91876524D01*
X128857476Y-91686048D01*
X128857476Y-91352714D01*
X128905095Y-91162238D01*
X129000333Y-91067000D01*
X129095571Y-91019381D01*
X129286048Y-91019381D01*
X129381286Y-91067000D01*
X129476524Y-91162238D01*
X129524143Y-91352714D01*
X129524143Y-91686048D01*
X129476524Y-91876524D01*
X129381286Y-91971762D01*
X129286048Y-92019381D01*
X129095571Y-92019381D01*
X129857476Y-91019381D02*
X130476524Y-91019381D01*
X130143190Y-91400333D01*
X130286048Y-91400333D01*
X130381286Y-91447952D01*
X130428905Y-91495571D01*
X130476524Y-91590810D01*
X130476524Y-91828905D01*
X130428905Y-91924143D01*
X130381286Y-91971762D01*
X130286048Y-92019381D01*
X130000333Y-92019381D01*
X129905095Y-91971762D01*
X129857476Y-91924143D01*
X129571762Y-98464619D02*
X129476524Y-98417000D01*
X129381286Y-98321762D01*
X129238429Y-98178905D01*
X129143190Y-98131286D01*
X129047952Y-98131286D01*
X129095571Y-98369381D02*
X129000333Y-98321762D01*
X128905095Y-98226524D01*
X128857476Y-98036048D01*
X128857476Y-97702714D01*
X128905095Y-97512238D01*
X129000333Y-97417000D01*
X129095571Y-97369381D01*
X129286048Y-97369381D01*
X129381286Y-97417000D01*
X129476524Y-97512238D01*
X129524143Y-97702714D01*
X129524143Y-98036048D01*
X129476524Y-98226524D01*
X129381286Y-98321762D01*
X129286048Y-98369381D01*
X129095571Y-98369381D01*
X129905095Y-97464619D02*
X129952714Y-97417000D01*
X130047952Y-97369381D01*
X130286048Y-97369381D01*
X130381286Y-97417000D01*
X130428905Y-97464619D01*
X130476524Y-97559857D01*
X130476524Y-97655095D01*
X130428905Y-97797952D01*
X129857476Y-98369381D01*
X130476524Y-98369381D01*
X129698762Y-104687619D02*
X129603524Y-104640000D01*
X129508286Y-104544762D01*
X129365429Y-104401905D01*
X129270190Y-104354286D01*
X129174952Y-104354286D01*
X129222571Y-104592381D02*
X129127333Y-104544762D01*
X129032095Y-104449524D01*
X128984476Y-104259048D01*
X128984476Y-103925714D01*
X129032095Y-103735238D01*
X129127333Y-103640000D01*
X129222571Y-103592381D01*
X129413048Y-103592381D01*
X129508286Y-103640000D01*
X129603524Y-103735238D01*
X129651143Y-103925714D01*
X129651143Y-104259048D01*
X129603524Y-104449524D01*
X129508286Y-104544762D01*
X129413048Y-104592381D01*
X129222571Y-104592381D01*
X130603524Y-104592381D02*
X130032095Y-104592381D01*
X130317809Y-104592381D02*
X130317809Y-103592381D01*
X130222571Y-103735238D01*
X130127333Y-103830476D01*
X130032095Y-103878095D01*
D16*
X123650714Y-119054619D02*
X123698333Y-119007000D01*
X123793571Y-118959381D01*
X124031667Y-118959381D01*
X124126905Y-119007000D01*
X124174524Y-119054619D01*
X124222143Y-119149857D01*
X124222143Y-119245095D01*
X124174524Y-119387952D01*
X123603095Y-119959381D01*
X124222143Y-119959381D01*
X124650714Y-119959381D02*
X124650714Y-118959381D01*
X125222143Y-119959381D01*
X125222143Y-118959381D01*
X125603095Y-118959381D02*
X126222143Y-118959381D01*
X125888809Y-119340333D01*
X126031667Y-119340333D01*
X126126905Y-119387952D01*
X126174524Y-119435571D01*
X126222143Y-119530810D01*
X126222143Y-119768905D01*
X126174524Y-119864143D01*
X126126905Y-119911762D01*
X126031667Y-119959381D01*
X125745952Y-119959381D01*
X125650714Y-119911762D01*
X125603095Y-119864143D01*
X126698333Y-119959381D02*
X126888809Y-119959381D01*
X126984048Y-119911762D01*
X127031667Y-119864143D01*
X127126905Y-119721286D01*
X127174524Y-119530810D01*
X127174524Y-119149857D01*
X127126905Y-119054619D01*
X127079286Y-119007000D01*
X126984048Y-118959381D01*
X126793571Y-118959381D01*
X126698333Y-119007000D01*
X126650714Y-119054619D01*
X126603095Y-119149857D01*
X126603095Y-119387952D01*
X126650714Y-119483190D01*
X126698333Y-119530810D01*
X126793571Y-119578429D01*
X126984048Y-119578429D01*
X127079286Y-119530810D01*
X127126905Y-119483190D01*
X127174524Y-119387952D01*
X127793571Y-118959381D02*
X127888810Y-118959381D01*
X127984048Y-119007000D01*
X128031667Y-119054619D01*
X128079286Y-119149857D01*
X128126905Y-119340333D01*
X128126905Y-119578429D01*
X128079286Y-119768905D01*
X128031667Y-119864143D01*
X127984048Y-119911762D01*
X127888810Y-119959381D01*
X127793571Y-119959381D01*
X127698333Y-119911762D01*
X127650714Y-119864143D01*
X127603095Y-119768905D01*
X127555476Y-119578429D01*
X127555476Y-119340333D01*
X127603095Y-119149857D01*
X127650714Y-119054619D01*
X127698333Y-119007000D01*
X127793571Y-118959381D01*
X128984048Y-119292714D02*
X128984048Y-119959381D01*
X128745952Y-118911762D02*
X128507857Y-119626048D01*
X129126905Y-119626048D01*
D12*
X122769334Y-115260381D02*
X122436000Y-114784190D01*
X122197905Y-115260381D02*
X122197905Y-114260381D01*
X122578858Y-114260381D01*
X122674096Y-114308000D01*
X122721715Y-114355619D01*
X122769334Y-114450857D01*
X122769334Y-114593714D01*
X122721715Y-114688952D01*
X122674096Y-114736571D01*
X122578858Y-114784190D01*
X122197905Y-114784190D01*
X123674096Y-114260381D02*
X123197905Y-114260381D01*
X123150286Y-114736571D01*
X123197905Y-114688952D01*
X123293143Y-114641333D01*
X123531239Y-114641333D01*
X123626477Y-114688952D01*
X123674096Y-114736571D01*
X123721715Y-114831810D01*
X123721715Y-115069905D01*
X123674096Y-115165143D01*
X123626477Y-115212762D01*
X123531239Y-115260381D01*
X123293143Y-115260381D01*
X123197905Y-115212762D01*
X123150286Y-115165143D01*
X147978905Y-119705381D02*
X147978905Y-118705381D01*
X148217000Y-118705381D01*
X148359858Y-118753000D01*
X148455096Y-118848238D01*
X148502715Y-118943476D01*
X148550334Y-119133952D01*
X148550334Y-119276810D01*
X148502715Y-119467286D01*
X148455096Y-119562524D01*
X148359858Y-119657762D01*
X148217000Y-119705381D01*
X147978905Y-119705381D01*
X148883667Y-118705381D02*
X149502715Y-118705381D01*
X149169381Y-119086333D01*
X149312239Y-119086333D01*
X149407477Y-119133952D01*
X149455096Y-119181571D01*
X149502715Y-119276810D01*
X149502715Y-119514905D01*
X149455096Y-119610143D01*
X149407477Y-119657762D01*
X149312239Y-119705381D01*
X149026524Y-119705381D01*
X148931286Y-119657762D01*
X148883667Y-119610143D01*
X149852095Y-119705381D02*
X149852095Y-118705381D01*
X150423524Y-119705381D02*
X149994952Y-119133952D01*
X150423524Y-118705381D02*
X149852095Y-119276810D01*
X147343905Y-124150381D02*
X147343905Y-123150381D01*
X147582000Y-123150381D01*
X147724858Y-123198000D01*
X147820096Y-123293238D01*
X147867715Y-123388476D01*
X147915334Y-123578952D01*
X147915334Y-123721810D01*
X147867715Y-123912286D01*
X147820096Y-124007524D01*
X147724858Y-124102762D01*
X147582000Y-124150381D01*
X147343905Y-124150381D01*
X148296286Y-123245619D02*
X148343905Y-123198000D01*
X148439143Y-123150381D01*
X148677239Y-123150381D01*
X148772477Y-123198000D01*
X148820096Y-123245619D01*
X148867715Y-123340857D01*
X148867715Y-123436095D01*
X148820096Y-123578952D01*
X148248667Y-124150381D01*
X148867715Y-124150381D01*
X149217095Y-124150381D02*
X149217095Y-123150381D01*
X149788524Y-124150381D02*
X149359952Y-123578952D01*
X149788524Y-123150381D02*
X149217095Y-123721810D01*
X148931334Y-84939143D02*
X148883715Y-84986762D01*
X148740858Y-85034381D01*
X148645620Y-85034381D01*
X148502762Y-84986762D01*
X148407524Y-84891524D01*
X148359905Y-84796286D01*
X148312286Y-84605810D01*
X148312286Y-84462952D01*
X148359905Y-84272476D01*
X148407524Y-84177238D01*
X148502762Y-84082000D01*
X148645620Y-84034381D01*
X148740858Y-84034381D01*
X148883715Y-84082000D01*
X148931334Y-84129619D01*
X149883715Y-85034381D02*
X149312286Y-85034381D01*
X149598000Y-85034381D02*
X149598000Y-84034381D01*
X149502762Y-84177238D01*
X149407524Y-84272476D01*
X149312286Y-84320095D01*
X146708905Y-108656381D02*
X146708905Y-107656381D01*
X147089858Y-107656381D01*
X147185096Y-107704000D01*
X147232715Y-107751619D01*
X147280334Y-107846857D01*
X147280334Y-107989714D01*
X147232715Y-108084952D01*
X147185096Y-108132571D01*
X147089858Y-108180190D01*
X146708905Y-108180190D01*
X148232715Y-108656381D02*
X147661286Y-108656381D01*
X147947000Y-108656381D02*
X147947000Y-107656381D01*
X147851762Y-107799238D01*
X147756524Y-107894476D01*
X147661286Y-107942095D01*
X108100905Y-90114381D02*
X108100905Y-89114381D01*
X108481858Y-89114381D01*
X108577096Y-89162000D01*
X108624715Y-89209619D01*
X108672334Y-89304857D01*
X108672334Y-89447714D01*
X108624715Y-89542952D01*
X108577096Y-89590571D01*
X108481858Y-89638190D01*
X108100905Y-89638190D01*
X109053286Y-89209619D02*
X109100905Y-89162000D01*
X109196143Y-89114381D01*
X109434239Y-89114381D01*
X109529477Y-89162000D01*
X109577096Y-89209619D01*
X109624715Y-89304857D01*
X109624715Y-89400095D01*
X109577096Y-89542952D01*
X109005667Y-90114381D01*
X109624715Y-90114381D01*
X111656905Y-89987381D02*
X111656905Y-88987381D01*
X112037858Y-88987381D01*
X112133096Y-89035000D01*
X112180715Y-89082619D01*
X112228334Y-89177857D01*
X112228334Y-89320714D01*
X112180715Y-89415952D01*
X112133096Y-89463571D01*
X112037858Y-89511190D01*
X111656905Y-89511190D01*
X112561667Y-88987381D02*
X113180715Y-88987381D01*
X112847381Y-89368333D01*
X112990239Y-89368333D01*
X113085477Y-89415952D01*
X113133096Y-89463571D01*
X113180715Y-89558810D01*
X113180715Y-89796905D01*
X113133096Y-89892143D01*
X113085477Y-89939762D01*
X112990239Y-89987381D01*
X112704524Y-89987381D01*
X112609286Y-89939762D01*
X112561667Y-89892143D01*
X107973905Y-109418381D02*
X107973905Y-108418381D01*
X108354858Y-108418381D01*
X108450096Y-108466000D01*
X108497715Y-108513619D01*
X108545334Y-108608857D01*
X108545334Y-108751714D01*
X108497715Y-108846952D01*
X108450096Y-108894571D01*
X108354858Y-108942190D01*
X107973905Y-108942190D01*
X109402477Y-108751714D02*
X109402477Y-109418381D01*
X109164381Y-108370762D02*
X108926286Y-109085048D01*
X109545334Y-109085048D01*
X140930334Y-102560381D02*
X140597000Y-102084190D01*
X140358905Y-102560381D02*
X140358905Y-101560381D01*
X140739858Y-101560381D01*
X140835096Y-101608000D01*
X140882715Y-101655619D01*
X140930334Y-101750857D01*
X140930334Y-101893714D01*
X140882715Y-101988952D01*
X140835096Y-102036571D01*
X140739858Y-102084190D01*
X140358905Y-102084190D01*
X141882715Y-102560381D02*
X141311286Y-102560381D01*
X141597000Y-102560381D02*
X141597000Y-101560381D01*
X141501762Y-101703238D01*
X141406524Y-101798476D01*
X141311286Y-101846095D01*
X140803334Y-98750381D02*
X140470000Y-98274190D01*
X140231905Y-98750381D02*
X140231905Y-97750381D01*
X140612858Y-97750381D01*
X140708096Y-97798000D01*
X140755715Y-97845619D01*
X140803334Y-97940857D01*
X140803334Y-98083714D01*
X140755715Y-98178952D01*
X140708096Y-98226571D01*
X140612858Y-98274190D01*
X140231905Y-98274190D01*
X141184286Y-97845619D02*
X141231905Y-97798000D01*
X141327143Y-97750381D01*
X141565239Y-97750381D01*
X141660477Y-97798000D01*
X141708096Y-97845619D01*
X141755715Y-97940857D01*
X141755715Y-98036095D01*
X141708096Y-98178952D01*
X141136667Y-98750381D01*
X141755715Y-98750381D01*
X141057334Y-94940381D02*
X140724000Y-94464190D01*
X140485905Y-94940381D02*
X140485905Y-93940381D01*
X140866858Y-93940381D01*
X140962096Y-93988000D01*
X141009715Y-94035619D01*
X141057334Y-94130857D01*
X141057334Y-94273714D01*
X141009715Y-94368952D01*
X140962096Y-94416571D01*
X140866858Y-94464190D01*
X140485905Y-94464190D01*
X141390667Y-93940381D02*
X142009715Y-93940381D01*
X141676381Y-94321333D01*
X141819239Y-94321333D01*
X141914477Y-94368952D01*
X141962096Y-94416571D01*
X142009715Y-94511810D01*
X142009715Y-94749905D01*
X141962096Y-94845143D01*
X141914477Y-94892762D01*
X141819239Y-94940381D01*
X141533524Y-94940381D01*
X141438286Y-94892762D01*
X141390667Y-94845143D01*
X137120334Y-114625381D02*
X136787000Y-114149190D01*
X136548905Y-114625381D02*
X136548905Y-113625381D01*
X136929858Y-113625381D01*
X137025096Y-113673000D01*
X137072715Y-113720619D01*
X137120334Y-113815857D01*
X137120334Y-113958714D01*
X137072715Y-114053952D01*
X137025096Y-114101571D01*
X136929858Y-114149190D01*
X136548905Y-114149190D01*
X137977477Y-113958714D02*
X137977477Y-114625381D01*
X137739381Y-113577762D02*
X137501286Y-114292048D01*
X138120334Y-114292048D01*
X137120334Y-123515381D02*
X136787000Y-123039190D01*
X136548905Y-123515381D02*
X136548905Y-122515381D01*
X136929858Y-122515381D01*
X137025096Y-122563000D01*
X137072715Y-122610619D01*
X137120334Y-122705857D01*
X137120334Y-122848714D01*
X137072715Y-122943952D01*
X137025096Y-122991571D01*
X136929858Y-123039190D01*
X136548905Y-123039190D01*
X137977477Y-122515381D02*
X137787000Y-122515381D01*
X137691762Y-122563000D01*
X137644143Y-122610619D01*
X137548905Y-122753476D01*
X137501286Y-122943952D01*
X137501286Y-123324905D01*
X137548905Y-123420143D01*
X137596524Y-123467762D01*
X137691762Y-123515381D01*
X137882239Y-123515381D01*
X137977477Y-123467762D01*
X138025096Y-123420143D01*
X138072715Y-123324905D01*
X138072715Y-123086810D01*
X138025096Y-122991571D01*
X137977477Y-122943952D01*
X137882239Y-122896333D01*
X137691762Y-122896333D01*
X137596524Y-122943952D01*
X137548905Y-122991571D01*
X137501286Y-123086810D01*
X137120334Y-118435381D02*
X136787000Y-117959190D01*
X136548905Y-118435381D02*
X136548905Y-117435381D01*
X136929858Y-117435381D01*
X137025096Y-117483000D01*
X137072715Y-117530619D01*
X137120334Y-117625857D01*
X137120334Y-117768714D01*
X137072715Y-117863952D01*
X137025096Y-117911571D01*
X136929858Y-117959190D01*
X136548905Y-117959190D01*
X137453667Y-117435381D02*
X138120334Y-117435381D01*
X137691762Y-118435381D01*
X146518334Y-88844381D02*
X146185000Y-88368190D01*
X145946905Y-88844381D02*
X145946905Y-87844381D01*
X146327858Y-87844381D01*
X146423096Y-87892000D01*
X146470715Y-87939619D01*
X146518334Y-88034857D01*
X146518334Y-88177714D01*
X146470715Y-88272952D01*
X146423096Y-88320571D01*
X146327858Y-88368190D01*
X145946905Y-88368190D01*
X147089762Y-88272952D02*
X146994524Y-88225333D01*
X146946905Y-88177714D01*
X146899286Y-88082476D01*
X146899286Y-88034857D01*
X146946905Y-87939619D01*
X146994524Y-87892000D01*
X147089762Y-87844381D01*
X147280239Y-87844381D01*
X147375477Y-87892000D01*
X147423096Y-87939619D01*
X147470715Y-88034857D01*
X147470715Y-88082476D01*
X147423096Y-88177714D01*
X147375477Y-88225333D01*
X147280239Y-88272952D01*
X147089762Y-88272952D01*
X146994524Y-88320571D01*
X146946905Y-88368190D01*
X146899286Y-88463429D01*
X146899286Y-88653905D01*
X146946905Y-88749143D01*
X146994524Y-88796762D01*
X147089762Y-88844381D01*
X147280239Y-88844381D01*
X147375477Y-88796762D01*
X147423096Y-88749143D01*
X147470715Y-88653905D01*
X147470715Y-88463429D01*
X147423096Y-88368190D01*
X147375477Y-88320571D01*
X147280239Y-88272952D01*
X133310334Y-88844381D02*
X132977000Y-88368190D01*
X132738905Y-88844381D02*
X132738905Y-87844381D01*
X133119858Y-87844381D01*
X133215096Y-87892000D01*
X133262715Y-87939619D01*
X133310334Y-88034857D01*
X133310334Y-88177714D01*
X133262715Y-88272952D01*
X133215096Y-88320571D01*
X133119858Y-88368190D01*
X132738905Y-88368190D01*
X133786524Y-88844381D02*
X133977000Y-88844381D01*
X134072239Y-88796762D01*
X134119858Y-88749143D01*
X134215096Y-88606286D01*
X134262715Y-88415810D01*
X134262715Y-88034857D01*
X134215096Y-87939619D01*
X134167477Y-87892000D01*
X134072239Y-87844381D01*
X133881762Y-87844381D01*
X133786524Y-87892000D01*
X133738905Y-87939619D01*
X133691286Y-88034857D01*
X133691286Y-88272952D01*
X133738905Y-88368190D01*
X133786524Y-88415810D01*
X133881762Y-88463429D01*
X134072239Y-88463429D01*
X134167477Y-88415810D01*
X134215096Y-88368190D01*
X134262715Y-88272952D01*
M02*
