<?xml version="1.0" standalone="no"?>
 <!DOCTYPE svg PUBLIC "-//W3C//DTD SVG 1.1//EN" 
 "http://www.w3.org/Graphics/SVG/1.1/DTD/svg11.dtd"> 
<svg xmlns="http://www.w3.org/2000/svg" version="1.1" 
    width="29.7002cm" height="21.0007cm" viewBox="0 0 116930 82680 ">
<title>SVG Picture created as Basic PCB class-F.SilkS.svg date 2017/01/03 15:27:20 </title>
  <desc>Picture generated by PCBNEW </desc>
<g style="fill:#000000; fill-opacity:1;stroke:#000000; stroke-opacity:1;
stroke-linecap:round; stroke-linejoin:round; "
 transform="translate(0 0) scale(1 1)">
</g>
<g style="fill:#000000; fill-opacity:0.0; 
stroke:#000000; stroke-width:-0.000393701; stroke-opacity:1; 
stroke-linecap:round; stroke-linejoin:round;">
</g>
<g style="fill:#000000; fill-opacity:0.0; 
stroke:#000000; stroke-width:39.3701; stroke-opacity:1; 
stroke-linecap:round; stroke-linejoin:round;">
</g>
<g style="fill:#000000; fill-opacity:0.0; 
stroke:#000000; stroke-width:59.0551; stroke-opacity:1; 
stroke-linecap:round; stroke-linejoin:round;">
<rect x="69685.9" y="65357.2" width="42519.7" height="12598.4" rx="0" />
</g>
<g style="fill:#000000; fill-opacity:0.0; 
stroke:#000000; stroke-width:39.3701; stroke-opacity:1; 
stroke-linecap:round; stroke-linejoin:round;">
</g>
<g style="fill:#000000; fill-opacity:0.0; 
stroke:#000000; stroke-width:59.0551; stroke-opacity:1; 
stroke-linecap:round; stroke-linejoin:round;">
<rect x="3937.01" y="3937.01" width="109056" height="74806" rx="0" />
</g>
<g style="fill:#000000; fill-opacity:0.0; 
stroke:#000000; stroke-width:39.3701; stroke-opacity:1; 
stroke-linecap:round; stroke-linejoin:round;">
</g>
<g style="fill:#000000; fill-opacity:0.0; 
stroke:#000000; stroke-width:59.0551; stroke-opacity:1; 
stroke-linecap:round; stroke-linejoin:round;">
<rect x="4724.41" y="4724.41" width="107481" height="73231.2" rx="0" />
</g>
<g style="fill:#000000; fill-opacity:0.0; 
stroke:#000000; stroke-width:39.3701; stroke-opacity:1; 
stroke-linecap:round; stroke-linejoin:round;">
</g>
<g style="fill:#000000; fill-opacity:0.0; 
stroke:#000000; stroke-width:59.0551; stroke-opacity:1; 
stroke-linecap:round; stroke-linejoin:round;">
<path d="M23622 4724
L23622 3937
" />
</g>
<g style="fill:#000000; fill-opacity:0.0; 
stroke:#000000; stroke-width:39.3701; stroke-opacity:1; 
stroke-linecap:round; stroke-linejoin:round;">
</g>
<g style="fill:#000000; fill-opacity:0.0; 
stroke:#000000; stroke-width:59.0551; stroke-opacity:1; 
stroke-linecap:round; stroke-linejoin:round;">
<path d="M43307 4724
L43307 3937
" />
</g>
<g style="fill:#000000; fill-opacity:0.0; 
stroke:#000000; stroke-width:39.3701; stroke-opacity:1; 
stroke-linecap:round; stroke-linejoin:round;">
</g>
<g style="fill:#000000; fill-opacity:0.0; 
stroke:#000000; stroke-width:59.0551; stroke-opacity:1; 
stroke-linecap:round; stroke-linejoin:round;">
<path d="M62992 4724
L62992 3937
" />
</g>
<g style="fill:#000000; fill-opacity:0.0; 
stroke:#000000; stroke-width:39.3701; stroke-opacity:1; 
stroke-linecap:round; stroke-linejoin:round;">
</g>
<g style="fill:#000000; fill-opacity:0.0; 
stroke:#000000; stroke-width:59.0551; stroke-opacity:1; 
stroke-linecap:round; stroke-linejoin:round;">
<path d="M82677 4724
L82677 3937
" />
</g>
<g style="fill:#000000; fill-opacity:0.0; 
stroke:#000000; stroke-width:39.3701; stroke-opacity:1; 
stroke-linecap:round; stroke-linejoin:round;">
</g>
<g style="fill:#000000; fill-opacity:0.0; 
stroke:#000000; stroke-width:59.0551; stroke-opacity:1; 
stroke-linecap:round; stroke-linejoin:round;">
<path d="M102362 4724
L102362 3937
" />
</g>
<g style="fill:#000000; fill-opacity:0.0; 
stroke:#000000; stroke-width:39.3701; stroke-opacity:1; 
stroke-linecap:round; stroke-linejoin:round;">
</g>
<g style="fill:#000000; fill-opacity:0.0; 
stroke:#000000; stroke-width:59.0551; stroke-opacity:1; 
stroke-linecap:round; stroke-linejoin:round;">
<path d="M14169 4562
L13877 4562
" />
<path d="M14023 4562
L14023 4050
L13974 4123
L13925 4172
L13877 4196
" />
</g>
<g style="fill:#000000; fill-opacity:0.0; 
stroke:#000000; stroke-width:39.3701; stroke-opacity:1; 
stroke-linecap:round; stroke-linejoin:round;">
</g>
<g style="fill:#000000; fill-opacity:0.0; 
stroke:#000000; stroke-width:59.0551; stroke-opacity:1; 
stroke-linecap:round; stroke-linejoin:round;">
<path d="M33562 4099
L33586 4074
L33635 4050
L33757 4050
L33805 4074
L33830 4099
L33854 4147
L33854 4196
L33830 4269
L33537 4562
L33854 4562
" />
</g>
<g style="fill:#000000; fill-opacity:0.0; 
stroke:#000000; stroke-width:39.3701; stroke-opacity:1; 
stroke-linecap:round; stroke-linejoin:round;">
</g>
<g style="fill:#000000; fill-opacity:0.0; 
stroke:#000000; stroke-width:59.0551; stroke-opacity:1; 
stroke-linecap:round; stroke-linejoin:round;">
<path d="M53222 4050
L53539 4050
L53368 4245
L53442 4245
L53490 4269
L53515 4294
L53539 4342
L53539 4464
L53515 4513
L53490 4537
L53442 4562
L53295 4562
L53247 4537
L53222 4513
" />
</g>
<g style="fill:#000000; fill-opacity:0.0; 
stroke:#000000; stroke-width:39.3701; stroke-opacity:1; 
stroke-linecap:round; stroke-linejoin:round;">
</g>
<g style="fill:#000000; fill-opacity:0.0; 
stroke:#000000; stroke-width:59.0551; stroke-opacity:1; 
stroke-linecap:round; stroke-linejoin:round;">
<path d="M73175 4221
L73175 4562
" />
<path d="M73053 4026
L72932 4391
L73248 4391
" />
</g>
<g style="fill:#000000; fill-opacity:0.0; 
stroke:#000000; stroke-width:39.3701; stroke-opacity:1; 
stroke-linecap:round; stroke-linejoin:round;">
</g>
<g style="fill:#000000; fill-opacity:0.0; 
stroke:#000000; stroke-width:59.0551; stroke-opacity:1; 
stroke-linecap:round; stroke-linejoin:round;">
<path d="M92885 4050
L92641 4050
L92617 4294
L92641 4269
L92690 4245
L92812 4245
L92860 4269
L92885 4294
L92909 4342
L92909 4464
L92885 4513
L92860 4537
L92812 4562
L92690 4562
L92641 4537
L92617 4513
" />
</g>
<g style="fill:#000000; fill-opacity:0.0; 
stroke:#000000; stroke-width:39.3701; stroke-opacity:1; 
stroke-linecap:round; stroke-linejoin:round;">
</g>
<g style="fill:#000000; fill-opacity:0.0; 
stroke:#000000; stroke-width:59.0551; stroke-opacity:1; 
stroke-linecap:round; stroke-linejoin:round;">
<path d="M112545 4050
L112448 4050
L112399 4074
L112375 4099
L112326 4172
L112302 4269
L112302 4464
L112326 4513
L112350 4537
L112399 4562
L112497 4562
L112545 4537
L112570 4513
L112594 4464
L112594 4342
L112570 4294
L112545 4269
L112497 4245
L112399 4245
L112350 4269
L112326 4294
L112302 4342
" />
</g>
<g style="fill:#000000; fill-opacity:0.0; 
stroke:#000000; stroke-width:39.3701; stroke-opacity:1; 
stroke-linecap:round; stroke-linejoin:round;">
</g>
<g style="fill:#000000; fill-opacity:0.0; 
stroke:#000000; stroke-width:59.0551; stroke-opacity:1; 
stroke-linecap:round; stroke-linejoin:round;">
<path d="M23622 77955
L23622 78742
" />
</g>
<g style="fill:#000000; fill-opacity:0.0; 
stroke:#000000; stroke-width:39.3701; stroke-opacity:1; 
stroke-linecap:round; stroke-linejoin:round;">
</g>
<g style="fill:#000000; fill-opacity:0.0; 
stroke:#000000; stroke-width:59.0551; stroke-opacity:1; 
stroke-linecap:round; stroke-linejoin:round;">
<path d="M43307 77955
L43307 78742
" />
</g>
<g style="fill:#000000; fill-opacity:0.0; 
stroke:#000000; stroke-width:39.3701; stroke-opacity:1; 
stroke-linecap:round; stroke-linejoin:round;">
</g>
<g style="fill:#000000; fill-opacity:0.0; 
stroke:#000000; stroke-width:59.0551; stroke-opacity:1; 
stroke-linecap:round; stroke-linejoin:round;">
<path d="M62992 77955
L62992 78742
" />
</g>
<g style="fill:#000000; fill-opacity:0.0; 
stroke:#000000; stroke-width:39.3701; stroke-opacity:1; 
stroke-linecap:round; stroke-linejoin:round;">
</g>
<g style="fill:#000000; fill-opacity:0.0; 
stroke:#000000; stroke-width:59.0551; stroke-opacity:1; 
stroke-linecap:round; stroke-linejoin:round;">
<path d="M82677 77955
L82677 78742
" />
</g>
<g style="fill:#000000; fill-opacity:0.0; 
stroke:#000000; stroke-width:39.3701; stroke-opacity:1; 
stroke-linecap:round; stroke-linejoin:round;">
</g>
<g style="fill:#000000; fill-opacity:0.0; 
stroke:#000000; stroke-width:59.0551; stroke-opacity:1; 
stroke-linecap:round; stroke-linejoin:round;">
<path d="M102362 77955
L102362 78742
" />
</g>
<g style="fill:#000000; fill-opacity:0.0; 
stroke:#000000; stroke-width:39.3701; stroke-opacity:1; 
stroke-linecap:round; stroke-linejoin:round;">
</g>
<g style="fill:#000000; fill-opacity:0.0; 
stroke:#000000; stroke-width:59.0551; stroke-opacity:1; 
stroke-linecap:round; stroke-linejoin:round;">
<path d="M14169 78580
L13877 78580
" />
<path d="M14023 78580
L14023 78069
L13974 78142
L13925 78190
L13877 78215
" />
</g>
<g style="fill:#000000; fill-opacity:0.0; 
stroke:#000000; stroke-width:39.3701; stroke-opacity:1; 
stroke-linecap:round; stroke-linejoin:round;">
</g>
<g style="fill:#000000; fill-opacity:0.0; 
stroke:#000000; stroke-width:59.0551; stroke-opacity:1; 
stroke-linecap:round; stroke-linejoin:round;">
<path d="M33562 78117
L33586 78093
L33635 78069
L33757 78069
L33805 78093
L33830 78117
L33854 78166
L33854 78215
L33830 78288
L33537 78580
L33854 78580
" />
</g>
<g style="fill:#000000; fill-opacity:0.0; 
stroke:#000000; stroke-width:39.3701; stroke-opacity:1; 
stroke-linecap:round; stroke-linejoin:round;">
</g>
<g style="fill:#000000; fill-opacity:0.0; 
stroke:#000000; stroke-width:59.0551; stroke-opacity:1; 
stroke-linecap:round; stroke-linejoin:round;">
<path d="M53222 78069
L53539 78069
L53368 78263
L53442 78263
L53490 78288
L53515 78312
L53539 78361
L53539 78483
L53515 78532
L53490 78556
L53442 78580
L53295 78580
L53247 78556
L53222 78532
" />
</g>
<g style="fill:#000000; fill-opacity:0.0; 
stroke:#000000; stroke-width:39.3701; stroke-opacity:1; 
stroke-linecap:round; stroke-linejoin:round;">
</g>
<g style="fill:#000000; fill-opacity:0.0; 
stroke:#000000; stroke-width:59.0551; stroke-opacity:1; 
stroke-linecap:round; stroke-linejoin:round;">
<path d="M73175 78239
L73175 78580
" />
<path d="M73053 78044
L72932 78410
L73248 78410
" />
</g>
<g style="fill:#000000; fill-opacity:0.0; 
stroke:#000000; stroke-width:39.3701; stroke-opacity:1; 
stroke-linecap:round; stroke-linejoin:round;">
</g>
<g style="fill:#000000; fill-opacity:0.0; 
stroke:#000000; stroke-width:59.0551; stroke-opacity:1; 
stroke-linecap:round; stroke-linejoin:round;">
<path d="M92885 78069
L92641 78069
L92617 78312
L92641 78288
L92690 78263
L92812 78263
L92860 78288
L92885 78312
L92909 78361
L92909 78483
L92885 78532
L92860 78556
L92812 78580
L92690 78580
L92641 78556
L92617 78532
" />
</g>
<g style="fill:#000000; fill-opacity:0.0; 
stroke:#000000; stroke-width:39.3701; stroke-opacity:1; 
stroke-linecap:round; stroke-linejoin:round;">
</g>
<g style="fill:#000000; fill-opacity:0.0; 
stroke:#000000; stroke-width:59.0551; stroke-opacity:1; 
stroke-linecap:round; stroke-linejoin:round;">
<path d="M112545 78069
L112448 78069
L112399 78093
L112375 78117
L112326 78190
L112302 78288
L112302 78483
L112326 78532
L112350 78556
L112399 78580
L112497 78580
L112545 78556
L112570 78532
L112594 78483
L112594 78361
L112570 78312
L112545 78288
L112497 78263
L112399 78263
L112350 78288
L112326 78312
L112302 78361
" />
</g>
<g style="fill:#000000; fill-opacity:0.0; 
stroke:#000000; stroke-width:39.3701; stroke-opacity:1; 
stroke-linecap:round; stroke-linejoin:round;">
</g>
<g style="fill:#000000; fill-opacity:0.0; 
stroke:#000000; stroke-width:59.0551; stroke-opacity:1; 
stroke-linecap:round; stroke-linejoin:round;">
<path d="M3937 23622
L4724 23622
" />
</g>
<g style="fill:#000000; fill-opacity:0.0; 
stroke:#000000; stroke-width:39.3701; stroke-opacity:1; 
stroke-linecap:round; stroke-linejoin:round;">
</g>
<g style="fill:#000000; fill-opacity:0.0; 
stroke:#000000; stroke-width:59.0551; stroke-opacity:1; 
stroke-linecap:round; stroke-linejoin:round;">
<path d="M3937 43307
L4724 43307
" />
</g>
<g style="fill:#000000; fill-opacity:0.0; 
stroke:#000000; stroke-width:39.3701; stroke-opacity:1; 
stroke-linecap:round; stroke-linejoin:round;">
</g>
<g style="fill:#000000; fill-opacity:0.0; 
stroke:#000000; stroke-width:59.0551; stroke-opacity:1; 
stroke-linecap:round; stroke-linejoin:round;">
<path d="M3937 62992
L4724 62992
" />
</g>
<g style="fill:#000000; fill-opacity:0.0; 
stroke:#000000; stroke-width:39.3701; stroke-opacity:1; 
stroke-linecap:round; stroke-linejoin:round;">
</g>
<g style="fill:#000000; fill-opacity:0.0; 
stroke:#000000; stroke-width:59.0551; stroke-opacity:1; 
stroke-linecap:round; stroke-linejoin:round;">
<path d="M4208 13864
L4452 13864
" />
<path d="M4160 14011
L4330 13499
L4501 14011
" />
</g>
<g style="fill:#000000; fill-opacity:0.0; 
stroke:#000000; stroke-width:39.3701; stroke-opacity:1; 
stroke-linecap:round; stroke-linejoin:round;">
</g>
<g style="fill:#000000; fill-opacity:0.0; 
stroke:#000000; stroke-width:59.0551; stroke-opacity:1; 
stroke-linecap:round; stroke-linejoin:round;">
<path d="M4367 33428
L4440 33452
L4464 33476
L4489 33525
L4489 33598
L4464 33647
L4440 33671
L4391 33696
L4196 33696
L4196 33184
L4367 33184
L4416 33208
L4440 33233
L4464 33281
L4464 33330
L4440 33379
L4416 33403
L4367 33428
L4196 33428
" />
</g>
<g style="fill:#000000; fill-opacity:0.0; 
stroke:#000000; stroke-width:39.3701; stroke-opacity:1; 
stroke-linecap:round; stroke-linejoin:round;">
</g>
<g style="fill:#000000; fill-opacity:0.0; 
stroke:#000000; stroke-width:59.0551; stroke-opacity:1; 
stroke-linecap:round; stroke-linejoin:round;">
<path d="M4489 53332
L4464 53356
L4391 53381
L4342 53381
L4269 53356
L4221 53308
L4196 53259
L4172 53161
L4172 53088
L4196 52991
L4221 52942
L4269 52893
L4342 52869
L4391 52869
L4464 52893
L4489 52918
" />
</g>
<g style="fill:#000000; fill-opacity:0.0; 
stroke:#000000; stroke-width:39.3701; stroke-opacity:1; 
stroke-linecap:round; stroke-linejoin:round;">
</g>
<g style="fill:#000000; fill-opacity:0.0; 
stroke:#000000; stroke-width:59.0551; stroke-opacity:1; 
stroke-linecap:round; stroke-linejoin:round;">
<path d="M4196 73066
L4196 72554
L4318 72554
L4391 72578
L4440 72627
L4464 72676
L4489 72773
L4489 72846
L4464 72944
L4440 72993
L4391 73041
L4318 73066
L4196 73066
" />
</g>
<g style="fill:#000000; fill-opacity:0.0; 
stroke:#000000; stroke-width:39.3701; stroke-opacity:1; 
stroke-linecap:round; stroke-linejoin:round;">
</g>
<g style="fill:#000000; fill-opacity:0.0; 
stroke:#000000; stroke-width:59.0551; stroke-opacity:1; 
stroke-linecap:round; stroke-linejoin:round;">
<path d="M112992 23622
L112205 23622
" />
</g>
<g style="fill:#000000; fill-opacity:0.0; 
stroke:#000000; stroke-width:39.3701; stroke-opacity:1; 
stroke-linecap:round; stroke-linejoin:round;">
</g>
<g style="fill:#000000; fill-opacity:0.0; 
stroke:#000000; stroke-width:59.0551; stroke-opacity:1; 
stroke-linecap:round; stroke-linejoin:round;">
<path d="M112992 43307
L112205 43307
" />
</g>
<g style="fill:#000000; fill-opacity:0.0; 
stroke:#000000; stroke-width:39.3701; stroke-opacity:1; 
stroke-linecap:round; stroke-linejoin:round;">
</g>
<g style="fill:#000000; fill-opacity:0.0; 
stroke:#000000; stroke-width:59.0551; stroke-opacity:1; 
stroke-linecap:round; stroke-linejoin:round;">
<path d="M112992 62992
L112205 62992
" />
</g>
<g style="fill:#000000; fill-opacity:0.0; 
stroke:#000000; stroke-width:39.3701; stroke-opacity:1; 
stroke-linecap:round; stroke-linejoin:round;">
</g>
<g style="fill:#000000; fill-opacity:0.0; 
stroke:#000000; stroke-width:59.0551; stroke-opacity:1; 
stroke-linecap:round; stroke-linejoin:round;">
<path d="M112477 13864
L112721 13864
" />
<path d="M112428 14011
L112599 13499
L112769 14011
" />
</g>
<g style="fill:#000000; fill-opacity:0.0; 
stroke:#000000; stroke-width:39.3701; stroke-opacity:1; 
stroke-linecap:round; stroke-linejoin:round;">
</g>
<g style="fill:#000000; fill-opacity:0.0; 
stroke:#000000; stroke-width:59.0551; stroke-opacity:1; 
stroke-linecap:round; stroke-linejoin:round;">
<path d="M112635 33428
L112708 33452
L112733 33476
L112757 33525
L112757 33598
L112733 33647
L112708 33671
L112660 33696
L112465 33696
L112465 33184
L112635 33184
L112684 33208
L112708 33233
L112733 33281
L112733 33330
L112708 33379
L112684 33403
L112635 33428
L112465 33428
" />
</g>
<g style="fill:#000000; fill-opacity:0.0; 
stroke:#000000; stroke-width:39.3701; stroke-opacity:1; 
stroke-linecap:round; stroke-linejoin:round;">
</g>
<g style="fill:#000000; fill-opacity:0.0; 
stroke:#000000; stroke-width:59.0551; stroke-opacity:1; 
stroke-linecap:round; stroke-linejoin:round;">
<path d="M112757 53332
L112733 53356
L112660 53381
L112611 53381
L112538 53356
L112489 53308
L112465 53259
L112440 53161
L112440 53088
L112465 52991
L112489 52942
L112538 52893
L112611 52869
L112660 52869
L112733 52893
L112757 52918
" />
</g>
<g style="fill:#000000; fill-opacity:0.0; 
stroke:#000000; stroke-width:39.3701; stroke-opacity:1; 
stroke-linecap:round; stroke-linejoin:round;">
</g>
<g style="fill:#000000; fill-opacity:0.0; 
stroke:#000000; stroke-width:59.0551; stroke-opacity:1; 
stroke-linecap:round; stroke-linejoin:round;">
<path d="M112465 73066
L112465 72554
L112587 72554
L112660 72578
L112708 72627
L112733 72676
L112757 72773
L112757 72846
L112733 72944
L112708 72993
L112660 73041
L112587 73066
L112465 73066
" />
</g>
<g style="fill:#000000; fill-opacity:0.0; 
stroke:#000000; stroke-width:39.3701; stroke-opacity:1; 
stroke-linecap:round; stroke-linejoin:round;">
</g>
<g style="fill:#000000; fill-opacity:0.0; 
stroke:#000000; stroke-width:59.0551; stroke-opacity:1; 
stroke-linecap:round; stroke-linejoin:round;">
<path d="M78881 76293
L78881 75703
L79022 75703
L79106 75731
L79162 75787
L79190 75843
L79219 75956
L79219 76040
L79190 76153
L79162 76209
L79106 76265
L79022 76293
L78881 76293
" />
<path d="M79725 76293
L79725 75984
L79697 75928
L79640 75899
L79528 75899
L79472 75928
" />
<path d="M79725 76265
L79669 76293
L79528 76293
L79472 76265
L79444 76209
L79444 76153
L79472 76096
L79528 76068
L79669 76068
L79725 76040
" />
<path d="M79922 75899
L80147 75899
" />
<path d="M80006 75703
L80006 76209
L80034 76265
L80090 76293
L80147 76293
" />
<path d="M80568 76265
L80512 76293
L80400 76293
L80343 76265
L80315 76209
L80315 75984
L80343 75928
L80400 75899
L80512 75899
L80568 75928
L80597 75984
L80597 76040
L80315 76096
" />
<path d="M80850 76237
L80878 76265
L80850 76293
L80822 76265
L80850 76237
L80850 76293
" />
<path d="M80850 75928
L80878 75956
L80850 75984
L80822 75956
L80850 75928
L80850 75984
" />
</g>
<g style="fill:#000000; fill-opacity:0.0; 
stroke:#000000; stroke-width:39.3701; stroke-opacity:1; 
stroke-linecap:round; stroke-linejoin:round;">
</g>
<g style="fill:#000000; fill-opacity:0.0; 
stroke:#000000; stroke-width:59.0551; stroke-opacity:1; 
stroke-linecap:round; stroke-linejoin:round;">
<path d="M69685 76577
L112205 76577
" />
</g>
<g style="fill:#000000; fill-opacity:0.0; 
stroke:#000000; stroke-width:39.3701; stroke-opacity:1; 
stroke-linecap:round; stroke-linejoin:round;">
</g>
<g style="fill:#000000; fill-opacity:0.0; 
stroke:#000000; stroke-width:59.0551; stroke-opacity:1; 
stroke-linecap:round; stroke-linejoin:round;">
<path d="M70220 77395
L70220 76805
" />
<path d="M70557 77395
L70304 77058
" />
<path d="M70557 76805
L70220 77142
" />
<path d="M70810 77395
L70810 77002
" />
<path d="M70810 76805
L70782 76833
L70810 76861
L70838 76833
L70810 76805
L70810 76861
" />
<path d="M71429 77339
L71401 77367
L71316 77395
L71260 77395
L71176 77367
L71120 77311
L71091 77255
L71063 77142
L71063 77058
L71091 76946
L71120 76889
L71176 76833
L71260 76805
L71316 76805
L71401 76833
L71429 76861
" />
<path d="M71935 77395
L71935 77086
L71907 77030
L71851 77002
L71738 77002
L71682 77030
" />
<path d="M71935 77367
L71879 77395
L71738 77395
L71682 77367
L71654 77311
L71654 77255
L71682 77199
L71738 77171
L71879 77171
L71935 77142
" />
<path d="M72469 77395
L72469 76805
" />
<path d="M72469 77367
L72413 77395
L72301 77395
L72244 77367
L72216 77339
L72188 77283
L72188 77114
L72216 77058
L72244 77030
L72301 77002
L72413 77002
L72469 77030
" />
<path d="M73201 77086
L73397 77086
" />
<path d="M73482 77395
L73201 77395
L73201 76805
L73482 76805
" />
<path d="M73735 77339
L73763 77367
L73735 77395
L73707 77367
L73735 77339
L73735 77395
" />
<path d="M74016 77395
L74016 76805
L74157 76805
L74241 76833
L74297 76889
L74325 76946
L74354 77058
L74354 77142
L74325 77255
L74297 77311
L74241 77367
L74157 77395
L74016 77395
" />
<path d="M74607 77339
L74635 77367
L74607 77395
L74579 77367
L74607 77339
L74607 77395
" />
<path d="M74860 77227
L75141 77227
" />
<path d="M74804 77395
L75000 76805
L75197 77395
" />
<path d="M75394 77339
L75422 77367
L75394 77395
L75366 77367
L75394 77339
L75394 77395
" />
<path d="M76575 77395
L76575 76805
" />
<path d="M76631 77171
L76800 77395
" />
<path d="M76800 77002
L76575 77227
" />
<path d="M77053 77395
L77053 77002
" />
<path d="M77053 76805
L77025 76833
L77053 76861
L77081 76833
L77053 76805
L77053 76861
" />
<path d="M77588 77367
L77531 77395
L77419 77395
L77363 77367
L77334 77339
L77306 77283
L77306 77114
L77334 77058
L77363 77030
L77419 77002
L77531 77002
L77588 77030
" />
<path d="M78094 77395
L78094 77086
L78066 77030
L78009 77002
L77897 77002
L77841 77030
" />
<path d="M78094 77367
L78037 77395
L77897 77395
L77841 77367
L77813 77311
L77813 77255
L77841 77199
L77897 77171
L78037 77171
L78094 77142
" />
<path d="M78628 77395
L78628 76805
" />
<path d="M78628 77367
L78572 77395
L78459 77395
L78403 77367
L78375 77339
L78347 77283
L78347 77114
L78375 77058
L78403 77030
L78459 77002
L78572 77002
L78628 77030
" />
<path d="M79612 77002
L79612 77395
" />
<path d="M79472 76777
L79331 77199
L79697 77199
" />
<path d="M79922 77339
L79950 77367
L79922 77395
L79894 77367
L79922 77339
L79922 77395
" />
<path d="M80315 76805
L80372 76805
L80428 76833
L80456 76861
L80484 76917
L80512 77030
L80512 77171
L80484 77283
L80456 77339
L80428 77367
L80372 77395
L80315 77395
L80259 77367
L80231 77339
L80203 77283
L80175 77171
L80175 77030
L80203 76917
L80231 76861
L80259 76833
L80315 76805
" />
<path d="M80765 77339
L80793 77367
L80765 77395
L80737 77367
L80765 77339
L80765 77395
" />
<path d="M81300 77002
L81300 77395
" />
<path d="M81159 76777
L81018 77199
L81384 77199
" />
<path d="M81609 77171
L82059 77171
" />
<path d="M82312 77367
L82368 77395
L82481 77395
L82537 77367
L82565 77311
L82565 77283
L82537 77227
L82481 77199
L82396 77199
L82340 77171
L82312 77114
L82312 77086
L82340 77030
L82396 77002
L82481 77002
L82537 77030
" />
<path d="M82734 77002
L82959 77002
" />
<path d="M82818 76805
L82818 77311
L82846 77367
L82903 77395
L82959 77395
" />
<path d="M83409 77395
L83409 77086
L83381 77030
L83324 77002
L83212 77002
L83156 77030
" />
<path d="M83409 77367
L83352 77395
L83212 77395
L83156 77367
L83127 77311
L83127 77255
L83156 77199
L83212 77171
L83352 77171
L83409 77142
" />
<path d="M83690 77395
L83690 76805
" />
<path d="M83690 77030
L83746 77002
L83859 77002
L83915 77030
L83943 77058
L83971 77114
L83971 77283
L83943 77339
L83915 77367
L83859 77395
L83746 77395
L83690 77367
" />
<path d="M84309 77395
L84252 77367
L84224 77311
L84224 76805
" />
<path d="M84759 77367
L84702 77395
L84590 77395
L84534 77367
L84505 77311
L84505 77086
L84534 77030
L84590 77002
L84702 77002
L84759 77030
L84787 77086
L84787 77142
L84505 77199
" />
</g>
<g style="fill:#000000; fill-opacity:0.0; 
stroke:#000000; stroke-width:39.3701; stroke-opacity:1; 
stroke-linecap:round; stroke-linejoin:round;">
</g>
<g style="fill:#000000; fill-opacity:0.0; 
stroke:#000000; stroke-width:59.0551; stroke-opacity:1; 
stroke-linecap:round; stroke-linejoin:round;">
<path d="M69685 75396
L112205 75396
" />
</g>
<g style="fill:#000000; fill-opacity:0.0; 
stroke:#000000; stroke-width:39.3701; stroke-opacity:1; 
stroke-linecap:round; stroke-linejoin:round;">
</g>
<g style="fill:#000000; fill-opacity:0.0; 
stroke:#000000; stroke-width:118.11; stroke-opacity:1; 
stroke-linecap:round; stroke-linejoin:round;">
<path d="M104022 76293
L103825 76012
" />
<path d="M103684 76293
L103684 75703
L103909 75703
L103965 75731
L103994 75759
L104022 75815
L104022 75899
L103994 75956
L103965 75984
L103909 76012
L103684 76012
" />
<path d="M104500 76265
L104444 76293
L104331 76293
L104275 76265
L104247 76209
L104247 75984
L104275 75928
L104331 75899
L104444 75899
L104500 75928
L104528 75984
L104528 76040
L104247 76096
" />
<path d="M104725 75899
L104865 76293
L105006 75899
" />
<path d="M105231 76237
L105259 76265
L105231 76293
L105203 76265
L105231 76237
L105231 76293
" />
<path d="M105231 75928
L105259 75956
L105231 75984
L105203 75956
L105231 75928
L105231 75984
" />
</g>
<g style="fill:#000000; fill-opacity:0.0; 
stroke:#000000; stroke-width:39.3701; stroke-opacity:1; 
stroke-linecap:round; stroke-linejoin:round;">
</g>
<g style="fill:#000000; fill-opacity:0.0; 
stroke:#000000; stroke-width:59.0551; stroke-opacity:1; 
stroke-linecap:round; stroke-linejoin:round;">
<path d="M70192 76265
L70276 76293
L70417 76293
L70473 76265
L70501 76237
L70529 76181
L70529 76124
L70501 76068
L70473 76040
L70417 76012
L70304 75984
L70248 75956
L70220 75928
L70192 75871
L70192 75815
L70220 75759
L70248 75731
L70304 75703
L70445 75703
L70529 75731
" />
<path d="M70782 76293
L70782 75899
" />
<path d="M70782 75703
L70754 75731
L70782 75759
L70810 75731
L70782 75703
L70782 75759
" />
<path d="M71007 75899
L71316 75899
L71007 76293
L71316 76293
" />
<path d="M71766 76265
L71710 76293
L71598 76293
L71541 76265
L71513 76209
L71513 75984
L71541 75928
L71598 75899
L71710 75899
L71766 75928
L71795 75984
L71795 76040
L71513 76096
" />
<path d="M72048 76237
L72076 76265
L72048 76293
L72019 76265
L72048 76237
L72048 76293
" />
<path d="M72048 75928
L72076 75956
L72048 75984
L72019 75956
L72048 75928
L72048 75984
" />
<path d="M72751 76124
L73032 76124
" />
<path d="M72694 76293
L72891 75703
L73088 76293
" />
<path d="M73538 75899
L73538 76293
" />
<path d="M73397 75674
L73257 76096
L73622 76096
" />
</g>
<g style="fill:#000000; fill-opacity:0.0; 
stroke:#000000; stroke-width:39.3701; stroke-opacity:1; 
stroke-linecap:round; stroke-linejoin:round;">
</g>
<g style="fill:#000000; fill-opacity:0.0; 
stroke:#000000; stroke-width:59.0551; stroke-opacity:1; 
stroke-linecap:round; stroke-linejoin:round;">
<path d="M103684 77395
L103684 76805
" />
<path d="M104219 77395
L104219 76805
" />
<path d="M104219 77367
L104162 77395
L104050 77395
L103994 77367
L103965 77339
L103937 77283
L103937 77114
L103965 77058
L103994 77030
L104050 77002
L104162 77002
L104219 77030
" />
<path d="M104500 77339
L104528 77367
L104500 77395
L104472 77367
L104500 77339
L104500 77395
" />
<path d="M104500 77030
L104528 77058
L104500 77086
L104472 77058
L104500 77030
L104500 77086
" />
<path d="M105540 77395
L105203 77395
" />
<path d="M105372 77395
L105372 76805
L105315 76889
L105259 76946
L105203 76974
" />
<path d="M106215 76777
L105709 77536
" />
<path d="M106721 77395
L106384 77395
" />
<path d="M106553 77395
L106553 76805
L106496 76889
L106440 76946
L106384 76974
" />
</g>
<g style="fill:#000000; fill-opacity:0.0; 
stroke:#000000; stroke-width:39.3701; stroke-opacity:1; 
stroke-linecap:round; stroke-linejoin:round;">
</g>
<g style="fill:#000000; fill-opacity:0.0; 
stroke:#000000; stroke-width:59.0551; stroke-opacity:1; 
stroke-linecap:round; stroke-linejoin:round;">
<path d="M69685 73821
L112205 73821
" />
</g>
<g style="fill:#000000; fill-opacity:0.0; 
stroke:#000000; stroke-width:39.3701; stroke-opacity:1; 
stroke-linecap:round; stroke-linejoin:round;">
</g>
<g style="fill:#000000; fill-opacity:0.0; 
stroke:#000000; stroke-width:157.48; stroke-opacity:1; 
stroke-linecap:round; stroke-linejoin:round;">
<path d="M70257 74099
L70707 74099
" />
<path d="M70384 74886
L70482 74099
" />
<path d="M70871 74886
L70937 74361
" />
<path d="M70970 74099
L70927 74136
L70960 74174
L71002 74136
L70970 74099
L70960 74174
" />
<path d="M71199 74361
L71499 74361
" />
<path d="M71345 74099
L71260 74774
L71288 74849
L71359 74886
L71434 74886
" />
<path d="M71809 74886
L71738 74849
L71710 74774
L71795 74099
" />
<path d="M72413 74849
L72334 74886
L72184 74886
L72113 74849
L72085 74774
L72123 74474
L72169 74399
L72249 74361
L72399 74361
L72469 74399
L72498 74474
L72488 74549
L72104 74624
" />
<path d="M72793 74811
L72826 74849
L72783 74886
L72751 74849
L72793 74811
L72783 74886
" />
<path d="M72844 74399
L72877 74436
L72835 74474
L72802 74436
L72844 74399
L72835 74474
" />
</g>
<g style="fill:#000000; fill-opacity:0.0; 
stroke:#000000; stroke-width:39.3701; stroke-opacity:1; 
stroke-linecap:round; stroke-linejoin:round;">
</g>
<g style="fill:#000000; fill-opacity:0.0; 
stroke:#000000; stroke-width:59.0551; stroke-opacity:1; 
stroke-linecap:round; stroke-linejoin:round;">
<path d="M70417 73070
L70220 73070
" />
<path d="M70220 73380
L70220 72789
L70501 72789
" />
<path d="M70726 73380
L70726 72986
" />
<path d="M70726 72789
L70698 72817
L70726 72845
L70754 72817
L70726 72789
L70726 72845
" />
<path d="M71091 73380
L71035 73352
L71007 73295
L71007 72789
" />
<path d="M71541 73352
L71485 73380
L71373 73380
L71316 73352
L71288 73295
L71288 73070
L71316 73014
L71373 72986
L71485 72986
L71541 73014
L71570 73070
L71570 73127
L71288 73183
" />
<path d="M71823 73323
L71851 73352
L71823 73380
L71795 73352
L71823 73323
L71823 73380
" />
<path d="M71823 73014
L71851 73042
L71823 73070
L71795 73042
L71823 73014
L71823 73070
" />
<path d="M72751 73070
L72835 73099
L72863 73127
L72891 73183
L72891 73267
L72863 73323
L72835 73352
L72779 73380
L72554 73380
L72554 72789
L72751 72789
L72807 72817
L72835 72845
L72863 72902
L72863 72958
L72835 73014
L72807 73042
L72751 73070
L72554 73070
" />
<path d="M73397 73380
L73397 73070
L73369 73014
L73313 72986
L73201 72986
L73144 73014
" />
<path d="M73397 73352
L73341 73380
L73201 73380
L73144 73352
L73116 73295
L73116 73239
L73144 73183
L73201 73155
L73341 73155
L73397 73127
" />
<path d="M73651 73352
L73707 73380
L73819 73380
L73876 73352
L73904 73295
L73904 73267
L73876 73211
L73819 73183
L73735 73183
L73679 73155
L73651 73099
L73651 73070
L73679 73014
L73735 72986
L73819 72986
L73876 73014
" />
<path d="M74157 73380
L74157 72986
" />
<path d="M74157 72789
L74129 72817
L74157 72845
L74185 72817
L74157 72789
L74157 72845
" />
<path d="M74691 73352
L74635 73380
L74522 73380
L74466 73352
L74438 73323
L74410 73267
L74410 73099
L74438 73042
L74466 73014
L74522 72986
L74635 72986
L74691 73014
" />
<path d="M75394 73380
L75394 72789
L75619 72789
L75675 72817
L75703 72845
L75732 72902
L75732 72986
L75703 73042
L75675 73070
L75619 73099
L75394 73099
" />
<path d="M76322 73323
L76294 73352
L76210 73380
L76153 73380
L76069 73352
L76013 73295
L75985 73239
L75956 73127
L75956 73042
L75985 72930
L76013 72874
L76069 72817
L76153 72789
L76210 72789
L76294 72817
L76322 72845
" />
<path d="M76772 73070
L76856 73099
L76885 73127
L76913 73183
L76913 73267
L76885 73323
L76856 73352
L76800 73380
L76575 73380
L76575 72789
L76772 72789
L76828 72817
L76856 72845
L76885 72902
L76885 72958
L76856 73014
L76828 73042
L76772 73070
L76575 73070
" />
<path d="M77869 73352
L77813 73380
L77700 73380
L77644 73352
L77616 73323
L77588 73267
L77588 73099
L77616 73042
L77644 73014
L77700 72986
L77813 72986
L77869 73014
" />
<path d="M78206 73380
L78150 73352
L78122 73295
L78122 72789
" />
<path d="M78684 73380
L78684 73070
L78656 73014
L78600 72986
L78487 72986
L78431 73014
" />
<path d="M78684 73352
L78628 73380
L78487 73380
L78431 73352
L78403 73295
L78403 73239
L78431 73183
L78487 73155
L78628 73155
L78684 73127
" />
<path d="M78937 73352
L78994 73380
L79106 73380
L79162 73352
L79190 73295
L79190 73267
L79162 73211
L79106 73183
L79022 73183
L78965 73155
L78937 73099
L78937 73070
L78965 73014
L79022 72986
L79106 72986
L79162 73014
" />
<path d="M79415 73352
L79472 73380
L79584 73380
L79640 73352
L79669 73295
L79669 73267
L79640 73211
L79584 73183
L79500 73183
L79444 73155
L79415 73099
L79415 73070
L79444 73014
L79500 72986
L79584 72986
L79640 73014
" />
<path d="M79922 73323
L79950 73352
L79922 73380
L79894 73352
L79922 73323
L79922 73380
" />
<path d="M80203 73380
L80203 72789
" />
<path d="M80259 73155
L80428 73380
" />
<path d="M80428 72986
L80203 73211
" />
<path d="M80681 73380
L80681 72986
" />
<path d="M80681 72789
L80653 72817
L80681 72845
L80709 72817
L80681 72789
L80681 72845
" />
<path d="M81215 73352
L81159 73380
L81046 73380
L80990 73352
L80962 73323
L80934 73267
L80934 73099
L80962 73042
L80990 73014
L81046 72986
L81159 72986
L81215 73014
" />
<path d="M81721 73380
L81721 73070
L81693 73014
L81637 72986
L81525 72986
L81468 73014
" />
<path d="M81721 73352
L81665 73380
L81525 73380
L81468 73352
L81440 73295
L81440 73239
L81468 73183
L81525 73155
L81665 73155
L81721 73127
" />
<path d="M82256 73380
L82256 72789
" />
<path d="M82256 73352
L82199 73380
L82087 73380
L82031 73352
L82003 73323
L81974 73267
L81974 73099
L82003 73042
L82031 73014
L82087 72986
L82199 72986
L82256 73014
" />
<path d="M82396 73436
L82846 73436
" />
<path d="M82987 72986
L82987 73577
" />
<path d="M82987 73014
L83043 72986
L83156 72986
L83212 73014
L83240 73042
L83268 73099
L83268 73267
L83240 73323
L83212 73352
L83156 73380
L83043 73380
L82987 73352
" />
<path d="M83774 73352
L83718 73380
L83606 73380
L83549 73352
L83521 73323
L83493 73267
L83493 73099
L83521 73042
L83549 73014
L83606 72986
L83718 72986
L83774 73014
" />
<path d="M84027 73380
L84027 72789
" />
<path d="M84027 73014
L84084 72986
L84196 72986
L84252 73014
L84280 73042
L84309 73099
L84309 73267
L84280 73323
L84252 73352
L84196 73380
L84084 73380
L84027 73352
" />
</g>
<g style="fill:#000000; fill-opacity:0.0; 
stroke:#000000; stroke-width:39.3701; stroke-opacity:1; 
stroke-linecap:round; stroke-linejoin:round;">
</g>
<g style="fill:#000000; fill-opacity:0.0; 
stroke:#000000; stroke-width:59.0551; stroke-opacity:1; 
stroke-linecap:round; stroke-linejoin:round;">
<path d="M69685 71459
L112205 71459
" />
</g>
<g style="fill:#000000; fill-opacity:0.0; 
stroke:#000000; stroke-width:39.3701; stroke-opacity:1; 
stroke-linecap:round; stroke-linejoin:round;">
</g>
<g style="fill:#000000; fill-opacity:0.0; 
stroke:#000000; stroke-width:59.0551; stroke-opacity:1; 
stroke-linecap:round; stroke-linejoin:round;">
<path d="M70192 72289
L70276 72317
L70417 72317
L70473 72289
L70501 72260
L70529 72204
L70529 72148
L70501 72092
L70473 72064
L70417 72036
L70304 72007
L70248 71979
L70220 71951
L70192 71895
L70192 71839
L70220 71782
L70248 71754
L70304 71726
L70445 71726
L70529 71754
" />
<path d="M70782 72317
L70782 71726
" />
<path d="M71035 72317
L71035 72007
L71007 71951
L70951 71923
L70867 71923
L70810 71951
L70782 71979
" />
<path d="M71541 72289
L71485 72317
L71373 72317
L71316 72289
L71288 72232
L71288 72007
L71316 71951
L71373 71923
L71485 71923
L71541 71951
L71570 72007
L71570 72064
L71288 72120
" />
<path d="M72048 72289
L71991 72317
L71879 72317
L71823 72289
L71795 72232
L71795 72007
L71823 71951
L71879 71923
L71991 71923
L72048 71951
L72076 72007
L72076 72064
L71795 72120
" />
<path d="M72244 71923
L72469 71923
" />
<path d="M72329 71726
L72329 72232
L72357 72289
L72413 72317
L72469 72317
" />
<path d="M72666 72260
L72694 72289
L72666 72317
L72638 72289
L72666 72260
L72666 72317
" />
<path d="M72666 71951
L72694 71979
L72666 72007
L72638 71979
L72666 71951
L72666 72007
" />
</g>
<g style="fill:#000000; fill-opacity:0.0; 
stroke:#000000; stroke-width:39.3701; stroke-opacity:1; 
stroke-linecap:round; stroke-linejoin:round;">
</g>
<g style="fill:#000000; fill-opacity:0.0; 
stroke:#000000; stroke-width:59.0551; stroke-opacity:1; 
stroke-linecap:round; stroke-linejoin:round;">
<path d="M77559 75396
L77559 76577
" />
</g>
<g style="fill:#000000; fill-opacity:0.0; 
stroke:#000000; stroke-width:39.3701; stroke-opacity:1; 
stroke-linecap:round; stroke-linejoin:round;">
</g>
<g style="fill:#000000; fill-opacity:0.0; 
stroke:#000000; stroke-width:59.0551; stroke-opacity:1; 
stroke-linecap:round; stroke-linejoin:round;">
<path d="M102756 75396
L102756 77955
" />
</g>
<g style="fill:#C2C200; fill-opacity:0.0; 
stroke:#C2C200; stroke-width:59.0551; stroke-opacity:1; 
stroke-linecap:round; stroke-linejoin:round;">
<path d="M55315 31837
L55296 31874
L55259 31912
L55203 31968
L55184 32006
L55184 32043
" />
<path d="M55278 32024
L55259 32062
L55221 32099
L55146 32118
L55015 32118
L54940 32099
L54903 32062
L54884 32024
L54884 31949
L54903 31912
L54940 31874
L55015 31856
L55146 31856
L55221 31874
L55259 31912
L55278 31949
L55278 32024
" />
<path d="M54884 31500
L54884 31687
L55071 31706
L55053 31687
L55034 31650
L55034 31556
L55053 31518
L55071 31500
L55109 31481
L55203 31481
L55240 31500
L55259 31518
L55278 31556
L55278 31650
L55259 31687
L55240 31706
" />
</g>
<g style="fill:#008484; fill-opacity:0.0; 
stroke:#008484; stroke-width:59.0551; stroke-opacity:1; 
stroke-linecap:round; stroke-linejoin:round;">
</g>
<g style="fill:#008484; fill-opacity:0.0; 
stroke:#008484; stroke-width:19.685; stroke-opacity:1; 
stroke-linecap:round; stroke-linejoin:round;">
<path d="M54784 32069
L55103 32069
L55140 32053
L55159 32036
L55178 32002
L55178 31934
L55159 31901
L55140 31884
L55103 31867
L54784 31867
" />
<path d="M55178 31513
L55178 31715
" />
<path d="M55178 31614
L54784 31614
L54840 31648
L54878 31681
L54896 31715
" />
<path d="M51284 33107
L51284 32905
" />
<path d="M51678 33006
L51284 33006
" />
<path d="M51659 32803
L51678 32753
L51678 32668
L51659 32635
L51640 32618
L51603 32601
L51565 32601
L51528 32618
L51509 32635
L51490 32668
L51471 32736
L51453 32770
L51434 32787
L51396 32803
L51359 32803
L51321 32787
L51303 32770
L51284 32736
L51284 32652
L51303 32601
" />
<path d="M51284 32382
L51284 32314
L51303 32280
L51340 32247
L51415 32230
L51546 32230
L51621 32247
L51659 32280
L51678 32314
L51678 32382
L51659 32415
L51621 32449
L51546 32466
L51415 32466
L51340 32449
L51303 32415
L51284 32382
" />
<path d="M51678 32078
L51284 32078
L51284 31943
L51303 31909
L51321 31892
L51359 31875
L51415 31875
L51453 31892
L51471 31909
L51490 31943
L51490 32078
" />
<path d="M51415 31572
L51678 31572
" />
<path d="M51265 31656
L51546 31740
L51546 31521
" />
<path d="M51453 31335
L51434 31369
L51415 31386
L51378 31403
L51359 31403
L51321 31386
L51303 31369
L51284 31335
L51284 31268
L51303 31234
L51321 31217
L51359 31201
L51378 31201
L51415 31217
L51434 31234
L51453 31268
L51453 31335
L51471 31369
L51490 31386
L51528 31403
L51603 31403
L51640 31386
L51659 31369
L51678 31335
L51678 31268
L51659 31234
L51640 31217
L51603 31201
L51528 31201
L51490 31217
L51471 31234
L51453 31268
" />
<path d="M51284 31082
L51284 30863
L51434 30981
L51434 30931
L51453 30897
L51471 30880
L51509 30863
L51603 30863
L51640 30880
L51659 30897
L51678 30931
L51678 31032
L51659 31066
L51640 31082
" />
<path d="M51453 30661
L51434 30694
L51415 30711
L51378 30728
L51359 30728
L51321 30711
L51303 30694
L51284 30661
L51284 30593
L51303 30559
L51321 30542
L51359 30526
L51378 30526
L51415 30542
L51434 30559
L51453 30593
L51453 30661
L51471 30694
L51490 30711
L51528 30728
L51603 30728
L51640 30711
L51659 30694
L51678 30661
L51678 30593
L51659 30559
L51640 30542
L51603 30526
L51528 30526
L51490 30542
L51471 30559
L51453 30593
" />
</g>
<g style="fill:#C2C200; fill-opacity:0.0; 
stroke:#C2C200; stroke-width:19.685; stroke-opacity:1; 
stroke-linecap:round; stroke-linejoin:round;">
</g>
<g style="fill:#C2C200; fill-opacity:0.0; 
stroke:#C2C200; stroke-width:59.0551; stroke-opacity:1; 
stroke-linecap:round; stroke-linejoin:round;">
<path d="M50378 31840
L49984 31840
L49984 31746
L50003 31690
L50040 31653
L50078 31634
L50153 31615
L50209 31615
L50284 31634
L50321 31653
L50359 31690
L50378 31746
L50378 31840
" />
<path d="M50115 31278
L50378 31278
" />
<path d="M49965 31371
L50246 31465
L50246 31221
" />
</g>
<g style="fill:#008484; fill-opacity:0.0; 
stroke:#008484; stroke-width:59.0551; stroke-opacity:1; 
stroke-linecap:round; stroke-linejoin:round;">
<path d="M50378 31053
L49984 31053
" />
<path d="M50378 30828
L50153 30996
" />
<path d="M49984 30828
L50209 31053
" />
</g>
<g style="fill:#C2C200; fill-opacity:0.0; 
stroke:#C2C200; stroke-width:59.0551; stroke-opacity:1; 
stroke-linecap:round; stroke-linejoin:round;">
<path d="M54359 42728
L54359 42334
L54453 42334
L54509 42353
L54546 42390
L54565 42428
L54584 42503
L54584 42559
L54565 42634
L54546 42671
L54509 42709
L54453 42728
L54359 42728
" />
<path d="M54959 42728
L54734 42728
" />
<path d="M54846 42728
L54846 42334
L54809 42390
L54771 42428
L54734 42446
" />
</g>
<g style="fill:#008484; fill-opacity:0.0; 
stroke:#008484; stroke-width:59.0551; stroke-opacity:1; 
stroke-linecap:round; stroke-linejoin:round;">
<path d="M55046 42728
L55046 42334
" />
<path d="M55271 42728
L55103 42503
" />
<path d="M55271 42334
L55046 42559
" />
</g>
<g style="fill:#C2C200; fill-opacity:0.0; 
stroke:#C2C200; stroke-width:59.0551; stroke-opacity:1; 
stroke-linecap:round; stroke-linejoin:round;">
<path d="M51012 36265
L50975 36246
L50937 36209
L50881 36153
L50843 36134
L50806 36134
" />
<path d="M50825 36228
L50787 36209
L50750 36171
L50731 36096
L50731 35965
L50750 35890
L50787 35853
L50825 35834
L50900 35834
L50937 35853
L50975 35890
L50993 35965
L50993 36096
L50975 36171
L50937 36209
L50900 36228
L50825 36228
" />
<path d="M51124 35834
L51368 35834
L51237 35984
L51293 35984
L51331 36003
L51349 36021
L51368 36059
L51368 36153
L51349 36190
L51331 36209
L51293 36228
L51181 36228
L51143 36209
L51124 36190
" />
<path d="M51012 38765
L50975 38746
L50937 38709
L50881 38653
L50843 38634
L50806 38634
" />
<path d="M50825 38728
L50787 38709
L50750 38671
L50731 38596
L50731 38465
L50750 38390
L50787 38353
L50825 38334
L50900 38334
L50937 38353
L50975 38390
L50993 38465
L50993 38596
L50975 38671
L50937 38709
L50900 38728
L50825 38728
" />
<path d="M51143 38371
L51162 38353
L51199 38334
L51293 38334
L51331 38353
L51349 38371
L51368 38409
L51368 38446
L51349 38503
L51124 38728
L51368 38728
" />
<path d="M51062 41215
L51025 41196
L50987 41159
L50931 41103
L50893 41084
L50856 41084
" />
<path d="M50875 41178
L50837 41159
L50800 41121
L50781 41046
L50781 40915
L50800 40840
L50837 40803
L50875 40784
L50950 40784
L50987 40803
L51025 40840
L51043 40915
L51043 41046
L51025 41121
L50987 41159
L50950 41178
L50875 41178
" />
<path d="M51418 41178
L51193 41178
" />
<path d="M51306 41178
L51306 40784
L51268 40840
L51231 40878
L51193 40896
" />
</g>
<g style="fill:#008484; fill-opacity:0.0; 
stroke:#008484; stroke-width:59.0551; stroke-opacity:1; 
stroke-linecap:round; stroke-linejoin:round;">
</g>
<g style="fill:#008484; fill-opacity:0.0; 
stroke:#008484; stroke-width:19.685; stroke-opacity:1; 
stroke-linecap:round; stroke-linejoin:round;">
<path d="M48681 46871
L48700 46853
L48737 46834
L48831 46834
L48868 46853
L48887 46871
L48906 46909
L48906 46946
L48887 47003
L48662 47228
L48906 47228
" />
<path d="M49075 47228
L49075 46834
L49300 47228
L49300 46834
" />
<path d="M49450 46834
L49693 46834
L49562 46984
L49618 46984
L49656 47003
L49675 47021
L49693 47059
L49693 47153
L49675 47190
L49656 47209
L49618 47228
L49506 47228
L49468 47209
L49450 47190
" />
<path d="M49881 47228
L49956 47228
L49993 47209
L50012 47190
L50049 47134
L50068 47059
L50068 46909
L50049 46871
L50031 46853
L49993 46834
L49918 46834
L49881 46853
L49862 46871
L49843 46909
L49843 47003
L49862 47040
L49881 47059
L49918 47078
L49993 47078
L50031 47059
L50049 47040
L50068 47003
" />
<path d="M50312 46834
L50349 46834
L50387 46853
L50406 46871
L50424 46909
L50443 46984
L50443 47078
L50424 47153
L50406 47190
L50387 47209
L50349 47228
L50312 47228
L50274 47209
L50256 47190
L50237 47153
L50218 47078
L50218 46984
L50237 46909
L50256 46871
L50274 46853
L50312 46834
" />
<path d="M50781 46965
L50781 47228
" />
<path d="M50687 46815
L50593 47096
L50837 47096
" />
</g>
<g style="fill:#C2C200; fill-opacity:0.0; 
stroke:#C2C200; stroke-width:19.685; stroke-opacity:1; 
stroke-linecap:round; stroke-linejoin:round;">
</g>
<g style="fill:#C2C200; fill-opacity:0.0; 
stroke:#C2C200; stroke-width:59.0551; stroke-opacity:1; 
stroke-linecap:round; stroke-linejoin:round;">
<path d="M48334 45378
L48203 45190
" />
<path d="M48109 45378
L48109 44984
L48259 44984
L48296 45003
L48315 45021
L48334 45059
L48334 45115
L48315 45153
L48296 45171
L48259 45190
L48109 45190
" />
<path d="M48690 44984
L48503 44984
L48484 45171
L48503 45153
L48540 45134
L48634 45134
L48671 45153
L48690 45171
L48709 45209
L48709 45303
L48690 45340
L48671 45359
L48634 45378
L48540 45378
L48503 45359
L48484 45340
" />
<path d="M58259 47128
L58259 46734
L58353 46734
L58409 46753
L58446 46790
L58465 46828
L58484 46903
L58484 46959
L58465 47034
L58446 47071
L58409 47109
L58353 47128
L58259 47128
" />
<path d="M58615 46734
L58859 46734
L58728 46884
L58784 46884
L58821 46903
L58840 46921
L58859 46959
L58859 47053
L58840 47090
L58821 47109
L58784 47128
L58671 47128
L58634 47109
L58615 47090
" />
</g>
<g style="fill:#008484; fill-opacity:0.0; 
stroke:#008484; stroke-width:59.0551; stroke-opacity:1; 
stroke-linecap:round; stroke-linejoin:round;">
<path d="M58996 47128
L58996 46734
" />
<path d="M59221 47128
L59053 46903
" />
<path d="M59221 46734
L58996 46959
" />
</g>
<g style="fill:#C2C200; fill-opacity:0.0; 
stroke:#C2C200; stroke-width:59.0551; stroke-opacity:1; 
stroke-linecap:round; stroke-linejoin:round;">
<path d="M58009 48878
L58009 48484
L58103 48484
L58159 48503
L58196 48540
L58215 48578
L58234 48653
L58234 48709
L58215 48784
L58196 48821
L58159 48859
L58103 48878
L58009 48878
" />
<path d="M58384 48521
L58403 48503
L58440 48484
L58534 48484
L58571 48503
L58590 48521
L58609 48559
L58609 48596
L58590 48653
L58365 48878
L58609 48878
" />
</g>
<g style="fill:#008484; fill-opacity:0.0; 
stroke:#008484; stroke-width:59.0551; stroke-opacity:1; 
stroke-linecap:round; stroke-linejoin:round;">
<path d="M58746 48878
L58746 48484
" />
<path d="M58971 48878
L58803 48653
" />
<path d="M58971 48484
L58746 48709
" />
</g>
<g style="fill:#C2C200; fill-opacity:0.0; 
stroke:#C2C200; stroke-width:59.0551; stroke-opacity:1; 
stroke-linecap:round; stroke-linejoin:round;">
<path d="M58634 33440
L58615 33459
L58559 33478
L58521 33478
L58465 33459
L58428 33421
L58409 33384
L58390 33309
L58390 33253
L58409 33178
L58428 33140
L58465 33103
L58521 33084
L58559 33084
L58615 33103
L58634 33121
" />
<path d="M59009 33478
L58784 33478
" />
<path d="M58896 33478
L58896 33084
L58859 33140
L58821 33178
L58784 33196
" />
<path d="M57759 42778
L57759 42384
L57909 42384
L57946 42403
L57965 42421
L57984 42459
L57984 42515
L57965 42553
L57946 42571
L57909 42590
L57759 42590
" />
<path d="M58359 42778
L58134 42778
" />
<path d="M58246 42778
L58246 42384
L58209 42440
L58171 42478
L58134 42496
" />
<path d="M42559 35478
L42559 35084
L42709 35084
L42746 35103
L42765 35121
L42784 35159
L42784 35215
L42765 35253
L42746 35271
L42709 35290
L42559 35290
" />
<path d="M42934 35121
L42953 35103
L42990 35084
L43084 35084
L43121 35103
L43140 35121
L43159 35159
L43159 35196
L43140 35253
L42915 35478
L43159 35478
" />
<path d="M43959 35428
L43959 35034
L44109 35034
L44146 35053
L44165 35071
L44184 35109
L44184 35165
L44165 35203
L44146 35221
L44109 35240
L43959 35240
" />
<path d="M44315 35034
L44559 35034
L44428 35184
L44484 35184
L44521 35203
L44540 35221
L44559 35259
L44559 35353
L44540 35390
L44521 35409
L44484 35428
L44371 35428
L44334 35409
L44315 35390
" />
<path d="M42509 43078
L42509 42684
L42659 42684
L42696 42703
L42715 42721
L42734 42759
L42734 42815
L42715 42853
L42696 42871
L42659 42890
L42509 42890
" />
<path d="M43071 42815
L43071 43078
" />
<path d="M42978 42665
L42884 42946
L43128 42946
" />
<path d="M55484 40378
L55353 40190
" />
<path d="M55259 40378
L55259 39984
L55409 39984
L55446 40003
L55465 40021
L55484 40059
L55484 40115
L55465 40153
L55446 40171
L55409 40190
L55259 40190
" />
<path d="M55859 40378
L55634 40378
" />
<path d="M55746 40378
L55746 39984
L55709 40040
L55671 40078
L55634 40096
" />
<path d="M55434 38878
L55303 38690
" />
<path d="M55209 38878
L55209 38484
L55359 38484
L55396 38503
L55415 38521
L55434 38559
L55434 38615
L55415 38653
L55396 38671
L55359 38690
L55209 38690
" />
<path d="M55584 38521
L55603 38503
L55640 38484
L55734 38484
L55771 38503
L55790 38521
L55809 38559
L55809 38596
L55790 38653
L55565 38878
L55809 38878
" />
<path d="M55534 37378
L55403 37190
" />
<path d="M55309 37378
L55309 36984
L55459 36984
L55496 37003
L55515 37021
L55534 37059
L55534 37115
L55515 37153
L55496 37171
L55459 37190
L55309 37190
" />
<path d="M55665 36984
L55909 36984
L55778 37134
L55834 37134
L55871 37153
L55890 37171
L55909 37209
L55909 37303
L55890 37340
L55871 37359
L55834 37378
L55721 37378
L55684 37359
L55665 37340
" />
<path d="M53984 45128
L53853 44940
" />
<path d="M53759 45128
L53759 44734
L53909 44734
L53946 44753
L53965 44771
L53984 44809
L53984 44865
L53965 44903
L53946 44921
L53909 44940
L53759 44940
" />
<path d="M54321 44865
L54321 45128
" />
<path d="M54228 44715
L54134 44996
L54378 44996
" />
<path d="M53984 48628
L53853 48440
" />
<path d="M53759 48628
L53759 48234
L53909 48234
L53946 48253
L53965 48271
L53984 48309
L53984 48365
L53965 48403
L53946 48421
L53909 48440
L53759 48440
" />
<path d="M54321 48234
L54246 48234
L54209 48253
L54190 48271
L54153 48328
L54134 48403
L54134 48553
L54153 48590
L54171 48609
L54209 48628
L54284 48628
L54321 48609
L54340 48590
L54359 48553
L54359 48459
L54340 48421
L54321 48403
L54284 48384
L54209 48384
L54171 48403
L54153 48421
L54134 48459
" />
<path d="M53984 46628
L53853 46440
" />
<path d="M53759 46628
L53759 46234
L53909 46234
L53946 46253
L53965 46271
L53984 46309
L53984 46365
L53965 46403
L53946 46421
L53909 46440
L53759 46440
" />
<path d="M54115 46234
L54378 46234
L54209 46628
" />
<path d="M57684 34978
L57553 34790
" />
<path d="M57459 34978
L57459 34584
L57609 34584
L57646 34603
L57665 34621
L57684 34659
L57684 34715
L57665 34753
L57646 34771
L57609 34790
L57459 34790
" />
<path d="M57909 34753
L57871 34734
L57853 34715
L57834 34678
L57834 34659
L57853 34621
L57871 34603
L57909 34584
L57984 34584
L58021 34603
L58040 34621
L58059 34659
L58059 34678
L58040 34715
L58021 34734
L57984 34753
L57909 34753
L57871 34771
L57853 34790
L57834 34828
L57834 34903
L57853 34940
L57871 34959
L57909 34978
L57984 34978
L58021 34959
L58040 34940
L58059 34903
L58059 34828
L58040 34790
L58021 34771
L57984 34753
" />
<path d="M52484 34978
L52353 34790
" />
<path d="M52259 34978
L52259 34584
L52409 34584
L52446 34603
L52465 34621
L52484 34659
L52484 34715
L52465 34753
L52446 34771
L52409 34790
L52259 34790
" />
<path d="M52671 34978
L52746 34978
L52784 34959
L52803 34940
L52840 34884
L52859 34809
L52859 34659
L52840 34621
L52821 34603
L52784 34584
L52709 34584
L52671 34603
L52653 34621
L52634 34659
L52634 34753
L52653 34790
L52671 34809
L52709 34828
L52784 34828
L52821 34809
L52840 34790
L52859 34753
" />
</g>
<g style="fill:#008484; fill-opacity:0.0; 
stroke:#008484; stroke-width:59.0551; stroke-opacity:1; 
stroke-linecap:round; stroke-linejoin:round;">
<path d="M55100 31100 A955.249 955.249 0.0 0 0 55050 32450 " />
</g>
<g style="fill:#008484; fill-opacity:0.0; 
stroke:#008484; stroke-width:47.2441; stroke-opacity:1; 
stroke-linecap:round; stroke-linejoin:round;">
<path d="M56478 32508
L56478 31091
" />
</g>
<g style="fill:#008484; fill-opacity:0.0; 
stroke:#008484; stroke-width:59.0551; stroke-opacity:1; 
stroke-linecap:round; stroke-linejoin:round;">
<path d="M52700 30800
L53050 30400
" />
<path d="M53050 30400
L53950 30400
" />
<path d="M53950 30400
L54300 30800
" />
<path d="M54300 32800
L53900 33200
" />
<path d="M53900 33200
L53100 33200
" />
<path d="M53100 33200
L52700 32800
" />
<path d="M52700 31000 A1060.66 1060.66 0.0 0 0 52700 32500 " />
</g>
<g style="fill:#008484; fill-opacity:0.0; 
stroke:#008484; stroke-width:50; stroke-opacity:1; 
stroke-linecap:round; stroke-linejoin:round;">
<path d="M54276 30815
L54276 32783
" />
<path d="M52702 32783
L52702 32586
" />
<path d="M52702 32586
L52702 31012
" />
<path d="M52702 31012
L52702 30815
" />
</g>
<g style="fill:#008484; fill-opacity:0.0; 
stroke:#008484; stroke-width:59.0551; stroke-opacity:1; 
stroke-linecap:round; stroke-linejoin:round;">
<path d="M51700 36050 A919.239 919.239 0.0 0 0 50400 36050 " />
</g>
<g style="fill:#008484; fill-opacity:0.0; 
stroke:#008484; stroke-width:47.2441; stroke-opacity:1; 
stroke-linecap:round; stroke-linejoin:round;">
<path d="M50341 37428
L51758 37428
" />
</g>
<g style="fill:#008484; fill-opacity:0.0; 
stroke:#008484; stroke-width:59.0551; stroke-opacity:1; 
stroke-linecap:round; stroke-linejoin:round;">
<path d="M51700 38550 A919.239 919.239 0.0 0 0 50400 38550 " />
</g>
<g style="fill:#008484; fill-opacity:0.0; 
stroke:#008484; stroke-width:47.2441; stroke-opacity:1; 
stroke-linecap:round; stroke-linejoin:round;">
<path d="M50341 39928
L51758 39928
" />
</g>
<g style="fill:#008484; fill-opacity:0.0; 
stroke:#008484; stroke-width:59.0551; stroke-opacity:1; 
stroke-linecap:round; stroke-linejoin:round;">
<path d="M51750 41000 A989.95 989.95 0.0 0 0 50350 41000 " />
</g>
<g style="fill:#008484; fill-opacity:0.0; 
stroke:#008484; stroke-width:47.2441; stroke-opacity:1; 
stroke-linecap:round; stroke-linejoin:round;">
<path d="M50341 42428
L51758 42428
" />
</g>
<g style="fill:#008484; fill-opacity:0.0; 
stroke:#008484; stroke-width:59.0551; stroke-opacity:1; 
stroke-linecap:round; stroke-linejoin:round;">
<path d="M49000 48500 A1133.58 1133.58 0.0 0 0 50600 48600 " />
</g>
<g style="fill:#008484; fill-opacity:0.0; 
stroke:#008484; stroke-width:50; stroke-opacity:1; 
stroke-linecap:round; stroke-linejoin:round;">
<path d="M50624 47300
L48975 47300
" />
</g>
<g style="fill:#008484; fill-opacity:0.0; 
stroke:#008484; stroke-width:59.0551; stroke-opacity:1; 
stroke-linecap:round; stroke-linejoin:round;">
<circle cx="50150" cy="44450" r="559.017" /> 
<path d="M59471 30560
L59471 33039
" />
<path d="M59526 30562
L59526 33037
" />
<path d="M59581 30567
L59581 31624
" />
<path d="M59581 31975
L59581 33032
" />
<path d="M59637 30575
L59637 31541
" />
<path d="M59637 32058
L59637 33024
" />
<path d="M59692 30585
L59692 31489
" />
<path d="M59692 32110
L59692 33014
" />
<path d="M59747 30598
L59747 31453
" />
<path d="M59747 32146
L59747 33001
" />
<path d="M59802 30613
L59802 31429
" />
<path d="M59802 32170
L59802 32986
" />
<path d="M59857 30631
L59857 31413
" />
<path d="M59857 32186
L59857 32968
" />
<path d="M59912 30652
L59912 31407
" />
<path d="M59912 32192
L59912 32947
" />
<path d="M59967 30676
L59967 31407
" />
<path d="M59967 32192
L59967 32923
" />
<path d="M60022 30704
L60022 31416
" />
<path d="M60022 32183
L60022 32895
" />
<path d="M60077 30735
L60077 31433
" />
<path d="M60077 32166
L60077 32864
" />
<path d="M60133 30770
L60133 31460
" />
<path d="M60133 32139
L60133 32829
" />
<path d="M60188 30809
L60188 31499
" />
<path d="M60188 32100
L60188 32790
" />
<path d="M60243 30853
L60243 31556
" />
<path d="M60243 32043
L60243 32746
" />
<path d="M60298 30902
L60298 31650
" />
<path d="M60298 31949
L60298 32697
" />
<path d="M60353 30959
L60353 32640
" />
<path d="M60408 31022
L60408 32577
" />
<path d="M60463 31096
L60463 32503
" />
<path d="M60518 31184
L60518 32415
" />
<path d="M60574 31293
L60574 32306
" />
<path d="M60629 31440
L60629 32159
" />
<circle cx="59934.3" cy="31800" r="393.701" /> 
<circle cx="59442.1" cy="31800" r="1254.92" /> 
<path d="M57550 42200
L57550 41200
" />
<path d="M56439 41089
L57050 41089
" />
<path d="M56439 41089
L56439 42310
" />
<path d="M56439 42310
L57050 42310
" />
<path d="M42189 38950
L42189 39560
" />
<path d="M42189 39560
L43410 39560
" />
<path d="M43410 39560
L43410 38950
" />
<path d="M42300 38450
L42300 36450
" />
<path d="M42300 36450
L43300 36450
" />
<path d="M43300 36450
L43300 38450
" />
<path d="M43300 38450
L42300 38450
" />
<path d="M43689 38950
L43689 39560
" />
<path d="M43689 39560
L44910 39560
" />
<path d="M44910 39560
L44910 38950
" />
<path d="M43800 38450
L43800 36450
" />
<path d="M43800 36450
L44800 36450
" />
<path d="M44800 36450
L44800 38450
" />
<path d="M44800 38450
L43800 38450
" />
<path d="M42189 39839
L42189 40450
" />
<path d="M42300 41950
L42300 40950
" />
<path d="M42300 40950
L43300 40950
" />
<path d="M43410 40450
L43410 39839
" />
<path d="M43410 39839
L42189 39839
" />
<path d="M43300 40950
L43300 41950
" />
<path d="M43300 41950
L42300 41950
" />
<path d="M56550 40200
L54550 40200
" />
<path d="M54550 40200
L54550 39200
" />
<path d="M54550 39200
L56550 39200
" />
<path d="M56550 39200
L56550 40200
" />
<path d="M56550 39700
L57050 39700
" />
<path d="M54550 39700
L54050 39700
" />
<path d="M56550 38700
L54550 38700
" />
<path d="M54550 38700
L54550 37700
" />
<path d="M54550 37700
L56550 37700
" />
<path d="M56550 37700
L56550 38700
" />
<path d="M56550 38200
L57050 38200
" />
<path d="M54550 38200
L54050 38200
" />
<path d="M54550 36200
L56550 36200
" />
<path d="M56550 36200
L56550 37200
" />
<path d="M56550 37200
L54550 37200
" />
<path d="M54550 37200
L54550 36200
" />
<path d="M54550 36700
L54050 36700
" />
<path d="M56550 36700
L57050 36700
" />
<path d="M55050 44950
L53050 44950
" />
<path d="M53050 44950
L53050 43950
" />
<path d="M53050 43950
L55050 43950
" />
<path d="M55050 43950
L55050 44950
" />
<path d="M55050 44450
L55550 44450
" />
<path d="M53050 44450
L52550 44450
" />
<path d="M55050 48450
L53050 48450
" />
<path d="M53050 48450
L53050 47450
" />
<path d="M53050 47450
L55050 47450
" />
<path d="M55050 47450
L55050 48450
" />
<path d="M55050 47950
L55550 47950
" />
<path d="M53050 47950
L52550 47950
" />
<path d="M55050 46450
L53050 46450
" />
<path d="M53050 46450
L53050 45450
" />
<path d="M53050 45450
L55050 45450
" />
<path d="M55050 45450
L55050 46450
" />
<path d="M55050 45950
L55550 45950
" />
<path d="M53050 45950
L52550 45950
" />
<path d="M58750 34800
L56750 34800
" />
<path d="M56750 34800
L56750 33800
" />
<path d="M56750 33800
L58750 33800
" />
<path d="M58750 33800
L58750 34800
" />
<path d="M58750 34300
L59250 34300
" />
<path d="M56750 34300
L56250 34300
" />
<path d="M51500 33800
L53500 33800
" />
<path d="M53500 33800
L53500 34800
" />
<path d="M53500 34800
L51500 34800
" />
<path d="M51500 34800
L51500 33800
" />
<path d="M51500 34300
L51000 34300
" />
<path d="M53500 34300
L54000 34300
" />
</g>
<g style="fill:#840000; fill-opacity:0.0; 
stroke:#840000; stroke-width:59.0551; stroke-opacity:1; 
stroke-linecap:round; stroke-linejoin:round;">
</g>
<g style="fill:#840000; fill-opacity:0.0; 
stroke:#840000; stroke-width:520; stroke-opacity:1; 
stroke-linecap:round; stroke-linejoin:round;">
<path d="M53229 31799
L53749 31799
" />
<path d="M53229 32783
L53749 32783
" />
<path d="M53229 30815
L53749 30815
" />
</g>
<g style="fill:#840000; fill-opacity:1.0; 
stroke:#840000; stroke-width:0; stroke-opacity:1; 
stroke-linecap:round; stroke-linejoin:round;">
<circle cx="48800" cy="47950" r="260" /> 
</g>
<g style="fill:#840000; fill-opacity:1.0; 
stroke:#840000; stroke-width:39.3701; stroke-opacity:1; 
stroke-linecap:round; stroke-linejoin:round;">
</g>
<g style="fill:#840000; fill-opacity:1.0; 
stroke:#840000; stroke-width:0; stroke-opacity:1; 
stroke-linecap:round; stroke-linejoin:round;">
<circle cx="50800" cy="47950" r="260" /> 
</g>
<g style="fill:#840000; fill-opacity:1.0; 
stroke:#840000; stroke-width:39.3701; stroke-opacity:1; 
stroke-linecap:round; stroke-linejoin:round;">
</g>
<g style="fill:#840000; fill-opacity:1.0; 
stroke:#840000; stroke-width:0; stroke-opacity:1; 
stroke-linecap:round; stroke-linejoin:round;">
<circle cx="49800" cy="47950" r="260" /> 
</g>
<g style="fill:#840000; fill-opacity:1.0; 
stroke:#840000; stroke-width:39.3701; stroke-opacity:1; 
stroke-linecap:round; stroke-linejoin:round;">
</g>
<g style="fill:#840000; fill-opacity:1.0; 
stroke:#840000; stroke-width:0; stroke-opacity:1; 
stroke-linecap:round; stroke-linejoin:round;">
<circle cx="57550" cy="39700" r="393.5" /> 
</g>
<g style="fill:#840000; fill-opacity:1.0; 
stroke:#840000; stroke-width:39.3701; stroke-opacity:1; 
stroke-linecap:round; stroke-linejoin:round;">
</g>
<g style="fill:#840000; fill-opacity:1.0; 
stroke:#840000; stroke-width:0; stroke-opacity:1; 
stroke-linecap:round; stroke-linejoin:round;">
<circle cx="53550" cy="39700" r="393.5" /> 
</g>
<g style="fill:#840000; fill-opacity:1.0; 
stroke:#840000; stroke-width:39.3701; stroke-opacity:1; 
stroke-linecap:round; stroke-linejoin:round;">
</g>
<g style="fill:#840000; fill-opacity:1.0; 
stroke:#840000; stroke-width:0; stroke-opacity:1; 
stroke-linecap:round; stroke-linejoin:round;">
<circle cx="57550" cy="38200" r="393.5" /> 
</g>
<g style="fill:#840000; fill-opacity:1.0; 
stroke:#840000; stroke-width:39.3701; stroke-opacity:1; 
stroke-linecap:round; stroke-linejoin:round;">
</g>
<g style="fill:#840000; fill-opacity:1.0; 
stroke:#840000; stroke-width:0; stroke-opacity:1; 
stroke-linecap:round; stroke-linejoin:round;">
<circle cx="53550" cy="38200" r="393.5" /> 
</g>
<g style="fill:#840000; fill-opacity:1.0; 
stroke:#840000; stroke-width:39.3701; stroke-opacity:1; 
stroke-linecap:round; stroke-linejoin:round;">
</g>
<g style="fill:#840000; fill-opacity:1.0; 
stroke:#840000; stroke-width:0; stroke-opacity:1; 
stroke-linecap:round; stroke-linejoin:round;">
<circle cx="53550" cy="36700" r="393.5" /> 
</g>
<g style="fill:#840000; fill-opacity:1.0; 
stroke:#840000; stroke-width:39.3701; stroke-opacity:1; 
stroke-linecap:round; stroke-linejoin:round;">
</g>
<g style="fill:#840000; fill-opacity:1.0; 
stroke:#840000; stroke-width:0; stroke-opacity:1; 
stroke-linecap:round; stroke-linejoin:round;">
<circle cx="57550" cy="36700" r="393.5" /> 
</g>
<g style="fill:#840000; fill-opacity:1.0; 
stroke:#840000; stroke-width:39.3701; stroke-opacity:1; 
stroke-linecap:round; stroke-linejoin:round;">
</g>
<g style="fill:#840000; fill-opacity:1.0; 
stroke:#840000; stroke-width:0; stroke-opacity:1; 
stroke-linecap:round; stroke-linejoin:round;">
<circle cx="56050" cy="44450" r="393.5" /> 
</g>
<g style="fill:#840000; fill-opacity:1.0; 
stroke:#840000; stroke-width:39.3701; stroke-opacity:1; 
stroke-linecap:round; stroke-linejoin:round;">
</g>
<g style="fill:#840000; fill-opacity:1.0; 
stroke:#840000; stroke-width:0; stroke-opacity:1; 
stroke-linecap:round; stroke-linejoin:round;">
<circle cx="52050" cy="44450" r="393.5" /> 
</g>
<g style="fill:#840000; fill-opacity:1.0; 
stroke:#840000; stroke-width:39.3701; stroke-opacity:1; 
stroke-linecap:round; stroke-linejoin:round;">
</g>
<g style="fill:#840000; fill-opacity:1.0; 
stroke:#840000; stroke-width:0; stroke-opacity:1; 
stroke-linecap:round; stroke-linejoin:round;">
<circle cx="56050" cy="47950" r="393.5" /> 
</g>
<g style="fill:#840000; fill-opacity:1.0; 
stroke:#840000; stroke-width:39.3701; stroke-opacity:1; 
stroke-linecap:round; stroke-linejoin:round;">
</g>
<g style="fill:#840000; fill-opacity:1.0; 
stroke:#840000; stroke-width:0; stroke-opacity:1; 
stroke-linecap:round; stroke-linejoin:round;">
<circle cx="52050" cy="47950" r="393.5" /> 
</g>
<g style="fill:#840000; fill-opacity:1.0; 
stroke:#840000; stroke-width:39.3701; stroke-opacity:1; 
stroke-linecap:round; stroke-linejoin:round;">
</g>
<g style="fill:#840000; fill-opacity:1.0; 
stroke:#840000; stroke-width:0; stroke-opacity:1; 
stroke-linecap:round; stroke-linejoin:round;">
<circle cx="56050" cy="45950" r="393.5" /> 
</g>
<g style="fill:#840000; fill-opacity:1.0; 
stroke:#840000; stroke-width:39.3701; stroke-opacity:1; 
stroke-linecap:round; stroke-linejoin:round;">
</g>
<g style="fill:#840000; fill-opacity:1.0; 
stroke:#840000; stroke-width:0; stroke-opacity:1; 
stroke-linecap:round; stroke-linejoin:round;">
<circle cx="52050" cy="45950" r="393.5" /> 
</g>
<g style="fill:#840000; fill-opacity:1.0; 
stroke:#840000; stroke-width:39.3701; stroke-opacity:1; 
stroke-linecap:round; stroke-linejoin:round;">
</g>
<g style="fill:#840000; fill-opacity:1.0; 
stroke:#840000; stroke-width:0; stroke-opacity:1; 
stroke-linecap:round; stroke-linejoin:round;">
<circle cx="59750" cy="34300" r="393.5" /> 
</g>
<g style="fill:#840000; fill-opacity:1.0; 
stroke:#840000; stroke-width:39.3701; stroke-opacity:1; 
stroke-linecap:round; stroke-linejoin:round;">
</g>
<g style="fill:#840000; fill-opacity:1.0; 
stroke:#840000; stroke-width:0; stroke-opacity:1; 
stroke-linecap:round; stroke-linejoin:round;">
<circle cx="55750" cy="34300" r="393.5" /> 
</g>
<g style="fill:#840000; fill-opacity:1.0; 
stroke:#840000; stroke-width:39.3701; stroke-opacity:1; 
stroke-linecap:round; stroke-linejoin:round;">
</g>
<g style="fill:#840000; fill-opacity:1.0; 
stroke:#840000; stroke-width:0; stroke-opacity:1; 
stroke-linecap:round; stroke-linejoin:round;">
<circle cx="50500" cy="34300" r="393.5" /> 
</g>
<g style="fill:#840000; fill-opacity:1.0; 
stroke:#840000; stroke-width:39.3701; stroke-opacity:1; 
stroke-linecap:round; stroke-linejoin:round;">
</g>
<g style="fill:#840000; fill-opacity:1.0; 
stroke:#840000; stroke-width:0; stroke-opacity:1; 
stroke-linecap:round; stroke-linejoin:round;">
<circle cx="54500" cy="34300" r="393.5" /> 
</g>
<g style="fill:#840000; fill-opacity:1.0; 
stroke:#840000; stroke-width:39.3701; stroke-opacity:1; 
stroke-linecap:round; stroke-linejoin:round;">
</g> 
</svg>
